<?xml version="1.0" encoding="UTF-8"?>
<svg width="160px" height="32px" viewBox="0 0 160 32" version="1.1" xmlns="http://www.w3.org/2000/svg" xmlns:xlink="http://www.w3.org/1999/xlink">
    <!-- Generator: Sketch 50.2 (55047) - http://www.bohemiancoding.com/sketch -->
    <title>Soap-logo</title>
    <desc>Created with Sketch.</desc>
    <defs></defs>
    <g id="Page-1" stroke="none" stroke-width="1" fill="none" fill-rule="evenodd">
        <g id="item" transform="translate(-121.000000, -42.000000)" fill="#FF7F96">
            <g id="Group-6" transform="translate(121.000000, 42.000000)">
                <g id="Soap-logo">
                    <path d="M0,18.5927505 L4.88236392,18.5927505 C4.98479113,20.5714286 6.41877214,21.9360341 8.29660442,21.9360341 C10.3792911,21.9360341 11.6767025,20.4008529 11.6767025,18.5927505 C11.6767025,16.0341151 9.4915886,15.0788913 7.98932277,14.5671642 C7.16990505,14.2942431 6.31634493,14.0554371 5.53106961,13.7142857 C1.70712025,12.1108742 0.921844935,9.14285714 0.921844935,7.1641791 C0.921844935,3.85501066 3.48252531,0 8.43317404,0 C13.2472531,0 15.5689367,3.68443497 15.7396487,7.1641791 L10.9255696,7.1641791 C10.9255696,5.90191898 10.2085791,4.36673774 8.29660442,4.36673774 C6.35048733,4.36673774 5.59935442,5.8336887 5.59935442,7.19829424 C5.59935442,9.17697228 7.44304429,9.82515991 8.8428829,10.2686567 C9.66230062,10.5415778 10.4475759,10.7803838 11.2328513,11.08742 C12.4278354,11.565032 16.354212,13.3049041 16.354212,18.3198294 C16.354212,22.7889126 12.9741139,26.3027719 8.1600348,26.3027719 C4.33608544,26.3027719 0.034142405,23.7441365 0,18.5927505 Z M33.7202806,6.17484009 C39.5244894,6.17484009 43.7581477,10.7462687 43.7581477,16.2729211 C43.7581477,21.7654584 39.490347,26.3027719 33.7202806,26.3027719 C27.9502141,26.3027719 23.6824135,21.7654584 23.6824135,16.2729211 C23.6824135,10.7462687 27.9160717,6.17484009 33.7202806,6.17484009 Z M33.7202806,10.4733475 C30.3401825,10.4733475 28.2233534,13.2025586 28.2233534,16.2729211 C28.2233534,19.3432836 30.3743249,22.0042644 33.7202806,22.0042644 C37.0662363,22.0042644 39.2172078,19.3432836 39.2172078,16.2729211 C39.2172078,13.2025586 37.1003787,10.4733475 33.7202806,10.4733475 Z M70.9230865,6.78891258 L70.9230865,25.6886994 L66.7577131,25.6886994 L66.7577131,23.130064 L66.6894283,23.130064 C64.5043143,26.1321962 61.3632131,26.3027719 60.3730833,26.3027719 C55.5590042,26.3027719 51.1204916,22.5159915 51.1204916,16.4093817 C51.1204916,10.4733475 55.285865,6.17484009 60.509653,6.17484009 C63.206903,6.17484009 65.3237321,7.30063966 66.6894283,9.44989339 L66.7577131,9.44989339 L66.7577131,6.78891258 L70.9230865,6.78891258 Z M61.2266435,10.4733475 C57.9489726,10.4733475 55.6614314,12.9978678 55.6614314,16.4093817 C55.6614314,19.6162047 57.9148302,22.0042644 61.2266435,22.0042644 C64.4701719,22.0042644 66.6552859,19.6503198 66.6552859,16.2046908 C66.6552859,12.9296375 64.5043143,10.4733475 61.2266435,10.4733475 Z M80.1974051,32 L80.1974051,6.78891258 L84.3627785,6.78891258 L84.3627785,9.24520256 L84.4310633,9.24520256 C86.0357563,6.61833689 89.040288,6.17484009 90.5084114,6.17484009 C95.6639146,6.17484009 100,10.1321962 100,16.238806 C100,21.424307 96.5174747,26.3027719 90.5084114,26.3027719 C88.9720032,26.3027719 86.5820348,25.8933902 84.8066298,23.641791 L84.738345,23.641791 L84.738345,32 L80.1974051,32 Z M90.0304177,10.4733475 C86.7186044,10.4733475 84.4652057,12.9296375 84.4652057,16.238806 C84.4652057,19.8550107 86.7868893,22.0042644 89.8597057,22.0042644 C93.1032342,22.0042644 95.4590601,19.5479744 95.4590601,16.2046908 C95.4590601,13.6801706 93.8543671,10.4733475 90.0304177,10.4733475 Z"></path>
                    <path d="M20,18.5927505 L24.8823639,18.5927505 C24.9847911,20.5714286 26.4187721,21.9360341 28.2966044,21.9360341 C30.3792911,21.9360341 31.6767025,20.4008529 31.6767025,18.5927505 C31.6767025,16.0341151 29.4915886,15.0788913 27.9893228,14.5671642 C27.1699051,14.2942431 26.3163449,14.0554371 25.5310696,13.7142857 C21.7071203,12.1108742 20.9218449,9.14285714 20.9218449,7.1641791 C20.9218449,3.85501066 23.4825253,0 28.433174,0 C33.2472531,0 35.5689367,3.68443497 35.7396487,7.1641791 L30.9255696,7.1641791 C30.9255696,5.90191898 30.2085791,4.36673774 28.2966044,4.36673774 C26.3504873,4.36673774 25.5993544,5.8336887 25.5993544,7.19829424 C25.5993544,9.17697228 27.4430443,9.82515991 28.8428829,10.2686567 C29.6623006,10.5415778 30.4475759,10.7803838 31.2328513,11.08742 C32.4278354,11.565032 36.354212,13.3049041 36.354212,18.3198294 C36.354212,22.7889126 32.9741139,26.3027719 28.1600348,26.3027719 C24.3360854,26.3027719 20.0341424,23.7441365 20,18.5927505 Z M53.7202806,6.17484009 C59.5244894,6.17484009 63.7581477,10.7462687 63.7581477,16.2729211 C63.7581477,21.7654584 59.490347,26.3027719 53.7202806,26.3027719 C47.9502141,26.3027719 43.6824135,21.7654584 43.6824135,16.2729211 C43.6824135,10.7462687 47.9160717,6.17484009 53.7202806,6.17484009 Z M53.7202806,10.4733475 C50.3401825,10.4733475 48.2233534,13.2025586 48.2233534,16.2729211 C48.2233534,19.3432836 50.3743249,22.0042644 53.7202806,22.0042644 C57.0662363,22.0042644 59.2172078,19.3432836 59.2172078,16.2729211 C59.2172078,13.2025586 57.1003787,10.4733475 53.7202806,10.4733475 Z M90.9230865,6.78891258 L90.9230865,25.6886994 L86.7577131,25.6886994 L86.7577131,23.130064 L86.6894283,23.130064 C84.5043143,26.1321962 81.3632131,26.3027719 80.3730833,26.3027719 C75.5590042,26.3027719 71.1204916,22.5159915 71.1204916,16.4093817 C71.1204916,10.4733475 75.285865,6.17484009 80.509653,6.17484009 C83.206903,6.17484009 85.3237321,7.30063966 86.6894283,9.44989339 L86.7577131,9.44989339 L86.7577131,6.78891258 L90.9230865,6.78891258 Z M81.2266435,10.4733475 C77.9489726,10.4733475 75.6614314,12.9978678 75.6614314,16.4093817 C75.6614314,19.6162047 77.9148302,22.0042644 81.2266435,22.0042644 C84.4701719,22.0042644 86.6552859,19.6503198 86.6552859,16.2046908 C86.6552859,12.9296375 84.5043143,10.4733475 81.2266435,10.4733475 Z M100.197405,32 L100.197405,6.78891258 L104.362779,6.78891258 L104.362779,9.24520256 L104.431063,9.24520256 C106.035756,6.61833689 109.040288,6.17484009 110.508411,6.17484009 C115.663915,6.17484009 120,10.1321962 120,16.238806 C120,21.424307 116.517475,26.3027719 110.508411,26.3027719 C108.972003,26.3027719 106.582035,25.8933902 104.80663,23.641791 L104.738345,23.641791 L104.738345,32 L100.197405,32 Z M110.030418,10.4733475 C106.718604,10.4733475 104.465206,12.9296375 104.465206,16.238806 C104.465206,19.8550107 106.786889,22.0042644 109.859706,22.0042644 C113.103234,22.0042644 115.45906,19.5479744 115.45906,16.2046908 C115.45906,13.6801706 113.854367,10.4733475 110.030418,10.4733475 Z" id="Soap-logo-Copy" opacity="0.300000012"></path>
                    <path d="M40,18.5927505 L44.8823639,18.5927505 C44.9847911,20.5714286 46.4187721,21.9360341 48.2966044,21.9360341 C50.3792911,21.9360341 51.6767025,20.4008529 51.6767025,18.5927505 C51.6767025,16.0341151 49.4915886,15.0788913 47.9893228,14.5671642 C47.1699051,14.2942431 46.3163449,14.0554371 45.5310696,13.7142857 C41.7071203,12.1108742 40.9218449,9.14285714 40.9218449,7.1641791 C40.9218449,3.85501066 43.4825253,0 48.433174,0 C53.2472531,0 55.5689367,3.68443497 55.7396487,7.1641791 L50.9255696,7.1641791 C50.9255696,5.90191898 50.2085791,4.36673774 48.2966044,4.36673774 C46.3504873,4.36673774 45.5993544,5.8336887 45.5993544,7.19829424 C45.5993544,9.17697228 47.4430443,9.82515991 48.8428829,10.2686567 C49.6623006,10.5415778 50.4475759,10.7803838 51.2328513,11.08742 C52.4278354,11.565032 56.354212,13.3049041 56.354212,18.3198294 C56.354212,22.7889126 52.9741139,26.3027719 48.1600348,26.3027719 C44.3360854,26.3027719 40.0341424,23.7441365 40,18.5927505 Z M73.7202806,6.17484009 C79.5244894,6.17484009 83.7581477,10.7462687 83.7581477,16.2729211 C83.7581477,21.7654584 79.490347,26.3027719 73.7202806,26.3027719 C67.9502141,26.3027719 63.6824135,21.7654584 63.6824135,16.2729211 C63.6824135,10.7462687 67.9160717,6.17484009 73.7202806,6.17484009 Z M73.7202806,10.4733475 C70.3401825,10.4733475 68.2233534,13.2025586 68.2233534,16.2729211 C68.2233534,19.3432836 70.3743249,22.0042644 73.7202806,22.0042644 C77.0662363,22.0042644 79.2172078,19.3432836 79.2172078,16.2729211 C79.2172078,13.2025586 77.1003787,10.4733475 73.7202806,10.4733475 Z M110.923086,6.78891258 L110.923086,25.6886994 L106.757713,25.6886994 L106.757713,23.130064 L106.689428,23.130064 C104.504314,26.1321962 101.363213,26.3027719 100.373083,26.3027719 C95.5590042,26.3027719 91.1204916,22.5159915 91.1204916,16.4093817 C91.1204916,10.4733475 95.285865,6.17484009 100.509653,6.17484009 C103.206903,6.17484009 105.323732,7.30063966 106.689428,9.44989339 L106.757713,9.44989339 L106.757713,6.78891258 L110.923086,6.78891258 Z M101.226643,10.4733475 C97.9489726,10.4733475 95.6614314,12.9978678 95.6614314,16.4093817 C95.6614314,19.6162047 97.9148302,22.0042644 101.226643,22.0042644 C104.470172,22.0042644 106.655286,19.6503198 106.655286,16.2046908 C106.655286,12.9296375 104.504314,10.4733475 101.226643,10.4733475 Z M120.197405,32 L120.197405,6.78891258 L124.362779,6.78891258 L124.362779,9.24520256 L124.431063,9.24520256 C126.035756,6.61833689 129.040288,6.17484009 130.508411,6.17484009 C135.663915,6.17484009 140,10.1321962 140,16.238806 C140,21.424307 136.517475,26.3027719 130.508411,26.3027719 C128.972003,26.3027719 126.582035,25.8933902 124.80663,23.641791 L124.738345,23.641791 L124.738345,32 L120.197405,32 Z M130.030418,10.4733475 C126.718604,10.4733475 124.465206,12.9296375 124.465206,16.238806 C124.465206,19.8550107 126.786889,22.0042644 129.859706,22.0042644 C133.103234,22.0042644 135.45906,19.5479744 135.45906,16.2046908 C135.45906,13.6801706 133.854367,10.4733475 130.030418,10.4733475 Z" id="Soap-logo-Copy-2" opacity="0.200000003"></path>
                    <path d="M60,18.5927505 L64.8823639,18.5927505 C64.9847911,20.5714286 66.4187721,21.9360341 68.2966044,21.9360341 C70.3792911,21.9360341 71.6767025,20.4008529 71.6767025,18.5927505 C71.6767025,16.0341151 69.4915886,15.0788913 67.9893228,14.5671642 C67.1699051,14.2942431 66.3163449,14.0554371 65.5310696,13.7142857 C61.7071203,12.1108742 60.9218449,9.14285714 60.9218449,7.1641791 C60.9218449,3.85501066 63.4825253,0 68.433174,0 C73.2472531,0 75.5689367,3.68443497 75.7396487,7.1641791 L70.9255696,7.1641791 C70.9255696,5.90191898 70.2085791,4.36673774 68.2966044,4.36673774 C66.3504873,4.36673774 65.5993544,5.8336887 65.5993544,7.19829424 C65.5993544,9.17697228 67.4430443,9.82515991 68.8428829,10.2686567 C69.6623006,10.5415778 70.4475759,10.7803838 71.2328513,11.08742 C72.4278354,11.565032 76.354212,13.3049041 76.354212,18.3198294 C76.354212,22.7889126 72.9741139,26.3027719 68.1600348,26.3027719 C64.3360854,26.3027719 60.0341424,23.7441365 60,18.5927505 Z M93.7202806,6.17484009 C99.5244894,6.17484009 103.758148,10.7462687 103.758148,16.2729211 C103.758148,21.7654584 99.490347,26.3027719 93.7202806,26.3027719 C87.9502141,26.3027719 83.6824135,21.7654584 83.6824135,16.2729211 C83.6824135,10.7462687 87.9160717,6.17484009 93.7202806,6.17484009 Z M93.7202806,10.4733475 C90.3401825,10.4733475 88.2233534,13.2025586 88.2233534,16.2729211 C88.2233534,19.3432836 90.3743249,22.0042644 93.7202806,22.0042644 C97.0662363,22.0042644 99.2172078,19.3432836 99.2172078,16.2729211 C99.2172078,13.2025586 97.1003787,10.4733475 93.7202806,10.4733475 Z M130.923086,6.78891258 L130.923086,25.6886994 L126.757713,25.6886994 L126.757713,23.130064 L126.689428,23.130064 C124.504314,26.1321962 121.363213,26.3027719 120.373083,26.3027719 C115.559004,26.3027719 111.120492,22.5159915 111.120492,16.4093817 C111.120492,10.4733475 115.285865,6.17484009 120.509653,6.17484009 C123.206903,6.17484009 125.323732,7.30063966 126.689428,9.44989339 L126.757713,9.44989339 L126.757713,6.78891258 L130.923086,6.78891258 Z M121.226643,10.4733475 C117.948973,10.4733475 115.661431,12.9978678 115.661431,16.4093817 C115.661431,19.6162047 117.91483,22.0042644 121.226643,22.0042644 C124.470172,22.0042644 126.655286,19.6503198 126.655286,16.2046908 C126.655286,12.9296375 124.504314,10.4733475 121.226643,10.4733475 Z M140.197405,32 L140.197405,6.78891258 L144.362779,6.78891258 L144.362779,9.24520256 L144.431063,9.24520256 C146.035756,6.61833689 149.040288,6.17484009 150.508411,6.17484009 C155.663915,6.17484009 160,10.1321962 160,16.238806 C160,21.424307 156.517475,26.3027719 150.508411,26.3027719 C148.972003,26.3027719 146.582035,25.8933902 144.80663,23.641791 L144.738345,23.641791 L144.738345,32 L140.197405,32 Z M150.030418,10.4733475 C146.718604,10.4733475 144.465206,12.9296375 144.465206,16.238806 C144.465206,19.8550107 146.786889,22.0042644 149.859706,22.0042644 C153.103234,22.0042644 155.45906,19.5479744 155.45906,16.2046908 C155.45906,13.6801706 153.854367,10.4733475 150.030418,10.4733475 Z" id="Soap-logo-Copy-3" opacity="0.100000001"></path>
                </g>
            </g>
        </g>
    </g>
</svg>