<?xml version="1.0" standalone="no"?>
<!DOCTYPE svg PUBLIC "-//W3C//DTD SVG 1.1//EN" "http://www.w3.org/Graphics/SVG/1.1/DTD/svg11.dtd" >
<svg>
<metadata>
Created by FontForge 20090914 at Mon Jan 20 21:18:24 2020
 By www-data
Copyright &#194;&#169; 2010 ParaType Inc., ParaType Ltd. All rights reserved.
</metadata>
<defs>
<font id="PTMono-Bold" horiz-adv-x="600" >
  <font-face 
    font-family="PT Mono"
    font-weight="700"
    font-stretch="normal"
    units-per-em="1000"
    panose-1="2 6 7 9 2 2 5 2 2 4"
    ascent="770"
    descent="-230"
    x-height="500"
    cap-height="700"
    bbox="-52 -235 754.003 945"
    underline-thickness="50"
    underline-position="-50"
    unicode-range="U+0020-U+FB02"
  />
<missing-glyph 
d="M10 700h580v-700h-580v700zM495 630l-195 -217l-195 217l-50 -50l197 -220l-197 -220l50 -50l195 217l195 -217l50 50l-198 220l198 220z" />
    <glyph glyph-name=".notdef" 
d="M10 700h580v-700h-580v700zM495 630l-195 -217l-195 217l-50 -50l197 -220l-197 -220l50 -50l195 217l195 -217l50 50l-198 220l198 220z" />
    <glyph glyph-name="space" unicode=" " 
 />
    <glyph glyph-name="exclam" unicode="!" 
d="M233 700h134v-329l-26 -163h-82l-26 163v329zM219 66c0 23.333 7.33301 41.833 22 55.5s34 20.5 58 20.5c25.333 0 45.333 -6.83301 60 -20.5s22 -32.167 22 -55.5s-7.33301 -42 -22 -56s-34.667 -21 -60 -21c-24 0 -43.333 7 -58 21s-22 32.667 -22 56z" />
    <glyph glyph-name="quotedbl" unicode="&#x22;" 
d="M130 700h114l-36 -316h-78v316zM347 700h114l-36 -316h-78v316z" />
    <glyph glyph-name="numbersign" unicode="#" 
d="M310 205h-89l-36 -154h-107l36 154h-74l22 97h75l25 106h-72l22 97h73l35 144h106l-34 -144h89l35 144h106l-34 -144h72l-25 -97h-70l-25 -106h69l-24 -97h-68l-36 -154h-107zM244 302h89l25 106h-89z" />
    <glyph glyph-name="dollar" unicode="$" 
d="M245 -13c-38 1.33301 -71.333 5.33398 -100 12.001s-51 14.334 -67 23.001l39 113c12 -7.33301 28.833 -14.333 50.5 -21s47.5 -11.334 77.5 -14.001v205c-20.667 9.33301 -41.167 19.666 -61.5 30.999s-38.5 25 -54.5 41s-28.833 35.167 -38.5 57.5
s-14.5 48.833 -14.5 79.5c0 57.333 15.167 101.833 45.5 133.5s71.5 52.167 123.5 61.5v91h104v-87c29.333 -2 55 -6 77 -12s42.333 -13 61 -21l-36 -111c-11.333 5.33301 -25.666 10.666 -42.999 15.999s-37 9.33301 -59 12v-187c20.667 -9.33301 41.5 -19.833 62.5 -31.5
s39.667 -25.5 56 -41.5s29.666 -34.833 39.999 -56.5s15.5 -47.5 15.5 -77.5c0 -61.333 -15.5 -109.166 -46.5 -143.499s-73.5 -56.5 -127.5 -66.5v-93h-104v87zM391 188.001c0 21.333 -8.16699 38.834 -24.5 52.501s-36.5 26.167 -60.5 37.5v-178
c29.333 3.33301 50.833 12.666 64.5 27.999s20.5 35.333 20.5 60zM208 525.002c0 -20 7.5 -36.668 22.5 -50.001s34.167 -25.666 57.5 -36.999v162c-31.333 -1.33301 -52.5 -9 -63.5 -23s-16.5 -31.333 -16.5 -52z" />
    <glyph glyph-name="percent" unicode="%" 
d="M16 542c0 60 12.833 103.333 38.5 130s61.5 40 107.5 40c45.333 0 80.833 -12.667 106.5 -38s38.5 -69.333 38.5 -132s-12.833 -106.667 -38.5 -132s-61.167 -38 -106.5 -38c-46 0 -81.833 12.667 -107.5 38s-38.5 69.333 -38.5 132zM113 542
c0 -57.333 16.333 -86 49 -86c15.333 0 27.166 6.16699 35.499 18.5s12.5 34.833 12.5 67.5c0 32 -4.16699 54.333 -12.5 67s-20.166 19 -35.499 19s-27.333 -6.33301 -36 -19s-13 -35 -13 -67zM520 709l58 -53l-507 -670l-56 57zM293 170c0 60 12.833 103.333 38.5 130
s61.5 40 107.5 40c45.333 0 80.833 -12.667 106.5 -38s38.5 -69.333 38.5 -132s-12.833 -106.667 -38.5 -132s-61.167 -38 -106.5 -38c-46 0 -81.833 12.667 -107.5 38s-38.5 69.333 -38.5 132zM390 170c0 -57.333 16.333 -86 49 -86c15.333 0 27.166 6.16699 35.499 18.5
s12.5 34.833 12.5 67.5c0 32 -4.16699 54.333 -12.5 67s-20.166 19 -35.499 19s-27.333 -6.33301 -36 -19s-13 -35 -13 -67z" />
    <glyph glyph-name="ampersand" unicode="&#x26;" 
d="M12 194c0 25.333 3.8291 49.334 11.4961 72.001s17.834 43.667 30.501 63s27.167 37.333 43.5 54s33.166 31.667 50.499 45c-20 22 -35.833 45.167 -47.5 69.5s-17.5 49.166 -17.5 74.499c0 16.667 3.16699 33.5 9.5 50.5s16.333 32.333 30 46s31.5 24.667 53.5 33
s48.667 12.5 80 12.5c30.667 0 56.834 -3.66699 78.501 -11s39.167 -17 52.5 -29s23 -25.667 29 -41s9 -31 9 -47c0 -27.333 -10.5 -56.333 -31.5 -87s-54.833 -59.667 -101.5 -87c23.333 -36 47.5 -68.5 72.5 -97.5s51.833 -58.167 80.5 -87.5
c7.33301 8 13.833 18.333 19.5 31s10.334 26 14.001 40s6.33398 28.167 8.00098 42.5s2.5 27.5 2.5 39.5h102c-0.666992 -51.333 -8.16699 -96.5 -22.5 -135.5s-29.166 -67.833 -44.499 -86.5c8 -8 18 -15.833 30 -23.5s23.667 -14.167 35 -19.5v-129
c-30 7.33301 -56.833 18.5 -80.5 33.5s-45.167 31.833 -64.5 50.5c-12 -11.333 -25 -22 -39 -32s-29.5 -18.833 -46.5 -26.5s-36 -13.834 -57 -18.501s-44.5 -7 -70.5 -7c-31.333 0 -60.5 4.66699 -87.5 14s-50.167 23 -69.5 41s-34.5 39.833 -45.5 65.5
s-16.5 54.834 -16.5 87.501zM365.996 149.001c-34 35.333 -64 69.498 -90 102.498s-49.333 65.167 -70 96.5c-20.667 -20 -36.5 -41.667 -47.5 -65s-16.5 -49.333 -16.5 -78c0 -17.333 2.83301 -32.666 8.5 -45.999s13.5 -24.666 23.5 -33.999s21.333 -16.5 34 -21.5
s26 -7.5 40 -7.5c26.667 0 50 5.5 70 16.5s36 23.167 48 36.5zM212.996 565.999c0 -28 12 -58.002 36 -90.002c26 16.667 44.833 32.334 56.5 47.001s17.5 28.667 17.5 42c0 16 -4.5 28.667 -13.5 38s-23.5 14 -43.5 14c-18 0 -31.333 -4.66699 -40 -14
s-13 -21.666 -13 -36.999z" />
    <glyph glyph-name="quotesingle" unicode="'" 
d="M243 700h114l-36 -316h-78v316z" />
    <glyph glyph-name="parenleft" unicode="(" 
d="M455 -212c-46.667 7.33301 -91.999 22 -135.999 44s-83 51.667 -117 89s-61.167 82.666 -81.5 135.999s-30.5 115.333 -30.5 186c0 70 10.167 131.833 30.5 185.5s47.5 99.5 81.5 137.5s73 68.333 117 91s89.333 38.334 136 47.001l24 -107
c-23.333 -5.33301 -49.833 -14.833 -79.5 -28.5s-57.834 -34 -84.501 -61s-49.167 -61.833 -67.5 -104.5s-27.5 -96 -27.5 -160c0 -61.333 9.66699 -113 29 -155s42.833 -76.5 70.5 -103.5s56.167 -47.333 85.5 -61s54 -22.5 74 -26.5z" />
    <glyph glyph-name="parenright" unicode=")" 
d="M120 -103c20 4 44.668 12.833 74.001 26.5s57.833 34 85.5 61s51.167 61.5 70.5 103.5s29 93.667 29 155c0 64 -9.16699 117.333 -27.5 160s-40.833 77.5 -67.5 104.5s-54.834 47.333 -84.501 61s-56.167 23.167 -79.5 28.5l24 107
c46.667 -8.66699 92 -24.334 136 -47.001s83 -53 117 -91s61.167 -83.833 81.5 -137.5s30.5 -115.5 30.5 -185.5c0 -70.667 -10.167 -132.667 -30.5 -186s-47.5 -98.666 -81.5 -135.999s-73 -67 -117 -89s-89.333 -36.667 -136 -44z" />
    <glyph glyph-name="asterisk" unicode="*" 
d="M225 731l72 -176l72 175l108 -60l-132 -159l205 26v-122l-195 27l126 -149l-107 -62l-79 184l-70 -180l-108 63l124 144l-191 -27v125l199 -29l-132 158z" />
    <glyph glyph-name="plus" unicode="+" 
d="M49 394h192v199h117v-199h193v-112h-193v-201h-117v201h-192v112z" />
    <glyph glyph-name="comma" unicode="," 
d="M218 64c0 22.667 7.50098 40.667 22.501 54s33.833 20 56.5 20c36.667 0 64.334 -12 83.001 -36s28 -53.667 28 -89c0 -30 -5.83301 -57.333 -17.5 -82s-26.834 -46 -45.501 -64s-39.5 -32.667 -62.5 -44s-45.833 -19 -68.5 -23l-27 55c16 4 32.167 9.66699 48.5 17
s31.166 16.5 44.499 27.5s24.5 23.833 33.5 38.5s14.167 30.667 15.5 48c-20 -4 -37 -4.5 -51 -1.5s-25.5 8.33301 -34.5 16s-15.5 17 -19.5 28s-6 22.833 -6 35.5z" />
    <glyph glyph-name="hyphen" unicode="-" 
d="M154 345h291v-115h-291v115z" />
    <glyph glyph-name="period" unicode="." 
d="M219 66c0 23.333 7.33301 41.833 22 55.5s34 20.5 58 20.5c25.333 0 45.333 -6.83301 60 -20.5s22 -32.167 22 -55.5s-7.33301 -42 -22 -56s-34.667 -21 -60 -21c-24 0 -43.333 7 -58 21s-22 32.667 -22 56z" />
    <glyph glyph-name="slash" unicode="/" 
d="M429 712l98 -44l-357 -808l-98 46z" />
    <glyph glyph-name="zero" unicode="0" 
d="M38 351c0 60.667 6.33301 113.833 19 159.5s30.5 83.5 53.5 113.5s50.5 52.5 82.5 67.5s67.667 22.5 107 22.5c84 0 148.667 -29.5 194 -88.5s68 -150.5 68 -274.5c0 -61.333 -6.33301 -114.833 -19 -160.5s-30.5 -83.667 -53.5 -114s-50.667 -53 -83 -68
s-68.166 -22.5 -107.499 -22.5c-84.667 0 -149.334 31.167 -194.001 93.5s-67 152.833 -67 271.5zM434 350.999c0 10.667 -0.167969 20.832 -0.500977 30.499s-0.833008 19.167 -1.5 28.5l-245 -223c20.667 -60.667 58.334 -91 113.001 -91c42.667 0 75.667 20.333 99 61
s35 105.334 35 194.001zM165.999 350.997c0 -10 0.166992 -19.5 0.5 -28.5s0.833008 -18.167 1.5 -27.5l244 223c-20 57.333 -57.667 86 -113 86c-42.667 0 -75.5 -20.5 -98.5 -61.5s-34.5 -104.833 -34.5 -191.5z" />
    <glyph glyph-name="one" unicode="1" 
d="M106 110h153v437l-132 -101l-60 80l228 174h88v-590h150v-110h-427v110z" />
    <glyph glyph-name="two" unicode="2" 
d="M523 0l-445.999 -0.00683594v97c8 6.66699 18 15.5 30 26.5l40.5 37.5l47.5 46c16.667 16.667 33 34 49 52l59.5 69c17 20.667 31 40.167 42 58.5s19.167 36.333 24.5 54s8 35.834 8 54.501c0 13.333 -3 26.333 -9 39s-14.333 23.834 -25 33.501
s-23.5 17.334 -38.5 23.001s-31.5 8.5 -49.5 8.5c-24 0 -45.833 -3.66699 -65.5 -11s-40.167 -19.666 -61.5 -36.999l-52 92c28 20 59.167 36.833 93.5 50.5s73.833 20.5 118.5 20.5c28.667 0 56.167 -4 82.5 -12s49.666 -19.833 69.999 -35.5s36.5 -35.167 48.5 -58.5
s18 -50.333 18 -81c0 -21.333 -1.83301 -41.166 -5.5 -59.499s-9.33398 -36.666 -17.001 -54.999s-17.667 -37.166 -30 -56.499s-27.166 -40.333 -44.499 -63c-13.333 -17.333 -27.833 -34.833 -43.5 -52.5l-46.5 -50.5c-15.333 -16 -30.5 -31 -45.5 -45
s-28.5 -25.667 -40.5 -35h288v-110z" />
    <glyph glyph-name="three" unicode="3" 
d="M248 96c22 0 42.168 2.83398 60.501 8.50098s34 13.667 47 24s23.167 22.333 30.5 36s11 28.5 11 44.5c0 20 -4.16699 36.833 -12.5 50.5s-19.833 24.5 -34.5 32.5s-32.334 13.667 -53.001 17s-43 5 -67 5h-56v71l168 205h-253v110h408v-91l-176 -201h23
c23.333 0 46 -4 68 -12s41.5 -20 58.5 -36s30.667 -36 41 -60s15.5 -51.667 15.5 -83c0 -38 -7.83301 -71.333 -23.5 -100s-36.334 -52.834 -62.001 -72.501s-55.167 -34.334 -88.5 -44.001s-67.666 -14.5 -102.999 -14.5c-30 0 -60 2.66699 -90 8s-59 13.666 -87 24.999
l35 108c6 -3.33301 14.167 -6.66602 24.5 -9.99902s22 -6.66602 35 -9.99902s26.333 -6 40 -8s27.167 -3 40.5 -3z" />
    <glyph glyph-name="four" unicode="4" 
d="M577 195h-120v-195h-121v195h-303v89l317 421h107v-406h120v-104zM336 521l-174 -222h174v222z" />
    <glyph glyph-name="five" unicode="5" 
d="M237 101c22 0 42.334 2.66699 61.001 8s34.834 13 48.501 23s24.334 22.333 32.001 37s11.5 31.334 11.5 50.001c0 36.667 -14.5 65.5 -43.5 86.5s-72.5 31.5 -130.5 31.5c-7.33301 0 -15.833 -0.166992 -25.5 -0.5s-18.834 -0.833008 -27.501 -1.5
c-10 -0.666992 -20.333 -1 -31 -1v366h362v-120h-250v-137c5.33301 0 10.666 0.333008 15.999 1c4.66699 0 9.16699 0.166992 13.5 0.5s8.16602 0.5 11.499 0.5c33.333 0 64.333 -4.83301 93 -14.5s53.667 -24.167 75 -43.5s37.833 -42.833 49.5 -70.5
s17.5 -58.167 17.5 -91.5c0 -39.333 -7.33301 -73.833 -22 -103.5s-34.667 -54.5 -60 -74.5s-54.666 -35.167 -87.999 -45.5s-69 -15.5 -107 -15.5c-14.667 0 -30.334 1.5 -47.001 4.5s-33 6.66699 -49 11s-30.833 9.16602 -44.5 14.499s-25.167 10.333 -34.5 15l42 104
c11.333 -6.66699 28.833 -14 52.5 -22s48.5 -12 74.5 -12z" />
    <glyph glyph-name="six" unicode="6" 
d="M546 217c0 -32.667 -6.16797 -63.001 -18.501 -91.001s-29.166 -52.333 -50.499 -73s-46.833 -37 -76.5 -49s-61.5 -18 -95.5 -18c-34.667 0 -67.167 5.5 -97.5 16.5s-56.833 27.5 -79.5 49.5s-40.667 49.667 -54 83s-20 72 -20 116c0 66 11.5 126 34.5 180
s52.5 100.833 88.5 140.5s76.333 71.667 121 96s89 39.833 133 46.5l29 -103c-35.333 -6.66699 -68.333 -17.5 -99 -32.5s-58 -33.167 -82 -54.5s-44.167 -45 -60.5 -71s-27.5 -53 -33.5 -81c13.333 16.667 33.333 30.834 60 42.501s56 17.5 88 17.5
c30 0 58 -4.83301 84 -14.5s48.5 -23.667 67.5 -42s34 -40.833 45 -67.5s16.5 -57 16.5 -91zM419.999 211.999c0 36 -10.832 63.334 -32.499 82.001s-50.834 28 -87.501 28c-26.667 0 -50.667 -6 -72 -18s-37 -26 -47 -42c-1.33301 -7.33301 -2.16602 -15.5 -2.49902 -24.5
s-0.5 -16.167 -0.5 -21.5c0 -16 2.66699 -31.333 8 -46s13.166 -27.5 23.499 -38.5s22.833 -19.667 37.5 -26s31.667 -9.5 51 -9.5c15.333 0 30.333 2.83301 45 8.5s27.667 13.5 39 23.5s20.5 22.167 27.5 36.5s10.5 30.166 10.5 47.499z" />
    <glyph glyph-name="seven" unicode="7" 
d="M102 0l288 582h-326v118h456v-98l-291 -602h-127z" />
    <glyph glyph-name="eight" unicode="8" 
d="M60 171c0 23.333 3.83301 44.667 11.5 64s17.667 36.666 30 51.999s26.5 29.166 42.5 41.499s32.333 23.166 49 32.499c-33.333 19.333 -61 42.166 -83 68.499s-33 59.5 -33 99.5c0 26 5.66699 50.333 17 73s27.166 42.334 47.499 59.001s44.5 29.667 72.5 39
s58.333 14 91 14c30 0 58.167 -4 84.5 -12s49.5 -19.333 69.5 -34s35.667 -32.5 47 -53.5s17 -44.167 17 -69.5c0 -39.333 -10.167 -73.666 -30.5 -102.999s-48.166 -54.666 -83.499 -75.999c40 -20.667 71.833 -45 95.5 -73s35.5 -64 35.5 -108
c0 -30 -6.5 -57.167 -19.5 -81.5s-30.5 -45.166 -52.5 -62.499s-47.833 -30.833 -77.5 -40.5s-61.167 -14.5 -94.5 -14.5s-64.333 4.5 -93 13.5s-53.667 21.5 -75 37.5s-38 35.333 -50 58s-18 48 -18 76zM416 188.001c0 16.667 -4.33203 31 -12.999 43
s-19.5 22.667 -32.5 32s-27.333 17.833 -43 25.5s-30.834 15.5 -45.501 23.5c-33.333 -14.667 -59 -33.5 -77 -56.5s-27 -44.833 -27 -65.5c0 -30 10.667 -53.167 32 -69.5s51 -24.5 89 -24.5c34 0 62 7.83301 84 23.5s33 38.5 33 68.5zM201.001 523.001
c0 -16 3.5 -29.499 10.5 -40.499s16 -20.667 27 -29s23.5 -15.833 37.5 -22.5l42 -20c10.667 5.33301 21.167 12 31.5 20s19.5 16.833 27.5 26.5s14.5 19.667 19.5 30s7.5 20.833 7.5 31.5c0 14 -3 26.167 -9 36.5s-13.833 19.166 -23.5 26.499s-20.5 12.833 -32.5 16.5
s-24.333 5.5 -37 5.5c-14.667 0 -28.167 -2.33301 -40.5 -7s-23 -10.667 -32 -18s-16 -16 -21 -26s-7.5 -20 -7.5 -30z" />
    <glyph glyph-name="nine" unicode="9" 
d="M54 481c0 34 5.83301 65.332 17.5 93.999s28 53.167 49 73.5s46.333 36.333 76 48s62.834 17.5 99.501 17.5c37.333 0 71.333 -5.66699 102 -17s57 -28.166 79 -50.499s39 -50 51 -83s18 -70.833 18 -113.5c0 -77.333 -10 -144 -30 -200s-46.833 -102.667 -80.5 -140
s-72.834 -66 -117.501 -86s-91.334 -32.667 -140.001 -38l-28 102c36.667 4.66699 69.834 13.667 99.501 27s55.5 29.833 77.5 49.5s40 42 54 67s23 51.833 27 80.5c-14 -14 -32 -25.167 -54 -33.5s-48.333 -12.5 -79 -12.5h-2c-25.333 0 -51 4.33301 -77 13
s-49.5 22 -70.5 40s-38.167 40.5 -51.5 67.5s-20 58.5 -20 94.5zM180 487.999c0 -18.667 3.5 -35.168 10.5 -49.501s16.167 -26.333 27.5 -36s24.5 -17 39.5 -22s30.5 -7.5 46.5 -7.5c27.333 0 51 4.33301 71 13s34.667 19.334 44 32.001c2 14 3 27.333 3 40
c0 18.667 -2.66699 37 -8 55s-13.333 34 -24 48s-24 25.167 -40 33.5s-34.333 12.5 -55 12.5c-32.667 0 -60 -10.5 -82 -31.5s-33 -50.167 -33 -87.5z" />
    <glyph glyph-name="colon" unicode=":" 
d="M219 428c0 23.333 7.33301 41.833 22 55.5s34 20.5 58 20.5c25.333 0 45.333 -6.83301 60 -20.5s22 -32.167 22 -55.5s-7.33301 -42 -22 -56s-34.667 -21 -60 -21c-24 0 -43.333 7 -58 21s-22 32.667 -22 56zM219 66c0 23.333 7.33301 41.833 22 55.5s34 20.5 58 20.5
c25.333 0 45.333 -6.83301 60 -20.5s22 -32.167 22 -55.5s-7.33301 -42 -22 -56s-34.667 -21 -60 -21c-24 0 -43.333 7 -58 21s-22 32.667 -22 56z" />
    <glyph glyph-name="semicolon" unicode=";" 
d="M218 64c0 22.667 7.50098 40.667 22.501 54s33.833 20 56.5 20c36.667 0 64.334 -12 83.001 -36s28 -53.667 28 -89c0 -30 -5.83301 -57.333 -17.5 -82s-26.834 -46 -45.501 -64s-39.5 -32.667 -62.5 -44s-45.833 -19 -68.5 -23l-27 55c16 4 32.167 9.66699 48.5 17
s31.166 16.5 44.499 27.5s24.5 23.833 33.5 38.5s14.167 30.667 15.5 48c-20 -4 -37 -4.5 -51 -1.5s-25.5 8.33301 -34.5 16s-15.5 17 -19.5 28s-6 22.833 -6 35.5zM219.001 428c0 23.333 7.33301 41.833 22 55.5s34 20.5 58 20.5c25.333 0 45.333 -6.83301 60 -20.5
s22 -32.167 22 -55.5s-7.33301 -42 -22 -56s-34.667 -21 -60 -21c-24 0 -43.333 7 -58 21s-22 32.667 -22 56z" />
    <glyph glyph-name="less" unicode="&#x3c;" 
d="M36 295v50l467 290l57 -90l-364 -220l364 -215l-57 -90z" />
    <glyph glyph-name="equal" unicode="=" 
d="M59 490h482v-112h-482v112zM59 298h482v-112h-482v112z" />
    <glyph glyph-name="greater" unicode="&#x3e;" 
d="M93 20l-57 90l364 215l-364 220l57 90l467 -290v-50z" />
    <glyph glyph-name="question" unicode="?" 
d="M209 208c-0.666992 5.33301 -1.16406 10.5 -1.49707 15.5s-0.5 10.167 -0.5 15.5c0 29.333 4.66699 54.666 14 75.999s21.166 39.833 35.499 55.5s29.833 29.334 46.5 41.001s32.167 23.334 46.5 35.001s26.166 23.667 35.499 36s14 27.166 14 44.499
c0 23.333 -9.66699 42 -29 56s-49.333 21 -90 21c-20.667 0 -39.667 -3 -57 -9s-33.333 -13.167 -48 -21.5s-27.667 -17 -39 -26s-21.333 -16.5 -30 -22.5l-63 84c16 17.333 34.167 32.666 54.5 45.999s41.833 24.333 64.5 33s46 15.167 70 19.5s47.667 6.5 71 6.5
c72.667 0 129.167 -15.167 169.5 -45.5s60.5 -71.166 60.5 -122.499c0 -34 -5.16699 -62.167 -15.5 -84.5s-23.5 -41.333 -39.5 -57s-33.167 -29.5 -51.5 -41.5s-35.333 -24.833 -51 -38.5s-28.834 -29.5 -39.501 -47.5s-16 -41 -16 -69h-111zM189.003 66
c0 23.333 7.33301 41.833 22 55.5s34 20.5 58 20.5c25.333 0 45.333 -6.83301 60 -20.5s22 -32.167 22 -55.5s-7.33301 -42 -22 -56s-34.667 -21 -60 -21c-24 0 -43.333 7 -58 21s-22 32.667 -22 56z" />
    <glyph glyph-name="at" unicode="@" 
d="M348 590c40.667 0 74.332 -5.67285 100.999 -17.0059s47.5 -26.166 62.5 -44.499s25.5 -39.5 31.5 -63.5s9 -48.667 9 -74c0 -30.667 -0.333008 -57 -1 -79s-1.5 -41 -2.5 -57l-2.5 -40.5c-0.666992 -11 -1 -21.167 -1 -30.5c0 -14 0.666992 -29.667 2 -47
c1.33301 -9.33301 2.33301 -18.333 3 -27h45v-110h-136l-13 68h-5c-6.66699 -10 -13.5 -19.667 -20.5 -29s-15.333 -17.5 -25 -24.5s-20.834 -12.5 -33.501 -16.5s-28 -6 -46 -6c-24 0 -45.667 4.33301 -65 13s-35.666 20.334 -48.999 35.001s-23.5 31.667 -30.5 51
s-10.5 40 -10.5 62c0 56.667 16.333 100.167 49 130.5s77.667 45.5 135 45.5c12 0 24.667 -0.666992 38 -2s29.666 -2.66602 48.999 -3.99902c1.33301 6.66699 2 13.334 2 20.001v19c0 12.667 -0.5 26 -1.5 40s-4.5 27 -10.5 39s-15.333 22 -28 30s-30.667 12 -54 12
c-28.667 0 -56.334 -5.66699 -83.001 -17s-50.167 -28.833 -70.5 -52.5s-36.666 -53.667 -48.999 -90s-18.5 -79.5 -18.5 -129.5c0 -40 5.66699 -77.667 17 -113s27.833 -66.166 49.5 -92.499s48.334 -47 80.001 -62s68.167 -22.5 109.5 -22.5c19.333 0 41.333 2.33301 66 7
s47 11.667 67 21l31 -96c-27.333 -13.333 -55.166 -22.666 -83.499 -27.999s-60.833 -8 -97.5 -8c-57.333 0 -107.833 10.5 -151.5 31.5s-80.167 49.5 -109.5 85.5s-51.666 77.667 -66.999 125s-23 97.666 -23 150.999c0 68 10 126.833 30 176.5s46.333 90.834 79 123.501
s69.167 57 109.5 73s81.166 24 122.499 24zM345.998 98.9941c23.333 0 41.8311 5.83301 55.498 17.5s24.167 24.167 31.5 37.5v80c-6.66699 1.33301 -16.667 2.83301 -30 4.5s-27.666 2.5 -42.999 2.5c-19.333 0 -36.666 -5.5 -51.999 -16.5s-23 -28.167 -23 -51.5
c0 -18.667 5 -35.667 15 -51s25.333 -23 46 -23z" />
    <glyph glyph-name="A" unicode="A" 
d="M400 155h-209l-48 -155h-137l226 700h137l225 -700h-144zM223 265h150l-71 234h-9z" />
    <glyph glyph-name="B" unicode="B" 
d="M533 537c0 -17.333 -2.16602 -34.666 -6.49902 -51.999s-11.5 -33.166 -21.5 -47.499s-23 -27 -39 -38s-35.333 -19.167 -58 -24.5v-6c20 -3.33301 39 -9 57 -17s33.667 -19 47 -33s23.833 -31 31.5 -51s11.5 -43.667 11.5 -71c0 -36 -7.66699 -67.167 -23 -93.5
s-35.833 -47.833 -61.5 -64.5s-54.834 -29 -87.501 -37s-66.334 -12 -101.001 -12h-43.5c-17.667 0 -36.667 0.5 -57 1.5s-41 2.5 -62 4.5s-40.167 5 -57.5 9v690c12.667 2 27.167 4 43.5 6s33.833 3.66699 52.5 5s37.834 2.33301 57.501 3s39.167 1 58.5 1
c32.667 0 64.5 -2.5 95.5 -7.5s58.667 -13.833 83 -26.5s43.833 -30.334 58.5 -53.001s22 -51.334 22 -86.001zM283.001 103c16.667 0 32.834 2 48.501 6s29.5 10.167 41.5 18.5s21.667 18.833 29 31.5s11 27.667 11 45c0 22 -4.33301 39.333 -13 52s-20 22.5 -34 29.5
s-29.667 11.5 -47 13.5s-34.666 3 -51.999 3h-73v-193c3.33301 -1.33301 8.66602 -2.33301 15.999 -3s15.166 -1.16699 23.499 -1.5l26 -1c9 -0.333008 16.833 -0.5 23.5 -0.5zM238.001 406c9.33301 0 20.168 0.333008 32.501 1s22.5 1.66699 30.5 3
c25.333 8 47.166 20 65.499 36s27.5 37 27.5 63c0 17.333 -3.33301 31.666 -10 42.999s-15.5 20.333 -26.5 27s-23.5 11.334 -37.5 14.001s-28.667 4 -44 4c-17.333 0 -33.333 -0.333008 -48 -1s-26 -1.66699 -34 -3v-187h44z" />
    <glyph glyph-name="C" unicode="C" 
d="M444 235l109.999 0.00195312v-200c-21.333 -15.333 -48.5 -27.333 -81.5 -36s-66.833 -13 -101.5 -13c-44 0 -85.833 6.5 -125.5 19.5s-74.5 34 -104.5 63s-54 66.667 -72 113s-27 102.5 -27 168.5c0 68.667 10.167 126.167 30.5 172.5s46.5 83.666 78.5 111.999
s67.667 48.666 107 60.999s78 18.5 116 18.5c40 0 73.833 -3.33301 101.5 -10s50.5 -14.334 68.5 -23.001v-208h-110v114c-20.667 3.33301 -42 5 -64 5c-26 0 -50.167 -4.83301 -72.5 -14.5s-41.833 -24.5 -58.5 -44.5s-29.667 -45.167 -39 -75.5s-14 -66.166 -14 -107.499
c0 -36 4.33301 -68.833 13 -98.5s21.334 -55.167 38.001 -76.5s37 -37.833 61 -49.5s51.333 -17.5 82 -17.5c22 0 43.333 2 64 6v121z" />
    <glyph glyph-name="D" unicode="D" 
d="M50 700c6 0.666992 16.499 1.66699 31.499 3s32 2.5 51 3.5s38.667 1.83301 59 2.5s38.5 1 54.5 1c62 0 113.333 -9 154 -27s72.834 -42.833 96.501 -74.5s40.167 -69 49.5 -112s14 -89.833 14 -140.5c0 -46 -4.66699 -91 -14 -135s-26.166 -83.167 -50.499 -117.5
s-58 -62 -101 -83s-98.167 -31.5 -165.5 -31.5c-10.667 0 -24.334 0.333008 -41.001 1s-33.667 1.5 -51 2.5l-50 3c-16 1 -28.333 2.16699 -37 3.5v701zM250.999 588c-12.667 0 -24.998 -0.49707 -36.998 -1.49707s-21 -1.83301 -27 -2.5v-469
c2.66699 -0.666992 6.66699 -1.16699 12 -1.5l16.5 -1l16.5 -1c5.33301 -0.333008 9.66602 -0.5 12.999 -0.5c38.667 0 69.5 7.16699 92.5 21.5s40.167 33.166 51.5 56.499s18.666 49.666 21.999 78.999s5 58.666 5 87.999c0 25.333 -1.5 51.666 -4.5 78.999
s-10 52.333 -21 75s-27.5 41.334 -49.5 56.001s-52 22 -90 22z" />
    <glyph glyph-name="E" unicode="E" 
d="M70 700h459v-122h-322v-163h297v-122h-297v-171h327v-122h-464v700z" />
    <glyph glyph-name="F" unicode="F" 
d="M84 700h444v-122h-307v-173h285v-122h-285v-283h-137v700z" />
    <glyph glyph-name="G" unicode="G" 
d="M323 365l239.002 0.00390625v-316c-22.667 -20.667 -52.167 -36.334 -88.5 -47.001s-73.5 -16 -111.5 -16c-44.667 0 -86.5 7.66699 -125.5 23s-72.833 38.5 -101.5 69.5s-51.334 69.333 -68.001 115s-25 99.167 -25 160.5c0 64.667 10 119.667 30 165
s45.833 82.5 77.5 111.5s67.167 50.167 106.5 63.5s78.333 20 117 20c40 0 73.333 -3.16699 100 -9.5s51 -14.5 73 -24.5v-207h-110v111l-16 4c-13.333 2.66699 -28 4 -44 4c-27.333 0 -52.666 -4.66699 -75.999 -14s-43.5 -23.833 -60.5 -43.5
s-30.167 -44.834 -39.5 -75.501s-14 -67.334 -14 -110.001c0 -38 4.66699 -72 14 -102s22.333 -55.333 39 -76s36.5 -36.334 59.5 -47.001s47.833 -16 74.5 -16c17.333 0 33.166 2 47.499 6s24.166 8 29.499 12v139h-127v100z" />
    <glyph glyph-name="H" unicode="H" 
d="M413 293h-226v-293h-137v700h137v-285h226v285h137v-700h-137v293z" />
    <glyph glyph-name="I" unicode="I" 
d="M54 122h177v456h-177v122h492v-122h-178v-456h178v-122h-492v122z" />
    <glyph glyph-name="J" unicode="J" 
d="M92 700l417.999 0.00195312v-446c0 -38 -4.83301 -73.667 -14.5 -107s-27.167 -63 -52.5 -89c-16 -16 -33.167 -28.667 -51.5 -38s-36.166 -16.333 -53.499 -21s-33.666 -7.66699 -48.999 -9s-28 -2 -38 -2c-32 0 -63 3.5 -93 10.5s-60 19.5 -90 37.5l49 110
c25.333 -14.667 47.166 -24.334 65.499 -29.001s39.5 -7 63.5 -7c14.667 0 30.5 2.83301 47.5 8.5s31.833 15.167 44.5 28.5c23.333 25.333 35 60.666 35 105.999v325h-281v122z" />
    <glyph glyph-name="K" unicode="K" 
d="M256 292h-71v-292h-137v700h137v-286h71l160 286h156l-197 -338l222 -362h-169z" />
    <glyph glyph-name="L" unicode="L" 
d="M414 285h124v-285h-460v700h137v-578h199v163z" />
    <glyph glyph-name="M" unicode="M" 
d="M423 373l5 109h-6l-112 -183h-24l-117 183h-5l6 -98v-384h-130v700h139l120 -194h4l119 194h138v-700h-137v373z" />
    <glyph glyph-name="N" unicode="N" 
d="M185 414h-5l6 -83v-331h-130v700h120l242 -428h5l-9 84v344h130v-700h-120z" />
    <glyph glyph-name="O" unicode="O" 
d="M36 350c0 56.667 5.33398 107.667 16.001 153s27 83.5 49 114.5s49.5 54.833 82.5 71.5s71.833 25 116.5 25c48 0 88.667 -9 122 -27s60.5 -43 81.5 -75s36.333 -70.333 46 -115s14.5 -93.667 14.5 -147c0 -114 -21.833 -203.167 -65.5 -267.5
s-109.834 -96.5 -198.501 -96.5c-48 0 -88.833 9 -122.5 27s-61 43 -82 75s-36.167 70.333 -45.5 115s-14 93.667 -14 147zM180.001 350c0 -34 1.50195 -65.665 4.50195 -94.998s8.66699 -54.833 17 -76.5s20.333 -38.834 36 -51.501s36.5 -19 62.5 -19
c23.333 0 42.666 4.83301 57.999 14.5s27.666 24.5 36.999 44.5s15.833 45.167 19.5 75.5s5.5 66.166 5.5 107.499c0 32.667 -1.16699 63.667 -3.5 93s-7.66602 55 -15.999 77s-20.5 39.5 -36.5 52.5s-37.333 19.5 -64 19.5c-46.667 0 -78.334 -20.333 -95.001 -61
s-25 -101 -25 -181z" />
    <glyph glyph-name="P" unicode="P" 
d="M73 693c28 5.33301 58.8311 9.49902 92.498 12.499s67.167 4.5 100.5 4.5c34.667 0 69.5 -2.83301 104.5 -8.5s66.5 -17 94.5 -34s50.833 -40.667 68.5 -71s26.5 -69.833 26.5 -118.5c0 -42.667 -7.66699 -79.167 -23 -109.5s-35.666 -55.333 -60.999 -75
s-54.166 -34 -86.499 -43s-65.833 -13.5 -100.5 -13.5h-16c-7.33301 0 -15 0.166992 -23 0.5s-15.833 0.833008 -23.5 1.5s-13.167 1.33398 -16.5 2.00098v-241h-137v693zM276.998 591.999c-13.333 0 -26 -0.499023 -38 -1.49902s-21.667 -2.16699 -29 -3.5v-227
c2.66699 -0.666992 6.66699 -1.33398 12 -2.00098s11 -1.16699 17 -1.5s11.833 -0.5 17.5 -0.5h12.5c18 0 35.833 1.66699 53.5 5s33.5 9.5 47.5 18.5s25.167 21.5 33.5 37.5s12.5 37 12.5 63c0 22 -4 40.167 -12 54.5s-18.5 25.833 -31.5 34.5s-27.833 14.667 -44.5 18
s-33.667 5 -51 5z" />
    <glyph glyph-name="Q" unicode="Q" 
d="M548 -148c-17.333 -12.667 -35.8301 -21.334 -55.4971 -26.001s-38.834 -7 -57.501 -7c-32 0 -59.833 5 -83.5 15s-43.834 23.667 -60.501 41c-18.667 20 -32.667 44.667 -42 74c-4.66699 14 -8 28.333 -10 43c-22.667 4.66699 -43.334 11.667 -62.001 21
c-33.333 18 -60.5 43 -81.5 75s-36.167 70.333 -45.5 115s-14 93.667 -14 147c0 56.667 5.33301 107.667 16 153s27 83.5 49 114.5s49.5 54.833 82.5 71.5s71.833 25 116.5 25c48 0 88.667 -9 122 -27s60.5 -43 81.5 -75s36.333 -70.333 46 -115s14.5 -93.667 14.5 -147
c0 -114 -22 -203.333 -66 -268c-32 -47.333 -76.333 -77 -133 -89c2.66699 -14 8.66699 -26.333 18 -37c7.33301 -9.33301 17 -16.166 29 -20.499s25.667 -6.5 41 -6.5c14 0 26.833 2 38.5 6s21.167 8.66699 28.5 14zM180.003 350c0 -34 1.50195 -65.665 4.50195 -94.998
s8.66699 -54.833 17 -76.5s20.333 -38.834 36 -51.501s36.5 -19 62.5 -19c23.333 0 42.666 4.83301 57.999 14.5s27.666 24.5 36.999 44.5s15.833 45.167 19.5 75.5s5.5 66.166 5.5 107.499c0 32.667 -1.16699 63.667 -3.5 93s-7.66602 55 -15.999 77s-20.5 39.5 -36.5 52.5
s-37.333 19.5 -64 19.5c-46.667 0 -78.334 -20.333 -95.001 -61s-25 -101 -25 -181z" />
    <glyph glyph-name="R" unicode="R" 
d="M62 693c15.333 2.66699 31.8301 5.16699 49.4971 7.5s35.334 4.16602 53.001 5.49902s34.834 2.33301 51.501 3s32 1 46 1c32.667 0 64.834 -3.16699 96.501 -9.5s60 -17.166 85 -32.499s45 -36 60 -62s22.5 -58.333 22.5 -97c0 -28.667 -2.83301 -53.5 -8.5 -74.5
s-13.5 -39.5 -23.5 -55.5s-22.167 -29.833 -36.5 -41.5s-29.833 -22.167 -46.5 -31.5l169 -306h-158l-141 274h-82v-274h-137v693zM271.997 588c-14 0 -27.833 -0.333008 -41.5 -1s-24.167 -2 -31.5 -4v-203h54c38 0 69 8.66699 93 26s36 46 36 86
c0 30 -9.33301 53.5 -28 70.5s-46 25.5 -82 25.5z" />
    <glyph glyph-name="S" unicode="S" 
d="M65 229l110.002 -0.00390625v-99l6 -2c15.333 -6.66699 32.166 -12.167 50.499 -16.5s37.833 -6.5 58.5 -6.5c37.333 0 66.333 7.5 87 22.5s31 35.167 31 60.5c0 22.667 -8.5 41 -25.5 55s-38 26.333 -63 37s-52.333 21.334 -82 32.001s-57 24.167 -82 40.5
s-46 36.833 -63 61.5s-25.5 56.667 -25.5 96c0 30 5.83301 57.5 17.5 82.5s28 46.5 49 64.5s46.167 32 75.5 42s62 15 98 15c40.667 0 80.667 -3.66699 120 -11s70.666 -17.333 93.999 -30v-203h-110v111c-2 0 -4 0.333008 -6 1c-14.667 4 -30.5 7.16699 -47.5 9.5
s-33.833 3.5 -50.5 3.5c-32 0 -57.167 -6.33301 -75.5 -19s-27.5 -29.667 -27.5 -51c0 -22 8.5 -40 25.5 -54s38 -26.667 63 -38s52.333 -22.666 82 -33.999s57 -25.166 82 -41.499s46 -36.833 63 -61.5s25.5 -55.667 25.5 -93c0 -36 -6.66699 -67.5 -20 -94.5
s-32 -49.667 -56 -68s-52.333 -32 -85 -41s-68 -13.5 -106 -13.5c-25.333 0 -48.833 2 -70.5 6s-41.667 9 -60 15s-34.5 12.333 -48.5 19s-25.333 12.334 -34 17.001v186z" />
    <glyph glyph-name="T" unicode="T" 
d="M118 110h114v480h-96v-121h-110v231h548v-231h-110v121h-95v-480h113v-110h-364v110z" />
    <glyph glyph-name="U" unicode="U" 
d="M420 700l130.002 0.000976562v-448c0 -45.333 -6 -84.5 -18 -117.5s-28.833 -60.333 -50.5 -82s-47.5 -37.834 -77.5 -48.501s-63 -16 -99 -16c-86.667 0 -150.834 21 -192.501 63s-62.5 103.333 -62.5 184v465h137v-438c0 -53.333 9.66699 -92 29 -116
s49.666 -36 90.999 -36c40 0 68.833 12.833 86.5 38.5s26.5 63.5 26.5 113.5v438z" />
    <glyph glyph-name="V" unicode="V" 
d="M306 187h5l138 513h142l-210 -700h-156l-216 700h153z" />
    <glyph glyph-name="W" unicode="W" 
d="M175 309l2 -84h4l17 79l60 186h102l56 -186l18 -79h4l2 86l28 389h126l-72 -700h-116l-75 221l-23 96h-5l-24 -96l-81 -221h-120l-72 700h137z" />
    <glyph glyph-name="X" unicode="X" 
d="M220 359l-198 341h160l102 -190l23 -51l22 51l104 190h155l-201 -342l207 -358h-160l-107 200l-27 54l-26 -54l-112 -200h-155z" />
    <glyph glyph-name="Y" unicode="Y" 
d="M232 258l-226 442h163l135 -289h5l138 289h147l-225 -441v-259h-137v258z" />
    <glyph glyph-name="Z" unicode="Z" 
d="M53 122l328 456h-312v122h473v-122l-323 -456h328v-122h-494v122z" />
    <glyph glyph-name="bracketleft" unicode="[" 
d="M92 700h395v-110h-271v-710h271v-110h-395v930z" />
    <glyph glyph-name="backslash" unicode="\" 
d="M531 -95l-99 -45l-363 808l102 43z" />
    <glyph glyph-name="bracketright" unicode="]" 
d="M507 -230h-395v110h271v710h-271v110h395v-930z" />
    <glyph glyph-name="asciicircum" unicode="^" 
d="M281 705h49l242 -365h-131l-140 227l-153 -227h-124z" />
    <glyph glyph-name="underscore" unicode="_" 
d="M78 -117h444v-107h-444v107z" />
    <glyph glyph-name="grave" unicode="`" 
d="M398 566h-72l-152 154h164z" />
    <glyph glyph-name="a" unicode="a" 
d="M90 466c26.667 12 57.501 22.3301 92.501 30.9971s76.5 13 124.5 13c34.667 0 64.167 -4.16699 88.5 -12.5s44 -20.166 59 -35.499s25.833 -33.666 32.5 -54.999s10 -45.333 10 -72c0 -34 -1.16699 -63 -3.5 -87s-3.5 -45.333 -3.5 -64c0 -14 0.666992 -29.667 2 -47
c1.33301 -9.33301 2.33301 -18.333 3 -27h65v-110h-166l-13 68h-5c-13.333 -20.667 -32.333 -38.5 -57 -53.5s-58 -22.5 -100 -22.5c-50 0 -89.667 13.333 -119 40s-44 62 -44 106c0 28 5.16699 52.167 15.5 72.5s25.333 37 45 50s43.334 22.667 71.001 29
s58.5 9.5 92.5 9.5c12 0 24.667 -0.666992 38 -2s29.666 -2.66602 48.999 -3.99902c1.33301 6.66699 2 13.334 2 20.001v19c0 25.333 -7.33301 43.5 -22 54.5s-36.334 16.5 -65.001 16.5c-34 0 -64.667 -4.33301 -92 -13s-50.333 -17.334 -69 -26.001zM261.001 98.9971
c32 0 56 5.83301 72 17.5s27.667 24.167 35 37.5v60c-6.66699 1.33301 -16.667 2.83301 -30 4.5s-27.666 2.5 -42.999 2.5c-12.667 0 -25.334 -1.16699 -38.001 -3.5s-24 -6 -34 -11s-18 -11.5 -24 -19.5s-9 -17.667 -9 -29c0 -18.667 5.5 -33.167 16.5 -43.5
s29.167 -15.5 54.5 -15.5z" />
    <glyph glyph-name="b" unicode="b" 
d="M-13 700l206.998 -0.000976562v-240h4c14 16 32.833 28.667 56.5 38s52.834 14 87.501 14c66 0 118.833 -20.667 158.5 -62s59.5 -103.666 59.5 -186.999c0 -44.667 -6.66699 -84.167 -20 -118.5s-32.166 -63 -56.499 -86s-54 -40.5 -89 -52.5s-74.5 -18 -118.5 -18
c-52 0 -95.5 6 -130.5 18s-62.167 24 -81.5 36v548h-77v110zM305.998 401.999c-9.33301 0 -19.6719 -1.66699 -31.0049 -5s-22.166 -8 -32.499 -14s-20 -13.5 -29 -22.5s-15.5 -19.167 -19.5 -30.5v-208c10.667 -5.33301 25.334 -10.666 44.001 -15.999s38.667 -8 60 -8
c17.333 0 33.833 3.16699 49.5 9.5s29.334 16.166 41.001 29.499s20.834 30 27.501 50s10 44 10 72c0 47.333 -10.167 83 -30.5 107s-50.166 36 -89.499 36z" />
    <glyph glyph-name="c" unicode="c" 
d="M546 48c-27.333 -20.667 -59.332 -36.1689 -95.999 -46.502s-75 -15.5 -115 -15.5c-43.333 0 -81.833 6.33301 -115.5 19s-62 30.5 -85 53.5s-40.5 50.833 -52.5 83.5s-18 68.667 -18 108c0 42 7 79.333 21 112s33.5 60.334 58.5 83.001s54.5 39.834 88.5 51.501
s71 17.5 111 17.5c37.333 0 72.333 -4.33301 105 -13s57.667 -17 75 -25v-176h-110v92c-20.667 4.66699 -41.334 7 -62.001 7c-18.667 0 -37.167 -2.83301 -55.5 -8.5s-34.666 -14.667 -48.999 -27s-26 -27.833 -35 -46.5s-13.5 -41 -13.5 -67c0 -21.333 3.66699 -41 11 -59
s17.666 -33.667 30.999 -47s29.833 -23.833 49.5 -31.5s41.5 -11.5 65.5 -11.5c38 0 69.167 5.33301 93.5 16s42.5 20 54.5 28z" />
    <glyph glyph-name="d" unicode="d" 
d="M306 700l209.004 -0.00195312v-432c0 -50 2.66699 -99.333 8 -148c0 -3.33301 0.333008 -6.66602 1 -9.99902h64v-110h-161l-13 64h-4c-6.66699 -12 -15.667 -22.667 -27 -32s-24 -17.5 -38 -24.5s-29.333 -12.333 -46 -16s-33.334 -5.5 -50.001 -5.5
c-31.333 0 -60.833 5 -88.5 15s-51.834 25.5 -72.501 46.5s-37 47.667 -49 80s-18 70.5 -18 114.5c0 42.667 6.5 80.667 19.5 114s31 61.5 54 84.5s50.167 40.667 81.5 53s65.666 18.5 102.999 18.5c20.667 0 40.167 -1.16699 58.5 -3.5s34.166 -6.16602 47.499 -11.499v93
h-79v110zM279.004 95.998c25.333 0 47.832 6.16797 67.499 18.501s32.5 30.166 38.5 53.499v212c-9.33301 7.33301 -22.166 12.833 -38.499 16.5s-33.5 5.5 -51.5 5.5s-35.5 -3 -52.5 -9s-32 -15.5 -45 -28.5s-23.333 -29.833 -31 -50.5s-11.5 -46 -11.5 -76
c0 -42.667 10.667 -77 32 -103s52 -39 92 -39z" />
    <glyph glyph-name="e" unicode="e" 
d="M534 53c-8.66699 -8 -19.834 -15.832 -33.501 -23.499s-29.667 -14.834 -48 -21.501s-38.5 -12 -60.5 -16s-45.333 -6 -70 -6c-42.667 0 -80.834 6 -114.501 18s-62.167 29.5 -85.5 52.5s-41.166 50.667 -53.499 83s-18.5 69.166 -18.5 110.499c0 44 7 82.5 21 115.5
s33.167 60.5 57.5 82.5s52.833 38.5 85.5 49.5s68 16.5 106 16.5c25.333 0 51.5 -3.33301 78.5 -10s51.833 -18.167 74.5 -34.5s41.167 -38.166 55.5 -65.499s21.5 -62 21.5 -104c0 -28.667 -3.33301 -59.667 -10 -93h-360c0.666992 -21.333 5.16699 -39.333 13.5 -54
s19.333 -26.667 33 -36s29.334 -16.166 47.001 -20.499s36.5 -6.5 56.5 -6.5c40 0 72.833 4.66699 98.5 14s46.5 20.666 62.5 33.999zM318 410.001c-17.333 0 -33.6689 -2.33301 -49.002 -7s-29.166 -11.5 -41.499 -20.5s-22.5 -20.167 -30.5 -33.5s-12.667 -28.333 -14 -45
h246c0 32.667 -9.16699 58.5 -27.5 77.5s-46.166 28.5 -83.499 28.5z" />
    <glyph glyph-name="f" unicode="f" 
d="M71 0v109.999h118v280h-119v110h119v28c0 31.333 5.5 58.333 16.5 81s25.5 41.334 43.5 56.001s38.833 25.5 62.5 32.5s48.167 10.5 73.5 10.5c46 0 83.833 -3.83301 113.5 -11.5s54.167 -17.167 73.5 -28.5l-38 -99c-15.333 7.33301 -31.833 14 -49.5 20
s-40.5 9 -68.5 9c-36 0 -61.167 -8.16699 -75.5 -24.5s-21.5 -40.833 -21.5 -73.5h210v-110h-210v-280h211v-110h-459z" />
    <glyph glyph-name="g" unicode="g" 
d="M530 0c0 -36 -6.16504 -67.3281 -18.498 -93.9951s-29.333 -48.834 -51 -66.501s-47.334 -30.667 -77.001 -39s-62.167 -12.5 -97.5 -12.5c-24 0 -46.5 1.83301 -67.5 5.5s-40.333 8.5 -58 14.5s-33.167 12.5 -46.5 19.5s-24 13.833 -32 20.5l50 92
c16 -10.667 35.167 -20.834 57.5 -30.501s50.5 -14.5 84.5 -14.5c42 0 74 9.66699 96 29s33 47 33 83v32h-4c-12 -16 -29.667 -27.833 -53 -35.5s-50.333 -11.5 -81 -11.5c-32 0 -61.5 5 -88.5 15s-50.5 25.167 -70.5 45.5s-35.5 46.166 -46.5 77.499s-16.5 68 -16.5 110
c0 44 6.5 83 19.5 117s31.333 62.5 55 85.5s52 40.333 85 52s69.833 17.5 110.5 17.5c21.333 0 42.666 -0.833008 63.999 -2.5s41.5 -3.83398 60.5 -6.50098s36.5 -5.83398 52.5 -9.50098s29.333 -7.5 40 -11.5v-482zM290.002 96.0049
c25.333 0 48.168 5.66797 68.501 17.001s34.166 28.333 41.499 51v225c-9.33301 4 -22.5 7.16699 -39.5 9.5s-33.167 3.5 -48.5 3.5c-18.667 0 -36.167 -3 -52.5 -9s-30.666 -15.5 -42.999 -28.5s-22 -29.333 -29 -49s-10.5 -43.167 -10.5 -70.5c0 -24 3 -45.333 9 -64
s14.333 -34.334 25 -47.001s22.667 -22.167 36 -28.5s27.666 -9.5 42.999 -9.5z" />
    <glyph glyph-name="h" unicode="h" 
d="M0 700l202.004 -0.000976562v-256h4c16 21.333 37.333 38.333 64 51s58 19 94 19c25.333 0 48.666 -3.33301 69.999 -10s39.666 -17.667 54.999 -33s27.333 -36.166 36 -62.499s13 -58.833 13 -97.5v-311h-130v284c0 40.667 -8.66699 70 -26 88s-40 27 -68 27
c-24.667 0 -47.334 -7.5 -68.001 -22.5s-35.334 -34.167 -44.001 -57.5v-319h-130v590h-72v110z" />
    <glyph glyph-name="i" unicode="i" 
d="M59 110h176v280h-176v110h306v-390h185v-110h-491v110zM211 636c0 20.667 7.66699 38.334 23 53.001s36.666 22 63.999 22c28 0 50.333 -7.33301 67 -22s25 -32.334 25 -53.001c0 -21.333 -8.33301 -38.833 -25 -52.5s-39 -20.5 -67 -20.5
c-27.333 0 -48.666 6.83301 -63.999 20.5s-23 31.167 -23 52.5z" />
    <glyph glyph-name="j" unicode="j" 
d="M94 500l367.999 -0.000976562v-461c0 -76.667 -20 -137 -60 -181s-100 -66 -180 -66c-32.667 0 -63.667 5 -93 15s-54.666 24.667 -75.999 44l58 96c7.33301 -6 20.5 -13.5 39.5 -22.5s40.5 -13.5 64.5 -13.5c16 0 31.167 2.5 45.5 7.5s26.833 13.333 37.5 25
s19 26.834 25 45.501s9 42 9 70v331h-238v110zM256.999 635.999c0 20.667 7.66699 38.334 23 53.001s36.666 22 63.999 22c28 0 50.333 -7.33301 67 -22s25 -32.334 25 -53.001c0 -21.333 -8.33301 -38.833 -25 -52.5s-39 -20.5 -67 -20.5
c-27.333 0 -48.666 6.83301 -63.999 20.5s-23 31.167 -23 52.5z" />
    <glyph glyph-name="k" unicode="k" 
d="M0 700h212v-399h30l164 199h153l-202 -228l131 -162h93v-110h-162l-172 207h-35v-207h-130v590h-82v110z" />
    <glyph glyph-name="l" unicode="l" 
d="M87 700l213 -0.00292969v-462c0 -51.333 6.33301 -87 19 -107s33 -30 61 -30c20.667 0 37.667 2.16699 51 6.5s26.666 10.5 39.999 18.5l49 -90c-11.333 -7.33301 -22.666 -14.166 -33.999 -20.499s-23.333 -11.666 -36 -15.999s-26.5 -7.66602 -41.5 -9.99902
s-31.833 -3.5 -50.5 -3.5c-62.667 0 -109.667 16 -141 48s-47 77.333 -47 136v420h-83v110z" />
    <glyph glyph-name="m" unicode="m" 
d="M241 0l-0.00195312 306.004c0 20 -1.33301 36.167 -4 48.5s-6.16699 22 -10.5 29s-9.66602 11.667 -15.999 14s-12.833 3.5 -19.5 3.5c-11.333 0 -21.833 -3.66699 -31.5 -11s-16.167 -16.666 -19.5 -27.999v-362h-120v500h95l14 -55h3
c10 19.333 24.667 35.166 44 47.499s42 18.5 68 18.5c22 0 43 -5.33301 63 -16s33.667 -29.334 41 -56.001c10 23.333 25.333 41.166 46 53.499s43 18.5 67 18.5c18 0 34.167 -2.5 48.5 -7.5s26.833 -13.833 37.5 -26.5s18.834 -29.834 24.501 -51.501s8.5 -49.5 8.5 -83.5
v-342h-120v320c0 30 -4.83301 51 -14.5 63s-21.5 18 -35.5 18c-12 0 -22.333 -2.83301 -31 -8.5s-14.667 -14.834 -18 -27.501v-365h-120z" />
    <glyph glyph-name="n" unicode="n" 
d="M12 500l174.998 -0.00195312l15 -66h4c15.333 21.333 37.333 40 66 56s63 24 103 24c24.667 0 47.834 -3.33301 69.501 -10s40.167 -17.667 55.5 -33s27.5 -36.166 36.5 -62.499s13.5 -58.833 13.5 -97.5v-311h-130v284c0 40.667 -9.16699 70 -27.5 88s-41.5 27 -69.5 27
c-24.667 0 -47.167 -7.16699 -67.5 -21.5s-34.166 -32.166 -41.499 -53.499v-324h-130v390h-72v110z" />
    <glyph glyph-name="o" unicode="o" 
d="M35 250c0 42 6.33301 79.333 19 112s30.667 60.334 54 83.001s51.166 39.834 83.499 51.501s68.5 17.5 108.5 17.5c42 0 79.5 -6.33301 112.5 -19s60.833 -30.5 83.5 -53.5s39.834 -50.833 51.501 -83.5s17.5 -68.667 17.5 -108c0 -42 -6.33301 -79.333 -19 -112
s-30.667 -60.334 -54 -83.001s-51.166 -39.834 -83.499 -51.501s-68.5 -17.5 -108.5 -17.5c-42 0 -79.5 6.33301 -112.5 19s-60.833 30.5 -83.5 53.5s-39.834 50.833 -51.501 83.5s-17.5 68.667 -17.5 108zM169 250c0 -22 3.00098 -42.333 9.00098 -61s14.667 -35 26 -49
s25 -24.833 41 -32.5s34.333 -11.5 55 -11.5c38.667 0 70.167 12.333 94.5 37s36.5 63.667 36.5 117c0 46 -11.333 83.167 -34 111.5s-55 42.5 -97 42.5c-18.667 0 -36 -2.83301 -52 -8.5s-29.833 -14.834 -41.5 -27.501s-20.834 -28.667 -27.501 -48
s-10 -42.666 -10 -69.999z" />
    <glyph glyph-name="p" unicode="p" 
d="M0 500l169.998 0.000976562l15 -60h4c34.667 49.333 90.667 74 168 74c30.667 0 58.834 -4.83301 84.501 -14.5s47.667 -24.834 66 -45.501s32.5 -46.667 42.5 -78s15 -69 15 -113c0 -42.667 -5.66699 -81.167 -17 -115.5s-27.666 -63.5 -48.999 -87.5
s-47.333 -42.333 -78 -55s-65.667 -19 -105 -19c-20.667 0 -41 1.5 -61 4.5s-36.667 7.83301 -50 14.5v-205h-130v590h-75v110zM317.998 404.001c-25.333 0 -48.5 -6.33398 -69.5 -19.001s-35.5 -31.667 -43.5 -57v-208c9.33301 -7.33301 22.833 -13.166 40.5 -17.499
s35.5 -6.5 53.5 -6.5c18.667 0 36 3.16699 52 9.5s30 16.5 42 30.5s21.333 31.667 28 53s10 47 10 77c0 44 -10.667 78 -32 102s-48.333 36 -81 36z" />
    <glyph glyph-name="q" unicode="q" 
d="M530 -200l-129.999 -0.000976562v243h-4c-11.333 -17.333 -30 -31.166 -56 -41.499s-54.333 -15.5 -85 -15.5s-59 5.33301 -85 16s-48.333 26.5 -67 47.5s-33.334 47.5 -44.001 79.5s-16 69 -16 111c0 44 6.83301 83 20.5 117s32.834 62.5 57.501 85.5
s54.167 40.333 88.5 52s72.5 17.5 114.5 17.5c20.667 0 41.167 -0.833008 61.5 -2.5s39.666 -4 57.999 -7s35 -6.33301 50 -10s27.167 -7.16699 36.5 -10.5v-682zM290.001 95.999c25.333 0 48.168 5.66699 68.501 17s34.166 28.333 41.499 51v222
c-10 5.33301 -22.5 9.33301 -37.5 12s-30.5 4 -46.5 4c-42 0 -75.667 -13.333 -101 -40s-38 -65.667 -38 -117c0 -48.667 10 -85.667 30 -111s47.667 -38 83 -38z" />
    <glyph glyph-name="r" unicode="r" 
d="M39 110l123.999 -0.000976562v280h-124v110h225l15 -66h4c18.667 22 40 40.333 64 55s52 22 84 22c40 0 71.5 -14.667 94.5 -44s34.5 -78.333 34.5 -147h-117c0 24 -3.5 41.5 -10.5 52.5s-18.167 16.5 -33.5 16.5c-26.667 0 -48.167 -6.66699 -64.5 -20
s-30.166 -28.666 -41.499 -45.999v-213h217v-110h-471v110z" />
    <glyph glyph-name="s" unicode="s" 
d="M402 138c0 13.333 -8.16699 24.002 -24.5 32.002s-36.5 15.333 -60.5 22s-50.333 13.5 -79 20.5s-55 16.667 -79 29s-44.167 28 -60.5 47s-24.5 43.5 -24.5 73.5c0 24.667 5.5 46.334 16.5 65.001s26 34.5 45 47.5s41.667 22.833 68 29.5s54.833 10 85.5 10
c32.667 0 61.334 -2.33301 86.001 -7s46.167 -10.334 64.5 -17.001s34 -14.167 47 -22.5s24.167 -15.833 33.5 -22.5l-55 -89c-10 6 -21.5 12.167 -34.5 18.5s-26.667 12.166 -41 17.499s-29.333 9.66602 -45 12.999s-31.167 5 -46.5 5c-28 0 -50.667 -3.66699 -68 -11
s-26 -18.666 -26 -33.999c0 -12 8.16699 -21.667 24.5 -29s36.5 -14.166 60.5 -20.499l79 -20.5c28.667 -7.33301 55 -16.833 79 -28.5s44.167 -26.834 60.5 -45.501s24.5 -42.667 24.5 -72c0 -50.667 -18.5 -90.5 -55.5 -119.5s-91.833 -43.5 -164.5 -43.5
c-57.333 0 -106.833 8.5 -148.5 25.5s-75.167 36.833 -100.5 59.5l60 94c8.66699 -7.33301 20.167 -15.5 34.5 -24.5s30.5 -17.167 48.5 -24.5s37.167 -13.5 57.5 -18.5s40.5 -7.5 60.5 -7.5c21.333 0 39.666 3.66699 54.999 11s23 19.666 23 36.999z" />
    <glyph glyph-name="t" unicode="t" 
d="M116 390l-99.001 -0.000976562v110h99v114l130 37v-151h262v-110h-262v-143c0 -51.333 9.66699 -88.5 29 -111.5s46.333 -34.5 81 -34.5c18 0 34.333 2.16699 49 6.5s27.834 9.83301 39.501 16.5s22.334 14 32.001 22l26.5 22l60 -90
c-11.333 -13.333 -25.5 -25.5 -42.5 -36.5s-35.333 -20.667 -55 -29s-40.167 -14.833 -61.5 -19.5s-42.333 -7 -63 -7c-74.667 0 -130.834 20.833 -168.501 62.5s-56.5 107.834 -56.5 198.501v143z" />
    <glyph glyph-name="u" unicode="u" 
d="M330 500h185.999v-348v-42h76v-110h-158l-23 74h-4c-15.333 -25.333 -38.333 -46.333 -69 -63s-64.667 -25 -102 -25c-25.333 0 -48.5 3.33301 -69.5 10s-38.833 17.667 -53.5 33s-26 36 -34 62s-12 58.667 -12 98v201h-57v110h187v-284c0 -40.667 6.5 -70 19.5 -88
s33.5 -27 61.5 -27c24.667 0 46.834 7.33301 66.501 22s33.5 32.667 41.5 54v213h-56v110z" />
    <glyph glyph-name="v" unicode="v" 
d="M313 151h7l112 349h140l-191 -500h-139l-215 500h151z" />
    <glyph glyph-name="w" unicode="w" 
d="M351 380l75 -219h5l9 86l41 253h117l-101 -500h-131l-56 198h-5l-63 -198h-135l-105 500h130l49 -277l8 -62h5l74 219h83z" />
    <glyph glyph-name="x" unicode="x" 
d="M211 258l-174 242h155l113 -167l118 167h141l-171 -240l181 -260h-151l-127 184l-129 -184h-142z" />
    <glyph glyph-name="y" unicode="y" 
d="M301 141h37.999l97 359h134l-142 -451c-12.667 -37.333 -25 -71.5 -37 -102.5s-26 -57.833 -42 -80.5s-34.833 -40.167 -56.5 -52.5s-48.167 -18.5 -79.5 -18.5c-15.333 0 -29.833 2 -43.5 6s-26.167 8.83301 -37.5 14.5s-21.333 11.667 -30 18
s-15.667 12.166 -21 17.499l67 89c8.66699 -7.33301 19 -14.166 31 -20.499s23.333 -9.5 34 -9.5c20 0 35.833 7 47.5 21s22.834 37 33.501 69h-71l-208 500h141z" />
    <glyph glyph-name="z" unicode="z" 
d="M64 110l308 280h-308v110h472v-110l-305 -280h305v-110h-472v110z" />
    <glyph glyph-name="braceleft" unicode="{" 
d="M226 56c0 48.667 -11.999 82.332 -35.999 100.999s-58.667 28 -104 28v100c46 0 80.833 9.83301 104.5 29.5s35.5 51.5 35.5 95.5v128c0 50.667 13.167 90.334 39.5 119.001s65.5 43 117.5 43h150v-110h-80c-19.333 0 -35.5 -1.33301 -48.5 -4s-23.5 -7.66699 -31.5 -15
s-13.667 -17.5 -17 -30.5s-5 -29.833 -5 -50.5v-114c0 -44 -12 -76.5 -36 -97.5s-55.333 -33.167 -94 -36.5v-10c38 -2.66699 69.167 -15.5 93.5 -38.5s36.5 -56.167 36.5 -99.5v-114c0 -20.667 1.66699 -37.5 5 -50.5s9 -23.167 17 -30.5s18.667 -12.333 32 -15
s29.666 -4 48.999 -4h79v-110h-150c-50 0 -88.667 13.333 -116 40s-41 67 -41 121v125z" />
    <glyph glyph-name="bar" unicode="|" 
d="M246 700h107v-830h-107v830z" />
    <glyph glyph-name="braceright" unicode="}" 
d="M393 -69c0 -54 -13.666 -94.3311 -40.999 -120.998s-66 -40 -116 -40h-150v110h79c19.333 0 35.666 1.33301 48.999 4s24 7.66699 32 15s13.667 17.5 17 30.5s5 29.833 5 50.5v114c0 43.333 12.167 76.5 36.5 99.5s55.5 35.833 93.5 38.5v10
c-38.667 3.33301 -70 15.5 -94 36.5s-36 53.5 -36 97.5v114c0 20.667 -1.83301 37.5 -5.5 50.5s-9.5 23.167 -17.5 30.5s-18.5 12.333 -31.5 15s-28.833 4 -47.5 4h-80v110h150c52 0 91.167 -14.333 117.5 -43s39.5 -68.334 39.5 -119.001v-128
c0 -44 11.833 -75.833 35.5 -95.5s58.5 -29.5 104.5 -29.5v-100c-45.333 0 -80 -9.33301 -104 -28s-36 -52.334 -36 -101.001v-125z" />
    <glyph glyph-name="asciitilde" unicode="~" 
d="M64 378c31.333 25.333 59.499 42.833 84.499 52.5s48.167 14.5 69.5 14.5c19.333 0 37.333 -2.83301 54 -8.5s32.667 -11.667 48 -18l45.5 -18c15 -5.66699 30.167 -8.5 45.5 -8.5c12 0 24.333 2 37 6s26 11.667 40 23l47 -103c-24 -18 -46 -30.667 -66 -38
s-38.667 -11 -56 -11c-18.667 0 -36 3 -52 9s-31.5 12.667 -46.5 20s-30.167 14 -45.5 20s-31.666 9 -48.999 9c-16 0 -33.167 -3.5 -51.5 -10.5s-38.5 -19.833 -60.5 -38.5z" />
    <glyph glyph-name="uni00A0" unicode="&#xa0;" 
 />
    <glyph glyph-name="exclamdown" unicode="&#xa1;" 
d="M366 -200h-134v329l26 162h82l26 -162v-329zM219 435c0 23.333 7.33301 41.833 22 55.5s34 20.5 58 20.5c25.333 0 45.333 -6.83301 60 -20.5s22 -32.167 22 -55.5s-7.33301 -42 -22 -56s-34.667 -21 -60 -21c-24 0 -43.333 7 -58 21s-22 32.667 -22 56z" />
    <glyph glyph-name="cent" unicode="&#xa2;" 
d="M535 33c-16.667 -11.333 -37.333 -20.3291 -62 -26.9961s-48.667 -10.667 -72 -12v-94h-121v89c-36 6 -66.667 16.167 -92 30.5s-47.333 32.166 -66 53.499c-24 28 -39.5 58 -46.5 90s-10.5 61 -10.5 87c0 38 6.16699 73.167 18.5 105.5s28.5 59.166 48.5 80.499
c19.333 20 41.833 36.5 67.5 49.5s52.5 21.167 80.5 24.5v90h121v-90c9.33301 0 19.5 -0.666992 30.5 -2s22 -3.33301 33 -6s21.667 -5.83398 32 -9.50098s19.5 -7.83398 27.5 -12.501l-30 -106c-16.667 8 -33 14 -49 18s-36 6.33301 -60 7v-295c18 0 38.333 2.5 61 7.5
s41 12.167 55 21.5zM193.001 252.004c0 -34 7.83203 -64.332 23.499 -90.999s41.834 -44.334 78.501 -53.001v286c-18 -2 -33.333 -7.33301 -46 -16s-23.167 -19.5 -31.5 -32.5s-14.5 -27.5 -18.5 -43.5s-6 -32.667 -6 -50z" />
    <glyph glyph-name="sterling" unicode="&#xa3;" 
d="M64 394l68.001 -0.00195312c-8.66699 16 -16.167 34 -22.5 54s-9.5 44 -9.5 72c0 32.667 5.5 61.167 16.5 85.5s26.333 44.5 46 60.5s43.167 28 70.5 36s57.333 12 90 12c40.667 0 77.667 -3.83301 111 -11.5s62 -17.167 86 -28.5l-42 -116
c-13.333 7.33301 -31.666 14.833 -54.999 22.5s-51.333 11.5 -84 11.5c-32 0 -57 -7.5 -75 -22.5s-27 -37.5 -27 -67.5c0 -22.667 4.16699 -42.167 12.5 -58.5s17.5 -32.833 27.5 -49.5h141v-107h-98c2 -11.333 3 -22.666 3 -33.999c0 -10 -0.5 -20.833 -1.5 -32.5
s-3.5 -23.5 -7.5 -35.5s-10.333 -24 -19 -36s-20.334 -23.333 -35.001 -34h276v-115h-472v115c21.333 0.666992 40 4.33398 56 11.001s29.167 15.5 39.5 26.5s18.166 23.833 23.499 38.5s8 30 8 46c0 18 -2 34.667 -6 50h-121v107z" />
    <glyph glyph-name="currency" unicode="&#xa4;" 
d="M97 622l106.002 -108c13.333 8 28.166 14 44.499 18s33.5 6 51.5 6c17.333 0 34.666 -2.16699 51.999 -6.5s32.333 -10.166 45 -17.499l106 108l77 -80l-107 -107c12.667 -25.333 19 -55.333 19 -90c0 -34 -6.33301 -63.667 -19 -89l107 -106l-77 -80l-108 106
c-12.667 -7.33301 -27.5 -12.833 -44.5 -16.5s-33.833 -5.5 -50.5 -5.5c-17.333 0 -34 1.83301 -50 5.5s-30.667 9.16699 -44 16.5l-108 -106l-76 80l107 105c-13.333 26.667 -20 56.667 -20 90c0 16.667 1.83301 32.167 5.5 46.5s8.5 28.166 14.5 41.499l-107 109z
M217.002 346c0 -25.333 7.66699 -46 23 -62s35.333 -24 60 -24s44.5 8 59.5 24s22.5 36.667 22.5 62c0 24 -7.5 44.333 -22.5 61s-34.833 25 -59.5 25s-44.667 -8.33301 -60 -25s-23 -37 -23 -61z" />
    <glyph glyph-name="yen" unicode="&#xa5;" 
d="M101 337h91l-186 363h163l135 -289h5l138 289h147l-185 -363h90v-80h-130v-58h130v-80h-130v-119h-137v119h-131v80h131v58h-131v80z" />
    <glyph glyph-name="brokenbar" unicode="&#xa6;" 
d="M246 213h107v-343h-107v343zM353 357h-107v343h107v-343z" />
    <glyph glyph-name="section" unicode="&#xa7;" 
d="M84 353c0 25.333 5.99707 49.3301 17.9971 71.9971s34.667 44.334 68 65.001c-12 8.66699 -23.167 20 -33.5 34s-15.5 34.667 -15.5 62c0 37.333 14.5 68 43.5 92s72.833 36 131.5 36c39.333 0 76 -3.33301 110 -10s60 -14.334 78 -23.001l-32 -105
c-15.333 7.33301 -35.666 13.833 -60.999 19.5s-49.666 8.5 -72.999 8.5c-24.667 0 -42 -3.66699 -52 -11s-15 -16.666 -15 -27.999c0 -12 6.5 -21.333 19.5 -28s29.333 -12.667 49 -18l64 -18c23 -6.66699 44.333 -16 64 -28s36 -28 49 -48s19.5 -46 19.5 -78
c0 -20.667 -5.83301 -42.667 -17.5 -66s-34.834 -45.666 -69.501 -66.999c14 -9.33301 25.833 -21.5 35.5 -36.5s14.5 -36.167 14.5 -63.5c0 -42 -16.333 -73.833 -49 -95.5s-76 -32.5 -130 -32.5c-45.333 0 -83.166 4.5 -113.499 13.5s-55.166 18.833 -74.499 29.5l34 100
c15.333 -7.33301 34 -14.666 56 -21.999s47.667 -11 77 -11c24.667 0 42.5 3.16699 53.5 9.5s16.5 16.5 16.5 30.5c0 12.667 -6.5 22.5 -19.5 29.5s-29.333 13.333 -49 19l-64 18.5c-23 6.66699 -44.333 15.834 -64 27.501s-36 27.167 -49 46.5s-19.5 44.666 -19.5 75.999z
M385.997 344.997c0 12 -2.83301 22.001 -8.5 30.001s-13.834 15.167 -24.501 21.5s-23.667 12.166 -39 17.499s-32.666 11 -51.999 17c-13.333 -8 -24.666 -18.5 -33.999 -31.5s-14 -27.833 -14 -44.5c0 -23.333 10.667 -40.666 32 -51.999s50.666 -22.333 87.999 -33
c14.667 8 27 18.667 37 32s15 27.666 15 42.999z" />
    <glyph glyph-name="dieresis" unicode="&#xa8;" 
d="M96 646c0 22.667 6.83301 40.834 20.5 54.501s32.167 20.5 55.5 20.5c22.667 0 40.667 -6.83301 54 -20.5s20 -31.834 20 -54.501c0 -21.333 -6.66699 -38.833 -20 -52.5s-31.333 -20.5 -54 -20.5c-23.333 0 -41.833 6.83301 -55.5 20.5s-20.5 31.167 -20.5 52.5z
M354 646c0 22.667 6.66699 40.834 20 54.501s31.333 20.5 54 20.5s41 -6.83301 55 -20.5s21 -31.834 21 -54.501c0 -21.333 -7 -38.833 -21 -52.5s-32.333 -20.5 -55 -20.5s-40.667 6.83301 -54 20.5s-20 31.167 -20 52.5z" />
    <glyph glyph-name="copyright" unicode="&#xa9;" 
d="M35 285c0 40.667 6.83398 77.5 20.501 110.5s32.5 61 56.5 84s52 40.667 84 53s66.667 18.5 104 18.5s72.166 -6.16699 104.499 -18.5s60.5 -30 84.5 -53s42.833 -51 56.5 -84s20.5 -69.833 20.5 -110.5s-6.83301 -77.334 -20.5 -110.001s-32.5 -60.5 -56.5 -83.5
s-52.167 -40.667 -84.5 -53s-67.166 -18.5 -104.499 -18.5c-41.333 0 -78.333 6.16699 -111 18.5s-60.334 30 -83.001 53s-40.167 50.833 -52.5 83.5s-18.5 69.334 -18.5 110.001zM106.001 285c0 -30 4.83301 -57.167 14.5 -81.5s23.167 -45 40.5 -62
s37.833 -30.167 61.5 -39.5s49.5 -14 77.5 -14s54 4.66699 78 14s44.667 22.5 62 39.5s30.833 37.667 40.5 62s14.5 51.5 14.5 81.5c0 30.667 -4.83301 58.167 -14.5 82.5s-23.167 45 -40.5 62s-38 30.167 -62 39.5s-50 14 -78 14s-53.833 -4.66699 -77.5 -14
s-44.167 -22.5 -61.5 -39.5s-30.833 -37.667 -40.5 -62s-14.5 -51.833 -14.5 -82.5zM392.001 168c-11.333 -6.66699 -24.501 -12.166 -39.501 -16.499s-32.167 -6.5 -51.5 -6.5c-38 0 -68.167 12.667 -90.5 38s-33.5 59.333 -33.5 102c0 45.333 11.5 80.166 34.5 104.499
s52.167 36.5 87.5 36.5c18.667 0 34.834 -2.16699 48.501 -6.5s26.834 -10.166 39.501 -17.499l-23 -62c-9.33301 4.66699 -17.5 7.66699 -24.5 9s-13.833 2 -20.5 2c-14 0 -26 -5.5 -36 -16.5s-15 -28.167 -15 -51.5c0 -21.333 5.16699 -37.333 15.5 -48
s23.833 -16 40.5 -16c9.33301 0 17.666 1.16699 24.999 3.5s14.333 5.16602 21 8.49902z" />
    <glyph glyph-name="ordfeminine" unicode="&#xaa;" 
d="M151 674c17.333 9.33301 41.665 17.335 72.998 24.002s67 10 107 10c50.667 0 85.334 -9.16699 104.001 -27.5s28 -46.5 28 -84.5c0 -22.667 -0.5 -44.834 -1.5 -66.501s-1.5 -42.834 -1.5 -63.501c0 -16 0.5 -31.167 1.5 -45.5s3.16699 -27.833 6.5 -40.5h-101l-13 46
h-4c-8.66699 -11.333 -21 -22.5 -37 -33.5s-38.333 -16.5 -67 -16.5c-34.667 0 -62.334 9.16699 -83.001 27.5s-31 42.166 -31 71.499c0 20.667 5 38 15 52s23.5 25.333 40.5 34s37 15 60 19s47.833 6 74.5 6c4.66699 0 9.16699 -0.166992 13.5 -0.5s8.83301 -0.5 13.5 -0.5
c1.33301 17.333 -1 29.833 -7 37.5s-20.667 11.5 -44 11.5c-27.333 0 -51.666 -2.66699 -72.999 -8s-38.666 -10.666 -51.999 -15.999zM283.999 454.002c21.333 0 36.332 3.83301 44.999 11.5s15.334 15.5 20.001 23.5v35c-6 0.666992 -12 1.16699 -18 1.5
s-11.667 0.5 -17 0.5c-20 0 -36.167 -2.83301 -48.5 -8.5s-18.5 -15.5 -18.5 -29.5c0 -10.667 3.5 -19 10.5 -25s15.833 -9 26.5 -9z" />
    <glyph glyph-name="guillemotleft" unicode="&#xab;" 
d="M50 259l183 258l75 -62l-137 -195l147 -186l-77 -64zM282 259l183 258l75 -62l-137 -195l147 -186l-77 -64z" />
    <glyph glyph-name="logicalnot" unicode="&#xac;" 
d="M79 412h442v-226h-120v114h-322v112z" />
    <glyph glyph-name="uni00AD" unicode="&#xad;" 
d="M154 345h291v-115h-291v115z" />
    <glyph glyph-name="registered" unicode="&#xae;" 
d="M17 451c0 44.667 7.50195 84.5 22.502 119.5s35.5 64.5 61.5 88.5s56.167 42.333 90.5 55s70.5 19 108.5 19c39.333 0 76.166 -6.33301 110.499 -19s64.166 -31 89.499 -55s45.333 -53.5 60 -88.5s22 -74.833 22 -119.5c0 -45.333 -7.5 -85.5 -22.5 -120.5
s-35.333 -64.5 -61 -88.5s-55.667 -42.333 -90 -55s-70.5 -19 -108.5 -19c-39.333 0 -76.166 6.33301 -110.499 19s-64.333 31 -90 55s-45.834 53.5 -60.501 88.5s-22 75.167 -22 120.5zM106.002 451c0 -33.333 5.33203 -62.5029 15.999 -87.5029
s24.834 -45.833 42.501 -62.5s38.334 -29 62.001 -37s48.5 -12 74.5 -12c27.333 0 52.833 3.83301 76.5 11.5s44.167 19.834 61.5 36.501s31 37.5 41 62.5s15 54.5 15 88.5c0 32.667 -5.16699 61.334 -15.5 86.001s-24.333 45.334 -42 62.001s-38.334 29.167 -62.001 37.5
s-48.5 12.5 -74.5 12.5c-29.333 0 -56 -4.66699 -80 -14s-44.5 -22.5 -61.5 -39.5s-30.167 -37.667 -39.5 -62s-14 -51.833 -14 -82.5zM187.001 578.997c10 3.33301 24.832 6.16699 44.499 8.5s38.167 3.5 55.5 3.5c16.667 0 32.667 -1.5 48 -4.5
s28.833 -7.83301 40.5 -14.5s20.834 -15.5 27.501 -26.5s10 -24.5 10 -40.5c0 -17.333 -4 -31.833 -12 -43.5s-18.333 -20.5 -31 -26.5l65 -113h-85l-48 90h-43v-90h-72v257zM278 465.998c14 0 26.833 2.16797 38.5 6.50098s17.5 14.166 17.5 29.499
c0 23.333 -15.667 35 -47 35c-6 0 -11.833 -0.5 -17.5 -1.5s-9.16699 -1.83301 -10.5 -2.5v-67h19z" />
    <glyph glyph-name="macron" unicode="&#xaf;" 
d="M138 658h323v-92h-323v92z" />
    <glyph glyph-name="degree" unicode="&#xb0;" 
d="M134 548c0 24.667 4.33301 47.166 13 67.499s20.5 37.833 35.5 52.5s32.333 26 52 34s40.834 12 63.501 12s44.167 -3.66699 64.5 -11s38.166 -18.166 53.499 -32.499s27.333 -31.833 36 -52.5s13 -44 13 -70s-4.33301 -49.167 -13 -69.5s-20.667 -37.5 -36 -51.5
s-33.166 -24.667 -53.499 -32s-41.833 -11 -64.5 -11s-43.834 3.66699 -63.501 11s-37 18 -52 32s-26.833 31.167 -35.5 51.5s-13 43.5 -13 69.5zM234 547.999c0 -21.333 6.33301 -38.166 19 -50.499s28 -18.5 46 -18.5s33.667 6.16699 47 18.5s20 29.166 20 50.499
s-6.66699 38.5 -20 51.5s-29 19.5 -47 19.5s-33.333 -6.5 -46 -19.5s-19 -30.167 -19 -51.5z" />
    <glyph glyph-name="plusminus" unicode="&#xb1;" 
d="M79 518h162v164h117v-164h163v-112h-163v-107h-117v107h-162v112zM79 253h442v-112h-442v112z" />
    <glyph glyph-name="twosuperior" unicode="&#xb2;" 
d="M478 481l0.000976562 -100.999h-352v70l67 45.5c24.667 16.333 47.5 33.333 68.5 51s38.667 35.667 53 54s21.5 36.166 21.5 53.499c0 15.333 -5.66699 27.666 -17 36.999s-28.666 14 -51.999 14c-26 0 -48 -4.66699 -66 -14s-32.667 -17.666 -44 -24.999l-43 87
c27.333 18 54.833 31.5 82.5 40.5s55.167 13.5 82.5 13.5c21.333 0 41.666 -2.16699 60.999 -6.5s37.666 -12.166 54.999 -23.499s31 -25.5 41 -42.5s15 -36.5 15 -58.5c0 -21.333 -4.33301 -41.5 -13 -60.5s-20 -36.667 -34 -53s-29.5 -31.333 -46.5 -45
s-33.833 -25.834 -50.5 -36.501h171z" />
    <glyph glyph-name="threesuperior" unicode="&#xb3;" 
d="M343 630c32 -3.33301 59.499 -14.3311 82.499 -32.998s34.5 -46 34.5 -82c0 -24 -5.33301 -44.833 -16 -62.5s-25 -32.334 -43 -44.001s-38.5 -20.5 -61.5 -26.5s-46.5 -9 -70.5 -9c-26 0 -55.667 3.83301 -89 11.5s-66.666 24.834 -99.999 51.501l43 86
c28 -20.667 53.667 -34.834 77 -42.501s45.333 -11.5 66 -11.5c21.333 0 39.833 4.66699 55.5 14s23.5 21.666 23.5 36.999s-6.5 27 -19.5 35s-36.5 12 -70.5 12h-38v53l88 86h-177v95h315v-70l-100 -100v0z" />
    <glyph glyph-name="acute" unicode="&#xb4;" 
d="M260 720h158l-137 -154h-80z" />
    <glyph glyph-name="mu" unicode="&#xb5;" 
d="M189 500l-0.00195312 -272.998c0 -42.667 6.83301 -74.834 20.5 -96.501s37.5 -32.5 71.5 -32.5c30.667 0 55.334 7.66699 74.001 23s32 36.666 40 63.999v315h130v-337c0 -27.333 0.833008 -54.833 2.5 -82.5s5.83398 -54.5 12.501 -80.5h-96l-32 74h-4
c-11.333 -23.333 -28 -43.5 -50 -60.5s-50.667 -25.5 -86 -25.5c-26 0 -46 4.66699 -60 14s-27 21.333 -39 36h-5l21 -105v-133h-130v700h130z" />
    <glyph glyph-name="mu" unicode="&#x3bc;" 
d="M189 500l-0.00195312 -272.998c0 -42.667 6.83301 -74.834 20.5 -96.501s37.5 -32.5 71.5 -32.5c30.667 0 55.334 7.66699 74.001 23s32 36.666 40 63.999v315h130v-337c0 -27.333 0.833008 -54.833 2.5 -82.5s5.83398 -54.5 12.501 -80.5h-96l-32 74h-4
c-11.333 -23.333 -28 -43.5 -50 -60.5s-50.667 -25.5 -86 -25.5c-26 0 -46 4.66699 -60 14s-27 21.333 -39 36h-5l21 -105v-133h-130v700h130z" />
    <glyph glyph-name="paragraph" unicode="&#xb6;" 
d="M414 700h107v-830h-107v830zM229 294c-21.333 0 -41.332 5.50098 -59.999 16.501s-34.834 26 -48.501 45s-24.167 40.667 -31.5 65s-11 50.166 -11 77.499c0 26.667 4.33301 52.167 13 76.5s21 45.833 37 64.5s35.333 33.5 58 44.5s48 16.5 76 16.5h74v-830h-107v424z
" />
    <glyph glyph-name="periodcentered" unicode="&#xb7;" 
d="M219 316c0 23.333 7.33301 41.833 22 55.5s34 20.5 58 20.5c25.333 0 45.333 -6.83301 60 -20.5s22 -32.167 22 -55.5s-7.33301 -42 -22 -56s-34.667 -21 -60 -21c-24 0 -43.333 7 -58 21s-22 32.667 -22 56z" />
    <glyph glyph-name="cedilla" unicode="&#xb8;" 
d="M342 0l-23.999 -43.001c27.333 -2.66699 48.833 -9.83398 64.5 -21.501s23.5 -29.5 23.5 -53.5c0 -15.333 -3.83301 -28.666 -11.5 -39.999s-18.167 -20.833 -31.5 -28.5s-29 -13.5 -47 -17.5s-37.333 -6 -58 -6s-42 2 -64 6l9 48c4.66699 -0.666992 9 -1 13 -1h11
c25.333 0 41.666 3 48.999 9s11 13 11 21c0 18.667 -28.667 29.334 -86 32.001l57 95h84z" />
    <glyph glyph-name="onesuperior" unicode="&#xb9;" 
d="M133 480h129v192l-100 -67l-49 77l169 118h95v-320h120v-100h-364v100z" />
    <glyph glyph-name="ordmasculine" unicode="&#xba;" 
d="M124 542c0 30 4.33301 55.667 13 77s20.834 39 36.501 53s34.334 24.167 56.001 30.5s45.167 9.5 70.5 9.5s48.666 -3 69.999 -9s39.833 -15.667 55.5 -29s27.834 -30.833 36.501 -52.5s13 -48.167 13 -79.5s-4.33301 -57.833 -13 -79.5s-20.834 -39.167 -36.501 -52.5
s-34.167 -23 -55.5 -29s-44.666 -9 -69.999 -9s-48.833 3 -70.5 9s-40.334 15.667 -56.001 29s-27.834 30.833 -36.501 52.5s-13 48.167 -13 79.5zM241 542c0 -57.333 19.667 -86 59 -86c20.667 0 35.5 6.16699 44.5 18.5s13.5 34.833 13.5 67.5c0 32 -4.5 54.333 -13.5 67
s-23.833 19 -44.5 19s-35.667 -6.33301 -45 -19s-14 -35 -14 -67z" />
    <glyph glyph-name="guillemotright" unicode="&#xbb;" 
d="M359 10l-77 64l147 186l-137 195l75 62l183 -258zM127 10l-77 64l147 186l-137 195l75 62l183 -258z" />
    <glyph glyph-name="onequarter" unicode="&#xbc;" 
d="M596 78h-51v-78h-93v78h-146v71l147 279h92v-266h51v-84zM452 268l-53 -106h53v106zM425 724l72 -26l-315 -739l-74 28zM109 576l-58 -47l-47 66l125 105h76v-420h-96v296z" />
    <glyph glyph-name="onehalf" unicode="&#xbd;" 
d="M597 305c0 -34.667 -9.50098 -68.668 -28.501 -102.001s-45.5 -70.666 -79.5 -111.999h108v-91h-213v84l33 41c13.333 16.667 26.333 34.167 39 52.5s23.334 36.333 32.001 54s13 33.167 13 46.5c0 17.333 -3.83301 29.833 -11.5 37.5s-17.5 11.5 -29.5 11.5
c-9.33301 0 -17.833 -1.5 -25.5 -4.5s-15.167 -7.16699 -22.5 -12.5l-26 88c12.667 8 26.5 14.833 41.5 20.5s33.833 8.5 56.5 8.5c37.333 0 65.5 -11.333 84.5 -34s28.5 -52 28.5 -88zM106.999 575.999l-58 -47l-47 66l125 105h76v-420h-96v296zM419.999 723.999l72 -26
l-315 -739l-74 28z" />
    <glyph glyph-name="threequarters" unicode="&#xbe;" 
d="M594 78h-51v-78h-93v78h-146v71l147 279h92v-266h51v-84zM91 368c14.667 0 26.666 4.6709 35.999 14.0039s14 21.666 14 36.999s-4.16699 27.333 -12.5 36s-22.166 13 -41.499 13h-27v46l68 95h-116v91h218v-87l-64 -90c21.333 -5.33301 39.333 -16.333 54 -33
s22 -43 22 -79c0 -18.667 -3 -36.334 -9 -53.001s-15 -31.334 -27 -44.001s-27 -22.667 -45 -30s-39 -11 -63 -11c-26 0 -46.667 3.16699 -62 9.5s-26.333 11.166 -33 14.499l24 90c5.33301 -3.33301 13.5 -7.33301 24.5 -12s24.167 -7 39.5 -7zM431.999 724.004l72 -26
l-315 -739l-74 28zM449.999 268.004l-53 -106h53v106z" />
    <glyph glyph-name="questiondown" unicode="&#xbf;" 
d="M393 293c0.666992 -5.33301 1.16406 -10.4971 1.49707 -15.4971s0.5 -10.167 0.5 -15.5c0 -29.333 -4.66699 -54.666 -14 -75.999s-21.166 -39.833 -35.499 -55.5s-29.833 -29.334 -46.5 -41.001s-32.167 -23.334 -46.5 -35.001s-26.166 -23.834 -35.499 -36.501
s-14 -27.334 -14 -44.001c0 -23.333 9.66699 -42 29 -56s49.333 -21 90 -21c20.667 0 39.667 3 57 9s33.333 13.167 48 21.5s27.667 17 39 26s21.333 16.5 30 22.5l63 -84c-16 -17.333 -34.167 -32.666 -54.5 -45.999s-41.833 -24.333 -64.5 -33s-46 -15.167 -70 -19.5
s-47.667 -6.5 -71 -6.5c-72.667 0 -129.167 15.167 -169.5 45.5s-60.5 71.166 -60.5 122.499c0 34 5.16699 62.167 15.5 84.5s23.5 41.333 39.5 57s33.167 29.5 51.5 41.5s35.333 24.833 51 38.5s28.834 29.5 39.501 47.5s16 41 16 69h111zM412.997 435.003
c0 -23.333 -7.33301 -41.833 -22 -55.5s-34 -20.5 -58 -20.5c-25.333 0 -45.333 6.83301 -60 20.5s-22 32.167 -22 55.5s7.33301 42 22 56s34.667 21 60 21c24 0 43.333 -7 58 -21s22 -32.667 22 -56z" />
    <glyph glyph-name="Agrave" unicode="&#xc0;" 
d="M400 155h-209l-48 -155h-137l226 700h137l225 -700h-144zM223 265h150l-71 234h-9zM398 752h-105l-158 88v30h159z" />
    <glyph glyph-name="Aacute" unicode="&#xc1;" 
d="M400 155h-209l-48 -155h-137l226 700h137l225 -700h-144zM223 265h150l-71 234h-9zM307 870h159v-30l-160 -88h-103z" />
    <glyph glyph-name="Acircumflex" unicode="&#xc2;" 
d="M400 155h-209l-48 -155h-137l226 700h137l225 -700h-144zM223 265h150l-71 234h-9zM509 737h-136l-73 61l-68 -61h-141l155 133h102z" />
    <glyph glyph-name="Atilde" unicode="&#xc3;" 
d="M400 155h-209l-48 -155h-137l226 700h137l225 -700h-144zM223 265h150l-71 234h-9zM112 800c21.333 23.333 41.833 39.3311 61.5 47.998s39.167 13 58.5 13c14.667 0 29.334 -1.83301 44.001 -5.5s28.834 -7.66699 42.501 -12l40.5 -12.5c13.333 -4 26 -6 38 -6
c10.667 0 21 1.83301 31 5.5s19.667 10.167 29 19.5l25 -67c-18.667 -17.333 -36.834 -29.5 -54.501 -36.5s-34.834 -10.5 -51.501 -10.5c-15.333 0 -30 1.83301 -44 5.5s-27.833 7.83398 -41.5 12.501s-27.167 8.83398 -40.5 12.501s-26.333 5.5 -39 5.5
s-25.167 -2.5 -37.5 -7.5s-24.833 -14.167 -37.5 -27.5z" />
    <glyph glyph-name="Adieresis" unicode="&#xc4;" 
d="M400 155h-209l-48 -155h-137l226 700h137l225 -700h-144zM223 265h150l-71 234h-9zM97 805c0 18 6.33301 32.667 19 44s33 17 61 17s48.333 -5.66699 61 -17s19 -26 19 -44c0 -18.667 -6.33301 -33.334 -19 -44.001s-33 -16 -61 -16s-48.333 5.33301 -61 16
s-19 25.334 -19 44.001zM343 805c0 18 6.33301 32.667 19 44s33 17 61 17s48.333 -5.66699 61 -17s19 -26 19 -44c0 -18.667 -6.33301 -33.334 -19 -44.001s-33 -16 -61 -16s-48.333 5.33301 -61 16s-19 25.334 -19 44.001z" />
    <glyph glyph-name="Aring" unicode="&#xc5;" 
d="M172 772c0 12 2.00098 23.5 6.00098 34.5s10.833 20.667 20.5 29s22.667 14.833 39 19.5s37.166 7 62.499 7c46.667 0 79.667 -8 99 -24s29 -38 29 -66c0 -12 -2.16699 -23.333 -6.5 -34s-11.5 -20 -21.5 -28c-8 -6 -18 -11 -30 -15l224 -695h-144l-50 155h-209l-48 -155
h-137l224 693c-12 4 -22 9.33301 -30 16c-18.667 16.667 -28 37.667 -28 63zM223.001 265h150l-71 234h-9zM256.001 772c0 -20.667 14.666 -30.999 43.999 -30.999c16.667 0 28.334 2.66699 35.001 8s10 13 10 23c0 11.333 -3.5 19.666 -10.5 24.999s-18.5 8.33301 -34.5 9
c-29.333 -0.666992 -44 -12 -44 -34z" />
    <glyph glyph-name="AE" unicode="&#xc6;" 
d="M296 480l-70 -204h74v204h-4zM300 168h-115l-62 -168h-125l270 700h331v-121h-179v-163h161v-123h-161v-171h182v-122h-302v168z" />
    <glyph glyph-name="Ccedilla" unicode="&#xc7;" 
d="M444 235h109.999v-200c-21.333 -15.333 -48.666 -27.333 -81.999 -36c-18 -4.66699 -36.333 -8 -55 -10l-17 -32c27.333 -2.66699 48.833 -9.83398 64.5 -21.501s23.5 -29.5 23.5 -53.5c0 -15.333 -3.83301 -28.666 -11.5 -39.999s-18.167 -20.833 -31.5 -28.5
s-29 -13.5 -47 -17.5s-37.333 -6 -58 -6s-42 2 -64 6l9 48c4.66699 -0.666992 9 -1 13 -1h11c25.333 0 41.666 3 48.999 9s11 13 11 21c0 18.667 -28.667 29.334 -86 32.001l49 83c-30 2.66699 -59 8.33398 -87 17.001c-39.333 13.333 -74 34.5 -104 63.5
s-54 66.667 -72 113s-27 102.5 -27 168.5c0 68.667 10.167 126.167 30.5 172.5s46.5 83.666 78.5 111.999s67.667 48.666 107 60.999s78 18.5 116 18.5c40 0 73.833 -3.33301 101.5 -10s50.5 -14.334 68.5 -23.001v-208h-110v114c-20.667 3.33301 -42 5 -64 5
c-26 0 -50.167 -4.83301 -72.5 -14.5s-41.833 -24.5 -58.5 -44.5s-29.667 -45.167 -39 -75.5s-14 -66.166 -14 -107.499c0 -36 4.33301 -68.833 13 -98.5s21.334 -55.167 38.001 -76.5s37 -37.833 61 -49.5s51.333 -17.5 82 -17.5c22 0 43.333 2 64 6v121z" />
    <glyph glyph-name="Egrave" unicode="&#xc8;" 
d="M70 700h459v-122h-322v-163h297v-122h-297v-171h327v-122h-464v700zM393 752h-105l-158 88v30h159z" />
    <glyph glyph-name="Eacute" unicode="&#xc9;" 
d="M70 700h459v-122h-322v-163h297v-122h-297v-171h327v-122h-464v700zM323 870h159v-30l-160 -88h-103z" />
    <glyph glyph-name="Ecircumflex" unicode="&#xca;" 
d="M70 700h459v-122h-322v-163h297v-122h-297v-171h327v-122h-464v700zM509 737h-136l-73 61l-68 -61h-141l155 133h102z" />
    <glyph glyph-name="Edieresis" unicode="&#xcb;" 
d="M70 700h459v-122h-322v-163h297v-122h-297v-171h327v-122h-464v700zM95 805c0 18 6.33301 32.667 19 44s33 17 61 17s48.333 -5.66699 61 -17s19 -26 19 -44c0 -18.667 -6.33301 -33.334 -19 -44.001s-33 -16 -61 -16s-48.333 5.33301 -61 16s-19 25.334 -19 44.001z
M341 805c0 18 6.33301 32.667 19 44s33 17 61 17s48.333 -5.66699 61 -17s19 -26 19 -44c0 -18.667 -6.33301 -33.334 -19 -44.001s-33 -16 -61 -16s-48.333 5.33301 -61 16s-19 25.334 -19 44.001z" />
    <glyph glyph-name="Igrave" unicode="&#xcc;" 
d="M54 122h177v456h-177v122h492v-122h-178v-456h178v-122h-492v122zM408 752h-105l-158 88v30h159z" />
    <glyph glyph-name="Iacute" unicode="&#xcd;" 
d="M54 122h177v456h-177v122h492v-122h-178v-456h178v-122h-492v122zM309 870h159v-30l-160 -88h-103z" />
    <glyph glyph-name="Icircumflex" unicode="&#xce;" 
d="M54 122h177v456h-177v122h492v-122h-178v-456h178v-122h-492v122zM508 737h-136l-73 61l-68 -61h-141l155 133h102z" />
    <glyph glyph-name="Idieresis" unicode="&#xcf;" 
d="M54 122h177v456h-177v122h492v-122h-178v-456h178v-122h-492v122zM98 805c0 18 6.33301 32.667 19 44s33 17 61 17s48.333 -5.66699 61 -17s19 -26 19 -44c0 -18.667 -6.33301 -33.334 -19 -44.001s-33 -16 -61 -16s-48.333 5.33301 -61 16s-19 25.334 -19 44.001z
M344 805c0 18 6.33301 32.667 19 44s33 17 61 17s48.333 -5.66699 61 -17s19 -26 19 -44c0 -18.667 -6.33301 -33.334 -19 -44.001s-33 -16 -61 -16s-48.333 5.33301 -61 16s-19 25.334 -19 44.001z" />
    <glyph glyph-name="Eth" unicode="&#xd0;" 
d="M89 700c6 0.666992 16.499 1.66699 31.499 3s32 2.5 51 3.5s38.667 1.83301 59 2.5s38.5 1 54.5 1c62 0 113.333 -9 154 -27s72.834 -42.833 96.501 -74.5s40.167 -69 49.5 -112s14 -89.833 14 -140.5c0 -46 -4.66699 -91 -14 -135s-26.166 -83.167 -50.499 -117.5
s-58 -62 -101 -83s-98.167 -31.5 -165.5 -31.5c-10.667 0 -24.334 0.333008 -41.001 1s-33.667 1.5 -51 2.5l-50 3c-16 1 -28.333 2.16699 -37 3.5v322h-88v80h88v299zM289.999 588c-12.667 0 -24.998 -0.49707 -36.998 -1.49707s-21 -1.83301 -27 -2.5v-183h140v-80h-140
v-206c2.66699 -0.666992 6.66699 -1.16699 12 -1.5l16.5 -1l16.5 -1c5.33301 -0.333008 9.66602 -0.5 12.999 -0.5c38.667 0 69.5 7.16699 92.5 21.5s40.167 33.166 51.5 56.499s18.666 49.666 21.999 78.999s5 58.666 5 87.999c0 25.333 -1.5 51.666 -4.5 78.999
s-10 52.333 -21 75s-27.5 41.334 -49.5 56.001s-52 22 -90 22z" />
    <glyph glyph-name="Ntilde" unicode="&#xd1;" 
d="M185 414h-5l6 -83v-331h-130v700h120l242 -428h5l-9 84v344h130v-700h-120zM110 800c21.333 23.333 41.833 39.3311 61.5 47.998s39.167 13 58.5 13c14.667 0 29.334 -1.83301 44.001 -5.5s28.834 -7.66699 42.501 -12l40.5 -12.5c13.333 -4 26 -6 38 -6
c10.667 0 21 1.83301 31 5.5s19.667 10.167 29 19.5l25 -67c-18.667 -17.333 -36.834 -29.5 -54.501 -36.5s-34.834 -10.5 -51.501 -10.5c-15.333 0 -30 1.83301 -44 5.5s-27.833 7.83398 -41.5 12.501s-27.167 8.83398 -40.5 12.501s-26.333 5.5 -39 5.5
s-25.167 -2.5 -37.5 -7.5s-24.833 -14.167 -37.5 -27.5z" />
    <glyph glyph-name="Ograve" unicode="&#xd2;" 
d="M36 350c0 56.667 5.33398 107.667 16.001 153s27 83.5 49 114.5s49.5 54.833 82.5 71.5s71.833 25 116.5 25c48 0 88.667 -9 122 -27s60.5 -43 81.5 -75s36.333 -70.333 46 -115s14.5 -93.667 14.5 -147c0 -114 -21.833 -203.167 -65.5 -267.5
s-109.834 -96.5 -198.501 -96.5c-48 0 -88.833 9 -122.5 27s-61 43 -82 75s-36.167 70.333 -45.5 115s-14 93.667 -14 147zM180.001 350c0 -34 1.50195 -65.665 4.50195 -94.998s8.66699 -54.833 17 -76.5s20.333 -38.834 36 -51.501s36.5 -19 62.5 -19
c23.333 0 42.666 4.83301 57.999 14.5s27.666 24.5 36.999 44.5s15.833 45.167 19.5 75.5s5.5 66.166 5.5 107.499c0 32.667 -1.16699 63.667 -3.5 93s-7.66602 55 -15.999 77s-20.5 39.5 -36.5 52.5s-37.333 19.5 -64 19.5c-46.667 0 -78.334 -20.333 -95.001 -61
s-25 -101 -25 -181zM378.003 752.002h-105l-158 88v30h159z" />
    <glyph glyph-name="Oacute" unicode="&#xd3;" 
d="M36 350c0 56.667 5.33398 107.667 16.001 153s27 83.5 49 114.5s49.5 54.833 82.5 71.5s71.833 25 116.5 25c48 0 88.667 -9 122 -27s60.5 -43 81.5 -75s36.333 -70.333 46 -115s14.5 -93.667 14.5 -147c0 -114 -21.833 -203.167 -65.5 -267.5
s-109.834 -96.5 -198.501 -96.5c-48 0 -88.833 9 -122.5 27s-61 43 -82 75s-36.167 70.333 -45.5 115s-14 93.667 -14 147zM180.001 350c0 -34 1.50195 -65.665 4.50195 -94.998s8.66699 -54.833 17 -76.5s20.333 -38.834 36 -51.501s36.5 -19 62.5 -19
c23.333 0 42.666 4.83301 57.999 14.5s27.666 24.5 36.999 44.5s15.833 45.167 19.5 75.5s5.5 66.166 5.5 107.499c0 32.667 -1.16699 63.667 -3.5 93s-7.66602 55 -15.999 77s-20.5 39.5 -36.5 52.5s-37.333 19.5 -64 19.5c-46.667 0 -78.334 -20.333 -95.001 -61
s-25 -101 -25 -181zM333.003 870.002h159v-30l-160 -88h-103z" />
    <glyph glyph-name="Ocircumflex" unicode="&#xd4;" 
d="M36 350c0 56.667 5.33398 107.667 16.001 153s27 83.5 49 114.5s49.5 54.833 82.5 71.5s71.833 25 116.5 25c48 0 88.667 -9 122 -27s60.5 -43 81.5 -75s36.333 -70.333 46 -115s14.5 -93.667 14.5 -147c0 -114 -21.833 -203.167 -65.5 -267.5
s-109.834 -96.5 -198.501 -96.5c-48 0 -88.833 9 -122.5 27s-61 43 -82 75s-36.167 70.333 -45.5 115s-14 93.667 -14 147zM180.001 350c0 -34 1.50195 -65.665 4.50195 -94.998s8.66699 -54.833 17 -76.5s20.333 -38.834 36 -51.501s36.5 -19 62.5 -19
c23.333 0 42.666 4.83301 57.999 14.5s27.666 24.5 36.999 44.5s15.833 45.167 19.5 75.5s5.5 66.166 5.5 107.499c0 32.667 -1.16699 63.667 -3.5 93s-7.66602 55 -15.999 77s-20.5 39.5 -36.5 52.5s-37.333 19.5 -64 19.5c-46.667 0 -78.334 -20.333 -95.001 -61
s-25 -101 -25 -181zM509.003 737.002h-136l-73 61l-68 -61h-141l155 133h102z" />
    <glyph glyph-name="Otilde" unicode="&#xd5;" 
d="M36 350c0 56.667 5.33398 107.667 16.001 153s27 83.5 49 114.5s49.5 54.833 82.5 71.5s71.833 25 116.5 25c48 0 88.667 -9 122 -27s60.5 -43 81.5 -75s36.333 -70.333 46 -115s14.5 -93.667 14.5 -147c0 -114 -21.833 -203.167 -65.5 -267.5
s-109.834 -96.5 -198.501 -96.5c-48 0 -88.833 9 -122.5 27s-61 43 -82 75s-36.167 70.333 -45.5 115s-14 93.667 -14 147zM180.001 350c0 -34 1.50195 -65.665 4.50195 -94.998s8.66699 -54.833 17 -76.5s20.333 -38.834 36 -51.501s36.5 -19 62.5 -19
c23.333 0 42.666 4.83301 57.999 14.5s27.666 24.5 36.999 44.5s15.833 45.167 19.5 75.5s5.5 66.166 5.5 107.499c0 32.667 -1.16699 63.667 -3.5 93s-7.66602 55 -15.999 77s-20.5 39.5 -36.5 52.5s-37.333 19.5 -64 19.5c-46.667 0 -78.334 -20.333 -95.001 -61
s-25 -101 -25 -181zM110.003 800.002c21.333 23.333 41.833 39.3311 61.5 47.998s39.167 13 58.5 13c14.667 0 29.334 -1.83301 44.001 -5.5s28.834 -7.66699 42.501 -12l40.5 -12.5c13.333 -4 26 -6 38 -6c10.667 0 21 1.83301 31 5.5s19.667 10.167 29 19.5l25 -67
c-18.667 -17.333 -36.834 -29.5 -54.501 -36.5s-34.834 -10.5 -51.501 -10.5c-15.333 0 -30 1.83301 -44 5.5s-27.833 7.83398 -41.5 12.501s-27.167 8.83398 -40.5 12.501s-26.333 5.5 -39 5.5s-25.167 -2.5 -37.5 -7.5s-24.833 -14.167 -37.5 -27.5z" />
    <glyph glyph-name="Odieresis" unicode="&#xd6;" 
d="M36 350c0 56.667 5.33398 107.667 16.001 153s27 83.5 49 114.5s49.5 54.833 82.5 71.5s71.833 25 116.5 25c48 0 88.667 -9 122 -27s60.5 -43 81.5 -75s36.333 -70.333 46 -115s14.5 -93.667 14.5 -147c0 -114 -21.833 -203.167 -65.5 -267.5
s-109.834 -96.5 -198.501 -96.5c-48 0 -88.833 9 -122.5 27s-61 43 -82 75s-36.167 70.333 -45.5 115s-14 93.667 -14 147zM180.001 350c0 -34 1.50195 -65.665 4.50195 -94.998s8.66699 -54.833 17 -76.5s20.333 -38.834 36 -51.501s36.5 -19 62.5 -19
c23.333 0 42.666 4.83301 57.999 14.5s27.666 24.5 36.999 44.5s15.833 45.167 19.5 75.5s5.5 66.166 5.5 107.499c0 32.667 -1.16699 63.667 -3.5 93s-7.66602 55 -15.999 77s-20.5 39.5 -36.5 52.5s-37.333 19.5 -64 19.5c-46.667 0 -78.334 -20.333 -95.001 -61
s-25 -101 -25 -181zM97.0029 805.002c0 18 6.33301 32.667 19 44s33 17 61 17s48.333 -5.66699 61 -17s19 -26 19 -44c0 -18.667 -6.33301 -33.334 -19 -44.001s-33 -16 -61 -16s-48.333 5.33301 -61 16s-19 25.334 -19 44.001zM343.003 805.002c0 18 6.33301 32.667 19 44
s33 17 61 17s48.333 -5.66699 61 -17s19 -26 19 -44c0 -18.667 -6.33301 -33.334 -19 -44.001s-33 -16 -61 -16s-48.333 5.33301 -61 16s-19 25.334 -19 44.001z" />
    <glyph glyph-name="multiply" unicode="&#xd7;" 
d="M170 547l131 -130l130 130l79 -81l-130 -127l130 -129l-79 -82l-130 131l-132 -132l-79 81l131 131l-129 127z" />
    <glyph glyph-name="Oslash" unicode="&#xd8;" 
d="M151 350c0 -24 1.16797 -45.833 3.50098 -65.5s6.16602 -38.5 11.499 -56.5l212 331c-20 22 -46 33 -78 33c-48.667 0 -85.667 -19.5 -111 -58.5s-38 -100.167 -38 -183.5zM449.001 350c0 22 -1 42.168 -3 60.501s-5.66699 36.166 -11 53.499l-208 -329
c8 -8 18.333 -14.5 31 -19.5s26.667 -7.5 42 -7.5c48.667 0 85.667 19 111 57s38 99.667 38 185zM79.001 91.001c-24.667 32 -42.166 69.333 -52.499 112s-15.5 91.667 -15.5 147c0 116.667 24.333 206.5 73 269.5s120.667 94.5 216 94.5c30 0 57.667 -4 83 -12
s47 -18.667 65 -32l29 45l85 -50l-39 -62c23.333 -32 40.166 -68.833 50.499 -110.5s15.5 -89.167 15.5 -142.5c0 -116.667 -24.5 -206.5 -73.5 -269.5s-120.833 -94.5 -215.5 -94.5c-29.333 0 -56.333 3.5 -81 10.5s-45.667 16.167 -63 27.5l-24 -38l-86 53z" />
    <glyph glyph-name="Ugrave" unicode="&#xd9;" 
d="M420 700l130.002 0.000976562v-448c0 -45.333 -6 -84.5 -18 -117.5s-28.833 -60.333 -50.5 -82s-47.5 -37.834 -77.5 -48.501s-63 -16 -99 -16c-86.667 0 -150.834 21 -192.501 63s-62.5 103.333 -62.5 184v465h137v-438c0 -53.333 9.66699 -92 29 -116
s49.666 -36 90.999 -36c40 0 68.833 12.833 86.5 38.5s26.5 63.5 26.5 113.5v438zM382.002 752.001h-105l-158 88v30h159z" />
    <glyph glyph-name="Uacute" unicode="&#xda;" 
d="M420 700l130.002 0.000976562v-448c0 -45.333 -6 -84.5 -18 -117.5s-28.833 -60.333 -50.5 -82s-47.5 -37.834 -77.5 -48.501s-63 -16 -99 -16c-86.667 0 -150.834 21 -192.501 63s-62.5 103.333 -62.5 184v465h137v-438c0 -53.333 9.66699 -92 29 -116
s49.666 -36 90.999 -36c40 0 68.833 12.833 86.5 38.5s26.5 63.5 26.5 113.5v438zM351.002 870.001h159v-30l-160 -88h-103z" />
    <glyph glyph-name="Ucircumflex" unicode="&#xdb;" 
d="M420 700l130.002 0.000976562v-448c0 -45.333 -6 -84.5 -18 -117.5s-28.833 -60.333 -50.5 -82s-47.5 -37.834 -77.5 -48.501s-63 -16 -99 -16c-86.667 0 -150.834 21 -192.501 63s-62.5 103.333 -62.5 184v465h137v-438c0 -53.333 9.66699 -92 29 -116
s49.666 -36 90.999 -36c40 0 68.833 12.833 86.5 38.5s26.5 63.5 26.5 113.5v438zM509.002 737.001h-136l-73 61l-68 -61h-141l155 133h102z" />
    <glyph glyph-name="Udieresis" unicode="&#xdc;" 
d="M420 700l130.002 0.000976562v-448c0 -45.333 -6 -84.5 -18 -117.5s-28.833 -60.333 -50.5 -82s-47.5 -37.834 -77.5 -48.501s-63 -16 -99 -16c-86.667 0 -150.834 21 -192.501 63s-62.5 103.333 -62.5 184v465h137v-438c0 -53.333 9.66699 -92 29 -116
s49.666 -36 90.999 -36c40 0 68.833 12.833 86.5 38.5s26.5 63.5 26.5 113.5v438zM97.002 805.001c0 18 6.33301 32.667 19 44s33 17 61 17s48.333 -5.66699 61 -17s19 -26 19 -44c0 -18.667 -6.33301 -33.334 -19 -44.001s-33 -16 -61 -16s-48.333 5.33301 -61 16
s-19 25.334 -19 44.001zM343.002 805.001c0 18 6.33301 32.667 19 44s33 17 61 17s48.333 -5.66699 61 -17s19 -26 19 -44c0 -18.667 -6.33301 -33.334 -19 -44.001s-33 -16 -61 -16s-48.333 5.33301 -61 16s-19 25.334 -19 44.001z" />
    <glyph glyph-name="Yacute" unicode="&#xdd;" 
d="M232 258l-226 442h163l135 -289h5l138 289h147l-225 -441v-259h-137v258zM330 870h159v-30l-160 -88h-103z" />
    <glyph glyph-name="Thorn" unicode="&#xde;" 
d="M56 700l137 -0.00195312v-72c9.33301 0.666992 18.666 1.16699 27.999 1.5s18.666 0.5 27.999 0.5c34.667 0 69.5 -2.83301 104.5 -8.5s66.5 -17 94.5 -34s50.833 -40.667 68.5 -71s26.5 -69.833 26.5 -118.5c0 -44 -7.66699 -81.167 -23 -111.5
s-35.666 -55.166 -60.999 -74.499s-54.166 -33.333 -86.499 -42s-65.833 -13 -100.5 -13h-16c-7.33301 0 -15 0.166992 -23 0.5s-15.833 0.833008 -23.5 1.5s-13.167 1.33398 -16.5 2.00098v-161h-137v700zM193 279.998c2.66699 -0.666992 6.66699 -1.33301 12 -2
s11 -1.16699 17 -1.5s11.833 -0.5 17.5 -0.5h12.5c18 0 35.833 1.66699 53.5 5s33.5 9.5 47.5 18.5s25.167 21.5 33.5 37.5s12.5 37 12.5 63c0 22 -4 40.167 -12 54.5s-18.5 25.833 -31.5 34.5s-27.833 14.667 -44.5 18s-33.667 5 -51 5c-13.333 0 -26 -0.5 -38 -1.5
s-21.667 -2.16699 -29 -3.5v-227z" />
    <glyph glyph-name="germandbls" unicode="&#xdf;" 
d="M379 537c0 8.66699 -2.33105 16.6699 -6.99805 24.0029s-11 13.833 -19 19.5s-17 10 -27 13s-20 4.5 -30 4.5c-32 0 -55.333 -7.66699 -70 -23s-22 -44.333 -22 -87v-488h-130v390h-69v110h69c0 38.667 5.33301 71.167 16 97.5s25.5 47.666 44.5 63.999
s41.667 28.166 68 35.499s55.166 11 86.499 11c34 0 64.5 -3.83301 91.5 -11.5s50 -18.5 69 -32.5s33.667 -30.833 44 -50.5s15.5 -41.5 15.5 -65.5c0 -26 -5.83301 -47 -17.5 -63s-24.667 -29.667 -39 -41l-39 -32c-11.667 -10 -17.5 -22.333 -17.5 -37
c0 -12 4.83301 -21.667 14.5 -29s22 -14.166 37 -20.499l48 -20c17 -7 33 -16.167 48 -27.5s27.333 -25.833 37 -43.5s14.5 -40.167 14.5 -67.5c0 -23.333 -3.66699 -45.833 -11 -67.5s-18.833 -41 -34.5 -58s-35.334 -30.5 -59.001 -40.5s-51.5 -15 -83.5 -15
c-31.333 0 -60.166 3.83301 -86.499 11.5s-48.833 17.167 -67.5 28.5l35 97c15.333 -8.66699 30.666 -16.334 45.999 -23.001s36 -10 62 -10c20 0 36.5 6.83301 49.5 20.5s19.5 30.167 19.5 49.5c0 14 -4.83301 25.333 -14.5 34s-22 16.5 -37 23.5s-31 13.833 -48 20.5
s-33 15.167 -48 25.5s-27.333 23.166 -37 38.499s-14.5 35 -14.5 59c0 28.667 5.83301 51 17.5 67s24.667 29.5 39 40.5l39 30.5c11.667 9.33301 17.5 22 17.5 38z" />
    <glyph glyph-name="agrave" unicode="&#xe0;" 
d="M90 466c26.667 12 57.501 22.3301 92.501 30.9971s76.5 13 124.5 13c34.667 0 64.167 -4.16699 88.5 -12.5s44 -20.166 59 -35.499s25.833 -33.666 32.5 -54.999s10 -45.333 10 -72c0 -34 -1.16699 -63 -3.5 -87s-3.5 -45.333 -3.5 -64c0 -14 0.666992 -29.667 2 -47
c1.33301 -9.33301 2.33301 -18.333 3 -27h65v-110h-166l-13 68h-5c-13.333 -20.667 -32.333 -38.5 -57 -53.5s-58 -22.5 -100 -22.5c-50 0 -89.667 13.333 -119 40s-44 62 -44 106c0 28 5.16699 52.167 15.5 72.5s25.333 37 45 50s43.334 22.667 71.001 29
s58.5 9.5 92.5 9.5c12 0 24.667 -0.666992 38 -2s29.666 -2.66602 48.999 -3.99902c1.33301 6.66699 2 13.334 2 20.001v19c0 25.333 -7.33301 43.5 -22 54.5s-36.334 16.5 -65.001 16.5c-34 0 -64.667 -4.33301 -92 -13s-50.333 -17.334 -69 -26.001zM261.001 98.9971
c32 0 56 5.83301 72 17.5s27.667 24.167 35 37.5v60c-6.66699 1.33301 -16.667 2.83301 -30 4.5s-27.666 2.5 -42.999 2.5c-12.667 0 -25.334 -1.16699 -38.001 -3.5s-24 -6 -34 -11s-18 -11.5 -24 -19.5s-9 -17.667 -9 -29c0 -18.667 5.5 -33.167 16.5 -43.5
s29.167 -15.5 54.5 -15.5zM369.001 565.997h-72l-152 154h164z" />
    <glyph glyph-name="aacute" unicode="&#xe1;" 
d="M90 466c26.667 12 57.501 22.3301 92.501 30.9971s76.5 13 124.5 13c34.667 0 64.167 -4.16699 88.5 -12.5s44 -20.166 59 -35.499s25.833 -33.666 32.5 -54.999s10 -45.333 10 -72c0 -34 -1.16699 -63 -3.5 -87s-3.5 -45.333 -3.5 -64c0 -14 0.666992 -29.667 2 -47
c1.33301 -9.33301 2.33301 -18.333 3 -27h65v-110h-166l-13 68h-5c-13.333 -20.667 -32.333 -38.5 -57 -53.5s-58 -22.5 -100 -22.5c-50 0 -89.667 13.333 -119 40s-44 62 -44 106c0 28 5.16699 52.167 15.5 72.5s25.333 37 45 50s43.334 22.667 71.001 29
s58.5 9.5 92.5 9.5c12 0 24.667 -0.666992 38 -2s29.666 -2.66602 48.999 -3.99902c1.33301 6.66699 2 13.334 2 20.001v19c0 25.333 -7.33301 43.5 -22 54.5s-36.334 16.5 -65.001 16.5c-34 0 -64.667 -4.33301 -92 -13s-50.333 -17.334 -69 -26.001zM261.001 98.9971
c32 0 56 5.83301 72 17.5s27.667 24.167 35 37.5v60c-6.66699 1.33301 -16.667 2.83301 -30 4.5s-27.666 2.5 -42.999 2.5c-12.667 0 -25.334 -1.16699 -38.001 -3.5s-24 -6 -34 -11s-18 -11.5 -24 -19.5s-9 -17.667 -9 -29c0 -18.667 5.5 -33.167 16.5 -43.5
s29.167 -15.5 54.5 -15.5zM298.001 719.997h158l-137 -154h-80z" />
    <glyph glyph-name="acircumflex" unicode="&#xe2;" 
d="M90 466c26.667 12 57.501 22.3301 92.501 30.9971s76.5 13 124.5 13c34.667 0 64.167 -4.16699 88.5 -12.5s44 -20.166 59 -35.499s25.833 -33.666 32.5 -54.999s10 -45.333 10 -72c0 -34 -1.16699 -63 -3.5 -87s-3.5 -45.333 -3.5 -64c0 -14 0.666992 -29.667 2 -47
c1.33301 -9.33301 2.33301 -18.333 3 -27h65v-110h-166l-13 68h-5c-13.333 -20.667 -32.333 -38.5 -57 -53.5s-58 -22.5 -100 -22.5c-50 0 -89.667 13.333 -119 40s-44 62 -44 106c0 28 5.16699 52.167 15.5 72.5s25.333 37 45 50s43.334 22.667 71.001 29
s58.5 9.5 92.5 9.5c12 0 24.667 -0.666992 38 -2s29.666 -2.66602 48.999 -3.99902c1.33301 6.66699 2 13.334 2 20.001v19c0 25.333 -7.33301 43.5 -22 54.5s-36.334 16.5 -65.001 16.5c-34 0 -64.667 -4.33301 -92 -13s-50.333 -17.334 -69 -26.001zM261.001 98.9971
c32 0 56 5.83301 72 17.5s27.667 24.167 35 37.5v60c-6.66699 1.33301 -16.667 2.83301 -30 4.5s-27.666 2.5 -42.999 2.5c-12.667 0 -25.334 -1.16699 -38.001 -3.5s-24 -6 -34 -11s-18 -11.5 -24 -19.5s-9 -17.667 -9 -29c0 -18.667 5.5 -33.167 16.5 -43.5
s29.167 -15.5 54.5 -15.5zM262.001 731.997h86l111 -182h-103l-55 94l-63 -94h-99z" />
    <glyph glyph-name="atilde" unicode="&#xe3;" 
d="M90 466c26.667 12 57.501 22.3301 92.501 30.9971s76.5 13 124.5 13c34.667 0 64.167 -4.16699 88.5 -12.5s44 -20.166 59 -35.499s25.833 -33.666 32.5 -54.999s10 -45.333 10 -72c0 -34 -1.16699 -63 -3.5 -87s-3.5 -45.333 -3.5 -64c0 -14 0.666992 -29.667 2 -47
c1.33301 -9.33301 2.33301 -18.333 3 -27h65v-110h-166l-13 68h-5c-13.333 -20.667 -32.333 -38.5 -57 -53.5s-58 -22.5 -100 -22.5c-50 0 -89.667 13.333 -119 40s-44 62 -44 106c0 28 5.16699 52.167 15.5 72.5s25.333 37 45 50s43.334 22.667 71.001 29
s58.5 9.5 92.5 9.5c12 0 24.667 -0.666992 38 -2s29.666 -2.66602 48.999 -3.99902c1.33301 6.66699 2 13.334 2 20.001v19c0 25.333 -7.33301 43.5 -22 54.5s-36.334 16.5 -65.001 16.5c-34 0 -64.667 -4.33301 -92 -13s-50.333 -17.334 -69 -26.001zM261.001 98.9971
c32 0 56 5.83301 72 17.5s27.667 24.167 35 37.5v60c-6.66699 1.33301 -16.667 2.83301 -30 4.5s-27.666 2.5 -42.999 2.5c-12.667 0 -25.334 -1.16699 -38.001 -3.5s-24 -6 -34 -11s-18 -11.5 -24 -19.5s-9 -17.667 -9 -29c0 -18.667 5.5 -33.167 16.5 -43.5
s29.167 -15.5 54.5 -15.5zM130.001 657.997c20.667 24.667 39.8311 41.6699 57.498 51.0029s34.5 14 50.5 14c13.333 0 26.166 -2.33301 38.499 -7s24.5 -9.66699 36.5 -15l35 -15c11.333 -4.66699 23 -6.33398 35 -5.00098c9.33301 -1.33301 18.833 0 28.5 4
s19.834 11 30.501 21l20 -70c-19.333 -21.333 -37.166 -36 -53.499 -44s-32.166 -12 -47.499 -12c-13.333 0 -26.333 2.16699 -39 6.5s-25 9.16602 -37 14.499s-24 10.166 -36 14.499s-24 6.5 -36 6.5c-10 0 -20.333 -2.16699 -31 -6.5s-21.667 -11.833 -33 -22.5z" />
    <glyph glyph-name="adieresis" unicode="&#xe4;" 
d="M90 466c26.667 12 57.501 22.3301 92.501 30.9971s76.5 13 124.5 13c34.667 0 64.167 -4.16699 88.5 -12.5s44 -20.166 59 -35.499s25.833 -33.666 32.5 -54.999s10 -45.333 10 -72c0 -34 -1.16699 -63 -3.5 -87s-3.5 -45.333 -3.5 -64c0 -14 0.666992 -29.667 2 -47
c1.33301 -9.33301 2.33301 -18.333 3 -27h65v-110h-166l-13 68h-5c-13.333 -20.667 -32.333 -38.5 -57 -53.5s-58 -22.5 -100 -22.5c-50 0 -89.667 13.333 -119 40s-44 62 -44 106c0 28 5.16699 52.167 15.5 72.5s25.333 37 45 50s43.334 22.667 71.001 29
s58.5 9.5 92.5 9.5c12 0 24.667 -0.666992 38 -2s29.666 -2.66602 48.999 -3.99902c1.33301 6.66699 2 13.334 2 20.001v19c0 25.333 -7.33301 43.5 -22 54.5s-36.334 16.5 -65.001 16.5c-34 0 -64.667 -4.33301 -92 -13s-50.333 -17.334 -69 -26.001zM261.001 98.9971
c32 0 56 5.83301 72 17.5s27.667 24.167 35 37.5v60c-6.66699 1.33301 -16.667 2.83301 -30 4.5s-27.666 2.5 -42.999 2.5c-12.667 0 -25.334 -1.16699 -38.001 -3.5s-24 -6 -34 -11s-18 -11.5 -24 -19.5s-9 -17.667 -9 -29c0 -18.667 5.5 -33.167 16.5 -43.5
s29.167 -15.5 54.5 -15.5zM89.001 645.997c0 22.667 6.83301 40.834 20.5 54.501s32.167 20.5 55.5 20.5c22.667 0 40.667 -6.83301 54 -20.5s20 -31.834 20 -54.501c0 -21.333 -6.66699 -38.833 -20 -52.5s-31.333 -20.5 -54 -20.5c-23.333 0 -41.833 6.83301 -55.5 20.5
s-20.5 31.167 -20.5 52.5zM347.001 645.997c0 22.667 6.66699 40.834 20 54.501s31.333 20.5 54 20.5s41 -6.83301 55 -20.5s21 -31.834 21 -54.501c0 -21.333 -7 -38.833 -21 -52.5s-32.333 -20.5 -55 -20.5s-40.667 6.83301 -54 20.5s-20 31.167 -20 52.5z" />
    <glyph glyph-name="aring" unicode="&#xe5;" 
d="M90 466c26.667 12 57.501 22.3301 92.501 30.9971s76.5 13 124.5 13c34.667 0 64.167 -4.16699 88.5 -12.5s44 -20.166 59 -35.499s25.833 -33.666 32.5 -54.999s10 -45.333 10 -72c0 -34 -1.16699 -63 -3.5 -87s-3.5 -45.333 -3.5 -64c0 -14 0.666992 -29.667 2 -47
c1.33301 -9.33301 2.33301 -18.333 3 -27h65v-110h-166l-13 68h-5c-13.333 -20.667 -32.333 -38.5 -57 -53.5s-58 -22.5 -100 -22.5c-50 0 -89.667 13.333 -119 40s-44 62 -44 106c0 28 5.16699 52.167 15.5 72.5s25.333 37 45 50s43.334 22.667 71.001 29
s58.5 9.5 92.5 9.5c12 0 24.667 -0.666992 38 -2s29.666 -2.66602 48.999 -3.99902c1.33301 6.66699 2 13.334 2 20.001v19c0 25.333 -7.33301 43.5 -22 54.5s-36.334 16.5 -65.001 16.5c-34 0 -64.667 -4.33301 -92 -13s-50.333 -17.334 -69 -26.001zM261.001 98.9971
c32 0 56 5.83301 72 17.5s27.667 24.167 35 37.5v60c-6.66699 1.33301 -16.667 2.83301 -30 4.5s-27.666 2.5 -42.999 2.5c-12.667 0 -25.334 -1.16699 -38.001 -3.5s-24 -6 -34 -11s-18 -11.5 -24 -19.5s-9 -17.667 -9 -29c0 -18.667 5.5 -33.167 16.5 -43.5
s29.167 -15.5 54.5 -15.5zM176.001 646.997c0 28 9.5 50.999 28.5 68.999s46.5 27 82.5 27c34 0 61 -8.16699 81 -24.5s30 -40.166 30 -71.499c0 -26 -9.83301 -48.167 -29.5 -66.5s-46.834 -27.5 -81.501 -27.5c-35.333 0 -62.666 8.5 -81.999 25.5s-29 39.833 -29 68.5z
M248.001 646.996c0 -10.667 4.00195 -18.832 12.002 -24.499s17 -8.5 27 -8.5c11.333 0 20.666 2.66699 27.999 8s11 13.666 11 24.999s-3.83301 19.833 -11.5 25.5s-16.834 8.5 -27.501 8.5c-10 0 -19 -2.66699 -27 -8s-12 -14 -12 -26z" />
    <glyph glyph-name="ae" unicode="&#xe6;" 
d="M179 100c27.333 0 44.667 11.668 52 35.001v90c-3.33301 0.666992 -6.33301 1.16699 -9 1.5s-5.66699 0.5 -9 0.5c-19.333 -0.666992 -35.5 -5.83398 -48.5 -15.501s-19.5 -27.5 -19.5 -53.5c0 -38.667 11.333 -58 34 -58zM257.001 62.001
c-11.333 -22.667 -26.1709 -40 -44.5039 -52s-42.5 -18 -72.5 -18c-17.333 0 -33.666 3.66699 -48.999 11s-28.666 17.5 -39.999 30.5s-20.166 28.5 -26.499 46.5s-9.5 38 -9.5 60c0 27.333 4.33301 51 13 71s21 36.667 37 50s35 23.333 57 30s46 10 72 10h15
c5.33301 0 10.333 -0.333008 15 -1c0.666992 5.33301 1 10.666 1 15.999v15c0 28 -5 46.833 -15 56.5s-23.667 14.5 -41 14.5c-6 0 -13.333 -0.833008 -22 -2.5s-17.5 -3.83398 -26.5 -6.50098s-18 -6 -27 -10s-16.833 -8 -23.5 -12l-33 96
c9.33301 6.66699 20.333 12.834 33 18.501s26.334 10.167 41.001 13.5s29.5 6 44.5 8s29.5 3 43.5 3c22.667 0 44.334 -4.16699 65.001 -12.5s35.667 -21.833 45 -40.5c23.333 38 57.666 57 102.999 57c19.333 0 38.333 -3.33301 57 -10s35.5 -17.5 50.5 -32.5
s27.167 -34.833 36.5 -59.5s14 -54.667 14 -90c0 -19.333 -1 -38.166 -3 -56.499s-4.33301 -35.166 -7 -50.499h-211c0.666992 -45.333 8.16699 -77 22.5 -95s33.166 -27 56.499 -27c8 0 16.667 0.666992 26 2s18.333 3.16602 27 5.49902s16.667 5 24 8s13 5.83301 17 8.5
l36 -86c-7.33301 -6 -16.5 -11.5 -27.5 -16.5s-23.167 -9.5 -36.5 -13.5s-27.666 -7.16699 -42.999 -9.5s-30.333 -3.5 -45 -3.5c-32 0 -60.833 6 -86.5 18s-45.167 30.667 -58.5 56h-4zM408.996 410.001c-18.667 0 -32.833 -9.33203 -42.5 -27.999
s-15.167 -48.334 -16.5 -89.001h101c0 3.33301 0.166992 7.33301 0.5 12s0.5 8.66699 0.5 12c0 30 -3.5 53 -10.5 69s-17.833 24 -32.5 24z" />
    <glyph glyph-name="ccedilla" unicode="&#xe7;" 
d="M546 48c-27.333 -20.667 -59.3311 -36.334 -95.998 -47.001c-26 -6.66699 -53 -11.334 -81 -14.001l-17 -30c27.333 -2.66699 48.833 -9.83398 64.5 -21.501s23.5 -29.5 23.5 -53.5c0 -15.333 -3.83301 -28.666 -11.5 -39.999s-18.167 -20.833 -31.5 -28.5
s-29 -13.5 -47 -17.5s-37.333 -6 -58 -6s-42 2 -64 6l9 48c4.66699 -0.666992 9 -1 13 -1h11c25.333 0 41.666 3 48.999 9s11 13 11 21c0 18.667 -28.667 29.334 -86 32.001l50 84c-23.333 3.33301 -45.333 8.66602 -66 15.999c-33.333 12.667 -61.5 30.5 -84.5 53.5
s-40.5 50.833 -52.5 83.5s-18 68.667 -18 108c0 42 7 79.333 21 112s33.5 60.334 58.5 83.001s54.5 39.834 88.5 51.501s71 17.5 111 17.5c37.333 0 72.333 -4.33301 105 -13s57.667 -17 75 -25v-176h-110v92c-20.667 4.66699 -41.334 7 -62.001 7
c-18.667 0 -37.167 -2.83301 -55.5 -8.5s-34.666 -14.667 -48.999 -27s-26 -27.833 -35 -46.5s-13.5 -41 -13.5 -67c0 -21.333 3.66699 -41 11 -59s17.666 -33.667 30.999 -47s29.833 -23.833 49.5 -31.5s41.5 -11.5 65.5 -11.5c38 0 69.167 5.33301 93.5 16
s42.5 20 54.5 28z" />
    <glyph glyph-name="egrave" unicode="&#xe8;" 
d="M534 53c-8.66699 -8 -19.834 -15.832 -33.501 -23.499s-29.667 -14.834 -48 -21.501s-38.5 -12 -60.5 -16s-45.333 -6 -70 -6c-42.667 0 -80.834 6 -114.501 18s-62.167 29.5 -85.5 52.5s-41.166 50.667 -53.499 83s-18.5 69.166 -18.5 110.499c0 44 7 82.5 21 115.5
s33.167 60.5 57.5 82.5s52.833 38.5 85.5 49.5s68 16.5 106 16.5c25.333 0 51.5 -3.33301 78.5 -10s51.833 -18.167 74.5 -34.5s41.167 -38.166 55.5 -65.499s21.5 -62 21.5 -104c0 -28.667 -3.33301 -59.667 -10 -93h-360c0.666992 -21.333 5.16699 -39.333 13.5 -54
s19.333 -26.667 33 -36s29.334 -16.166 47.001 -20.499s36.5 -6.5 56.5 -6.5c40 0 72.833 4.66699 98.5 14s46.5 20.666 62.5 33.999zM318 410.001c-17.333 0 -33.6689 -2.33301 -49.002 -7s-29.166 -11.5 -41.499 -20.5s-22.5 -20.167 -30.5 -33.5s-12.667 -28.333 -14 -45
h246c0 32.667 -9.16699 58.5 -27.5 77.5s-46.166 28.5 -83.499 28.5zM376.997 566.001h-72l-152 154h164z" />
    <glyph glyph-name="eacute" unicode="&#xe9;" 
d="M534 53c-8.66699 -8 -19.834 -15.832 -33.501 -23.499s-29.667 -14.834 -48 -21.501s-38.5 -12 -60.5 -16s-45.333 -6 -70 -6c-42.667 0 -80.834 6 -114.501 18s-62.167 29.5 -85.5 52.5s-41.166 50.667 -53.499 83s-18.5 69.166 -18.5 110.499c0 44 7 82.5 21 115.5
s33.167 60.5 57.5 82.5s52.833 38.5 85.5 49.5s68 16.5 106 16.5c25.333 0 51.5 -3.33301 78.5 -10s51.833 -18.167 74.5 -34.5s41.167 -38.166 55.5 -65.499s21.5 -62 21.5 -104c0 -28.667 -3.33301 -59.667 -10 -93h-360c0.666992 -21.333 5.16699 -39.333 13.5 -54
s19.333 -26.667 33 -36s29.334 -16.166 47.001 -20.499s36.5 -6.5 56.5 -6.5c40 0 72.833 4.66699 98.5 14s46.5 20.666 62.5 33.999zM318 410.001c-17.333 0 -33.6689 -2.33301 -49.002 -7s-29.166 -11.5 -41.499 -20.5s-22.5 -20.167 -30.5 -33.5s-12.667 -28.333 -14 -45
h246c0 32.667 -9.16699 58.5 -27.5 77.5s-46.166 28.5 -83.499 28.5zM320.997 720.001h158l-137 -154h-80z" />
    <glyph glyph-name="ecircumflex" unicode="&#xea;" 
d="M534 53c-8.66699 -8 -19.834 -15.832 -33.501 -23.499s-29.667 -14.834 -48 -21.501s-38.5 -12 -60.5 -16s-45.333 -6 -70 -6c-42.667 0 -80.834 6 -114.501 18s-62.167 29.5 -85.5 52.5s-41.166 50.667 -53.499 83s-18.5 69.166 -18.5 110.499c0 44 7 82.5 21 115.5
s33.167 60.5 57.5 82.5s52.833 38.5 85.5 49.5s68 16.5 106 16.5c25.333 0 51.5 -3.33301 78.5 -10s51.833 -18.167 74.5 -34.5s41.167 -38.166 55.5 -65.499s21.5 -62 21.5 -104c0 -28.667 -3.33301 -59.667 -10 -93h-360c0.666992 -21.333 5.16699 -39.333 13.5 -54
s19.333 -26.667 33 -36s29.334 -16.166 47.001 -20.499s36.5 -6.5 56.5 -6.5c40 0 72.833 4.66699 98.5 14s46.5 20.666 62.5 33.999zM318 410.001c-17.333 0 -33.6689 -2.33301 -49.002 -7s-29.166 -11.5 -41.499 -20.5s-22.5 -20.167 -30.5 -33.5s-12.667 -28.333 -14 -45
h246c0 32.667 -9.16699 58.5 -27.5 77.5s-46.166 28.5 -83.499 28.5zM277.997 732.001h86l111 -182h-103l-55 94l-63 -94h-99z" />
    <glyph glyph-name="edieresis" unicode="&#xeb;" 
d="M534 53c-8.66699 -8 -19.834 -15.832 -33.501 -23.499s-29.667 -14.834 -48 -21.501s-38.5 -12 -60.5 -16s-45.333 -6 -70 -6c-42.667 0 -80.834 6 -114.501 18s-62.167 29.5 -85.5 52.5s-41.166 50.667 -53.499 83s-18.5 69.166 -18.5 110.499c0 44 7 82.5 21 115.5
s33.167 60.5 57.5 82.5s52.833 38.5 85.5 49.5s68 16.5 106 16.5c25.333 0 51.5 -3.33301 78.5 -10s51.833 -18.167 74.5 -34.5s41.167 -38.166 55.5 -65.499s21.5 -62 21.5 -104c0 -28.667 -3.33301 -59.667 -10 -93h-360c0.666992 -21.333 5.16699 -39.333 13.5 -54
s19.333 -26.667 33 -36s29.334 -16.166 47.001 -20.499s36.5 -6.5 56.5 -6.5c40 0 72.833 4.66699 98.5 14s46.5 20.666 62.5 33.999zM318 410.001c-17.333 0 -33.6689 -2.33301 -49.002 -7s-29.166 -11.5 -41.499 -20.5s-22.5 -20.167 -30.5 -33.5s-12.667 -28.333 -14 -45
h246c0 32.667 -9.16699 58.5 -27.5 77.5s-46.166 28.5 -83.499 28.5zM110.997 646.001c0 22.667 6.83301 40.834 20.5 54.501s32.167 20.5 55.5 20.5c22.667 0 40.667 -6.83301 54 -20.5s20 -31.834 20 -54.501c0 -21.333 -6.66699 -38.833 -20 -52.5
s-31.333 -20.5 -54 -20.5c-23.333 0 -41.833 6.83301 -55.5 20.5s-20.5 31.167 -20.5 52.5zM368.997 646.001c0 22.667 6.66699 40.834 20 54.501s31.333 20.5 54 20.5s41 -6.83301 55 -20.5s21 -31.834 21 -54.501c0 -21.333 -7 -38.833 -21 -52.5s-32.333 -20.5 -55 -20.5
s-40.667 6.83301 -54 20.5s-20 31.167 -20 52.5z" />
    <glyph glyph-name="igrave" unicode="&#xec;" 
d="M59 110h176v280h-176v110h306v-390h185v-110h-491v110zM359 566h-72l-152 154h164z" />
    <glyph glyph-name="iacute" unicode="&#xed;" 
d="M59 110h176v280h-176v110h306v-390h185v-110h-491v110zM289 720h158l-137 -154h-80z" />
    <glyph glyph-name="icircumflex" unicode="&#xee;" 
d="M59 110h176v280h-176v110h306v-390h185v-110h-491v110zM258 732h86l111 -182h-103l-55 94l-63 -94h-99z" />
    <glyph glyph-name="idieresis" unicode="&#xef;" 
d="M59 110h176v280h-176v110h306v-390h185v-110h-491v110zM96 646c0 22.667 6.83301 40.834 20.5 54.501s32.167 20.5 55.5 20.5c22.667 0 40.667 -6.83301 54 -20.5s20 -31.834 20 -54.501c0 -21.333 -6.66699 -38.833 -20 -52.5s-31.333 -20.5 -54 -20.5
c-23.333 0 -41.833 6.83301 -55.5 20.5s-20.5 31.167 -20.5 52.5zM354 646c0 22.667 6.66699 40.834 20 54.501s31.333 20.5 54 20.5s41 -6.83301 55 -20.5s21 -31.834 21 -54.501c0 -21.333 -7 -38.833 -21 -52.5s-32.333 -20.5 -55 -20.5s-40.667 6.83301 -54 20.5
s-20 31.167 -20 52.5z" />
    <glyph glyph-name="eth" unicode="&#xf0;" 
d="M215 584l43.9971 29.998c-11.333 4.66699 -22.833 8.83398 -34.5 12.501s-23.167 6.5 -34.5 8.5l52 80c14.667 -4.66699 30.834 -10.167 48.501 -16.5s36.167 -14.833 55.5 -25.5l53 36l42 -55l-33 -22c18 -15.333 36.5 -33.166 55.5 -53.499s36 -44 51 -71
s27.333 -57.5 37 -91.5s14.5 -72 14.5 -114c0 -54 -7 -100.833 -21 -140.5s-33.167 -72.5 -57.5 -98.5s-52.833 -45.333 -85.5 -58s-67.334 -19 -104.001 -19c-39.333 0 -74.666 6.33301 -105.999 19s-57.833 30.5 -79.5 53.5s-38.334 50.333 -50.001 82
s-17.5 66.5 -17.5 104.5c0 36 6.16699 69.333 18.5 100s29.333 57.5 51 80.5s47.334 41 77.001 54s61.5 19.5 95.5 19.5c12.667 0 25.834 -1 39.501 -3s27 -4.66699 40 -8s24.833 -7.66602 35.5 -12.999s19.334 -11.333 26.001 -18c-10 24.667 -24.833 46.667 -44.5 66
s-39.167 36.666 -58.5 51.999l-67 -46zM170.997 242.998c0 -24 3.66504 -45.1699 10.998 -63.5029s17 -33.666 29 -45.999s25.833 -21.666 41.5 -27.999s32.167 -9.5 49.5 -9.5c18 0 35.5 3.5 52.5 10.5s32 17.833 45 32.5s23.333 33.334 31 56.001s11.5 49.667 11.5 81
c0 8.66699 -0.5 20 -1.5 34s-2.83301 25 -5.5 33c-8.66699 8.66699 -18.5 16 -29.5 22s-22.5 10.667 -34.5 14s-23.833 5.83301 -35.5 7.5s-22.5 2.5 -32.5 2.5c-20 0 -38.167 -3.66699 -54.5 -11s-30.166 -17.5 -41.499 -30.5s-20.166 -28.5 -26.499 -46.5
s-9.5 -37.333 -9.5 -58z" />
    <glyph glyph-name="ntilde" unicode="&#xf1;" 
d="M12 500l174.998 -0.00195312l15 -66h4c15.333 21.333 37.333 40 66 56s63 24 103 24c24.667 0 47.834 -3.33301 69.501 -10s40.167 -17.667 55.5 -33s27.5 -36.166 36.5 -62.499s13.5 -58.833 13.5 -97.5v-311h-130v284c0 40.667 -9.16699 70 -27.5 88s-41.5 27 -69.5 27
c-24.667 0 -47.167 -7.16699 -67.5 -21.5s-34.166 -32.166 -41.499 -53.499v-324h-130v390h-72v110zM141.998 657.998c20.667 24.667 39.8311 41.6699 57.498 51.0029s34.5 14 50.5 14c13.333 0 26.166 -2.33301 38.499 -7s24.5 -9.66699 36.5 -15l35 -15
c11.333 -4.66699 23 -6.33398 35 -5.00098c9.33301 -1.33301 18.833 0 28.5 4s19.834 11 30.501 21l20 -70c-19.333 -21.333 -37.166 -36 -53.499 -44s-32.166 -12 -47.499 -12c-13.333 0 -26.333 2.16699 -39 6.5s-25 9.16602 -37 14.499s-24 10.166 -36 14.499
s-24 6.5 -36 6.5c-10 0 -20.333 -2.16699 -31 -6.5s-21.667 -11.833 -33 -22.5z" />
    <glyph glyph-name="ograve" unicode="&#xf2;" 
d="M35 250c0 42 6.33301 79.333 19 112s30.667 60.334 54 83.001s51.166 39.834 83.499 51.501s68.5 17.5 108.5 17.5c42 0 79.5 -6.33301 112.5 -19s60.833 -30.5 83.5 -53.5s39.834 -50.833 51.501 -83.5s17.5 -68.667 17.5 -108c0 -42 -6.33301 -79.333 -19 -112
s-30.667 -60.334 -54 -83.001s-51.166 -39.834 -83.499 -51.501s-68.5 -17.5 -108.5 -17.5c-42 0 -79.5 6.33301 -112.5 19s-60.833 30.5 -83.5 53.5s-39.834 50.833 -51.501 83.5s-17.5 68.667 -17.5 108zM169 250c0 -22 3.00098 -42.333 9.00098 -61s14.667 -35 26 -49
s25 -24.833 41 -32.5s34.333 -11.5 55 -11.5c38.667 0 70.167 12.333 94.5 37s36.5 63.667 36.5 117c0 46 -11.333 83.167 -34 111.5s-55 42.5 -97 42.5c-18.667 0 -36 -2.83301 -52 -8.5s-29.833 -14.834 -41.5 -27.501s-20.834 -28.667 -27.501 -48
s-10 -42.666 -10 -69.999zM349.001 566h-72l-152 154h164z" />
    <glyph glyph-name="oacute" unicode="&#xf3;" 
d="M35 250c0 42 6.33301 79.333 19 112s30.667 60.334 54 83.001s51.166 39.834 83.499 51.501s68.5 17.5 108.5 17.5c42 0 79.5 -6.33301 112.5 -19s60.833 -30.5 83.5 -53.5s39.834 -50.833 51.501 -83.5s17.5 -68.667 17.5 -108c0 -42 -6.33301 -79.333 -19 -112
s-30.667 -60.334 -54 -83.001s-51.166 -39.834 -83.499 -51.501s-68.5 -17.5 -108.5 -17.5c-42 0 -79.5 6.33301 -112.5 19s-60.833 30.5 -83.5 53.5s-39.834 50.833 -51.501 83.5s-17.5 68.667 -17.5 108zM169 250c0 -22 3.00098 -42.333 9.00098 -61s14.667 -35 26 -49
s25 -24.833 41 -32.5s34.333 -11.5 55 -11.5c38.667 0 70.167 12.333 94.5 37s36.5 63.667 36.5 117c0 46 -11.333 83.167 -34 111.5s-55 42.5 -97 42.5c-18.667 0 -36 -2.83301 -52 -8.5s-29.833 -14.834 -41.5 -27.501s-20.834 -28.667 -27.501 -48
s-10 -42.666 -10 -69.999zM316.001 720h158l-137 -154h-80z" />
    <glyph glyph-name="ocircumflex" unicode="&#xf4;" 
d="M35 250c0 42 6.33301 79.333 19 112s30.667 60.334 54 83.001s51.166 39.834 83.499 51.501s68.5 17.5 108.5 17.5c42 0 79.5 -6.33301 112.5 -19s60.833 -30.5 83.5 -53.5s39.834 -50.833 51.501 -83.5s17.5 -68.667 17.5 -108c0 -42 -6.33301 -79.333 -19 -112
s-30.667 -60.334 -54 -83.001s-51.166 -39.834 -83.499 -51.501s-68.5 -17.5 -108.5 -17.5c-42 0 -79.5 6.33301 -112.5 19s-60.833 30.5 -83.5 53.5s-39.834 50.833 -51.501 83.5s-17.5 68.667 -17.5 108zM169 250c0 -22 3.00098 -42.333 9.00098 -61s14.667 -35 26 -49
s25 -24.833 41 -32.5s34.333 -11.5 55 -11.5c38.667 0 70.167 12.333 94.5 37s36.5 63.667 36.5 117c0 46 -11.333 83.167 -34 111.5s-55 42.5 -97 42.5c-18.667 0 -36 -2.83301 -52 -8.5s-29.833 -14.834 -41.5 -27.501s-20.834 -28.667 -27.501 -48
s-10 -42.666 -10 -69.999zM263.001 732h86l111 -182h-103l-55 94l-63 -94h-99z" />
    <glyph glyph-name="otilde" unicode="&#xf5;" 
d="M35 250c0 42 6.33301 79.333 19 112s30.667 60.334 54 83.001s51.166 39.834 83.499 51.501s68.5 17.5 108.5 17.5c42 0 79.5 -6.33301 112.5 -19s60.833 -30.5 83.5 -53.5s39.834 -50.833 51.501 -83.5s17.5 -68.667 17.5 -108c0 -42 -6.33301 -79.333 -19 -112
s-30.667 -60.334 -54 -83.001s-51.166 -39.834 -83.499 -51.501s-68.5 -17.5 -108.5 -17.5c-42 0 -79.5 6.33301 -112.5 19s-60.833 30.5 -83.5 53.5s-39.834 50.833 -51.501 83.5s-17.5 68.667 -17.5 108zM169 250c0 -22 3.00098 -42.333 9.00098 -61s14.667 -35 26 -49
s25 -24.833 41 -32.5s34.333 -11.5 55 -11.5c38.667 0 70.167 12.333 94.5 37s36.5 63.667 36.5 117c0 46 -11.333 83.167 -34 111.5s-55 42.5 -97 42.5c-18.667 0 -36 -2.83301 -52 -8.5s-29.833 -14.834 -41.5 -27.501s-20.834 -28.667 -27.501 -48
s-10 -42.666 -10 -69.999zM134.001 658c20.667 24.667 39.8311 41.6699 57.498 51.0029s34.5 14 50.5 14c13.333 0 26.166 -2.33301 38.499 -7s24.5 -9.66699 36.5 -15l35 -15c11.333 -4.66699 23 -6.33398 35 -5.00098c9.33301 -1.33301 18.833 0 28.5 4
s19.834 11 30.501 21l20 -70c-19.333 -21.333 -37.166 -36 -53.499 -44s-32.166 -12 -47.499 -12c-13.333 0 -26.333 2.16699 -39 6.5s-25 9.16602 -37 14.499s-24 10.166 -36 14.499s-24 6.5 -36 6.5c-10 0 -20.333 -2.16699 -31 -6.5s-21.667 -11.833 -33 -22.5z" />
    <glyph glyph-name="odieresis" unicode="&#xf6;" 
d="M35 250c0 42 6.33301 79.333 19 112s30.667 60.334 54 83.001s51.166 39.834 83.499 51.501s68.5 17.5 108.5 17.5c42 0 79.5 -6.33301 112.5 -19s60.833 -30.5 83.5 -53.5s39.834 -50.833 51.501 -83.5s17.5 -68.667 17.5 -108c0 -42 -6.33301 -79.333 -19 -112
s-30.667 -60.334 -54 -83.001s-51.166 -39.834 -83.499 -51.501s-68.5 -17.5 -108.5 -17.5c-42 0 -79.5 6.33301 -112.5 19s-60.833 30.5 -83.5 53.5s-39.834 50.833 -51.501 83.5s-17.5 68.667 -17.5 108zM169 250c0 -22 3.00098 -42.333 9.00098 -61s14.667 -35 26 -49
s25 -24.833 41 -32.5s34.333 -11.5 55 -11.5c38.667 0 70.167 12.333 94.5 37s36.5 63.667 36.5 117c0 46 -11.333 83.167 -34 111.5s-55 42.5 -97 42.5c-18.667 0 -36 -2.83301 -52 -8.5s-29.833 -14.834 -41.5 -27.501s-20.834 -28.667 -27.501 -48
s-10 -42.666 -10 -69.999zM96.001 646c0 22.667 6.83301 40.834 20.5 54.501s32.167 20.5 55.5 20.5c22.667 0 40.667 -6.83301 54 -20.5s20 -31.834 20 -54.501c0 -21.333 -6.66699 -38.833 -20 -52.5s-31.333 -20.5 -54 -20.5c-23.333 0 -41.833 6.83301 -55.5 20.5
s-20.5 31.167 -20.5 52.5zM354.001 646c0 22.667 6.66699 40.834 20 54.501s31.333 20.5 54 20.5s41 -6.83301 55 -20.5s21 -31.834 21 -54.501c0 -21.333 -7 -38.833 -21 -52.5s-32.333 -20.5 -55 -20.5s-40.667 6.83301 -54 20.5s-20 31.167 -20 52.5z" />
    <glyph glyph-name="divide" unicode="&#xf7;" 
d="M59 394h482v-112h-482v112zM213 537c0 25.333 8 45.166 24 59.499s36.667 21.5 62 21.5c26.667 0 47.834 -7.16699 63.501 -21.5s23.5 -34.166 23.5 -59.499s-7.83301 -45.333 -23.5 -60s-36.834 -22 -63.501 -22c-25.333 0 -46 7.33301 -62 22s-24 34.667 -24 60z
M213 140c0 25.333 8 45.166 24 59.499s36.667 21.5 62 21.5c26.667 0 47.834 -7.16699 63.501 -21.5s23.5 -34.166 23.5 -59.499s-7.83301 -45.333 -23.5 -60s-36.834 -22 -63.501 -22c-25.333 0 -46 7.33301 -62 22s-24 34.667 -24 60z" />
    <glyph glyph-name="oslash" unicode="&#xf8;" 
d="M35 250c0 42 6.33203 79.334 18.999 112.001s30.667 60.334 54 83.001s51.166 39.834 83.499 51.501s68.5 17.5 108.5 17.5c41.333 0 78.333 -6.33301 111 -19l34 46l80 -59l-29 -41c22.667 -22.667 39.834 -50.334 51.501 -83.001s17.5 -68.667 17.5 -108
c0 -42 -6.33301 -79.333 -19 -112s-30.667 -60.334 -54 -83.001s-51.166 -39.834 -83.499 -51.501s-68.5 -17.5 -108.5 -17.5c-42 0 -79.667 6.33301 -113 19l-6 2l-34 -47l-83 60l33 45c-19.333 22 -34.333 47.667 -45 77c-11.333 32.667 -17 68.667 -17 108z
M299.999 96.001c38.667 0 70.167 12.333 94.5 37s36.5 63.667 36.5 117c0 30.667 -5.33301 57.667 -16 81l-164 -227c14.667 -5.33301 31 -8 49 -8zM168.999 250.001c0 -22 3.00195 -42.333 9.00195 -61l3 -9l160 218c-12.667 4 -26.334 6 -41.001 6
c-18.667 0 -36 -2.83301 -52 -8.5s-29.833 -14.834 -41.5 -27.501s-20.834 -28.667 -27.501 -48s-10 -42.666 -10 -69.999z" />
    <glyph glyph-name="ugrave" unicode="&#xf9;" 
d="M330 500h185.999v-348v-42h76v-110h-158l-23 74h-4c-15.333 -25.333 -38.333 -46.333 -69 -63s-64.667 -25 -102 -25c-25.333 0 -48.5 3.33301 -69.5 10s-38.833 17.667 -53.5 33s-26 36 -34 62s-12 58.667 -12 98v201h-57v110h187v-284c0 -40.667 6.5 -70 19.5 -88
s33.5 -27 61.5 -27c24.667 0 46.834 7.33301 66.501 22s33.5 32.667 41.5 54v213h-56v110zM333.999 566h-72l-152 154h164z" />
    <glyph glyph-name="uacute" unicode="&#xfa;" 
d="M330 500h185.999v-348v-42h76v-110h-158l-23 74h-4c-15.333 -25.333 -38.333 -46.333 -69 -63s-64.667 -25 -102 -25c-25.333 0 -48.5 3.33301 -69.5 10s-38.833 17.667 -53.5 33s-26 36 -34 62s-12 58.667 -12 98v201h-57v110h187v-284c0 -40.667 6.5 -70 19.5 -88
s33.5 -27 61.5 -27c24.667 0 46.834 7.33301 66.501 22s33.5 32.667 41.5 54v213h-56v110zM295.999 720h158l-137 -154h-80z" />
    <glyph glyph-name="ucircumflex" unicode="&#xfb;" 
d="M330 500h185.999v-348v-42h76v-110h-158l-23 74h-4c-15.333 -25.333 -38.333 -46.333 -69 -63s-64.667 -25 -102 -25c-25.333 0 -48.5 3.33301 -69.5 10s-38.833 17.667 -53.5 33s-26 36 -34 62s-12 58.667 -12 98v201h-57v110h187v-284c0 -40.667 6.5 -70 19.5 -88
s33.5 -27 61.5 -27c24.667 0 46.834 7.33301 66.501 22s33.5 32.667 41.5 54v213h-56v110zM243.999 732h86l111 -182h-103l-55 94l-63 -94h-99z" />
    <glyph glyph-name="udieresis" unicode="&#xfc;" 
d="M330 500h185.999v-348v-42h76v-110h-158l-23 74h-4c-15.333 -25.333 -38.333 -46.333 -69 -63s-64.667 -25 -102 -25c-25.333 0 -48.5 3.33301 -69.5 10s-38.833 17.667 -53.5 33s-26 36 -34 62s-12 58.667 -12 98v201h-57v110h187v-284c0 -40.667 6.5 -70 19.5 -88
s33.5 -27 61.5 -27c24.667 0 46.834 7.33301 66.501 22s33.5 32.667 41.5 54v213h-56v110zM67.999 646c0 22.667 6.83301 40.834 20.5 54.501s32.167 20.5 55.5 20.5c22.667 0 40.667 -6.83301 54 -20.5s20 -31.834 20 -54.501c0 -21.333 -6.66699 -38.833 -20 -52.5
s-31.333 -20.5 -54 -20.5c-23.333 0 -41.833 6.83301 -55.5 20.5s-20.5 31.167 -20.5 52.5zM325.999 646c0 22.667 6.66699 40.834 20 54.501s31.333 20.5 54 20.5s41 -6.83301 55 -20.5s21 -31.834 21 -54.501c0 -21.333 -7 -38.833 -21 -52.5s-32.333 -20.5 -55 -20.5
s-40.667 6.83301 -54 20.5s-20 31.167 -20 52.5z" />
    <glyph glyph-name="yacute" unicode="&#xfd;" 
d="M301 141h37.999l97 359h134l-142 -451c-12.667 -37.333 -25 -71.5 -37 -102.5s-26 -57.833 -42 -80.5s-34.833 -40.167 -56.5 -52.5s-48.167 -18.5 -79.5 -18.5c-15.333 0 -29.833 2 -43.5 6s-26.167 8.83301 -37.5 14.5s-21.333 11.667 -30 18
s-15.667 12.166 -21 17.499l67 89c8.66699 -7.33301 19 -14.166 31 -20.499s23.333 -9.5 34 -9.5c20 0 35.833 7 47.5 21s22.834 37 33.501 69h-71l-208 500h141zM294.999 720h158l-137 -154h-80z" />
    <glyph glyph-name="thorn" unicode="&#xfe;" 
d="M0 700l204.997 0.00195312v-240c16 17.333 36.667 30.666 62 39.999s55 14 89 14c30.667 0 58.834 -4.83301 84.501 -14.5s47.834 -24.834 66.501 -45.501s33 -46.667 43 -78s15 -69 15 -113c0 -42.667 -5.5 -81.167 -16.5 -115.5s-27.333 -63.5 -49 -87.5
s-48 -42.333 -79 -55s-66.5 -19 -106.5 -19c-20.667 0 -40.667 1.5 -60 4.5s-35.666 7.83301 -48.999 14.5v-205h-130v790h-75v110zM317.997 404.002c-25.333 0 -48.5 -6.33398 -69.5 -19.001s-35.5 -31.667 -43.5 -57v-208c9.33301 -7.33301 22.833 -13.166 40.5 -17.499
s35.5 -6.5 53.5 -6.5c18.667 0 36 3.16699 52 9.5s30 16.5 42 30.5s21.333 31.667 28 53s10 47 10 77c0 44 -10.667 78 -32 102s-48.333 36 -81 36z" />
    <glyph glyph-name="ydieresis" unicode="&#xff;" 
d="M301 141h37.999l97 359h134l-142 -451c-12.667 -37.333 -25 -71.5 -37 -102.5s-26 -57.833 -42 -80.5s-34.833 -40.167 -56.5 -52.5s-48.167 -18.5 -79.5 -18.5c-15.333 0 -29.833 2 -43.5 6s-26.167 8.83301 -37.5 14.5s-21.333 11.667 -30 18
s-15.667 12.166 -21 17.499l67 89c8.66699 -7.33301 19 -14.166 31 -20.499s23.333 -9.5 34 -9.5c20 0 35.833 7 47.5 21s22.834 37 33.501 69h-71l-208 500h141zM100.999 646c0 22.667 6.83301 40.834 20.5 54.501s32.167 20.5 55.5 20.5
c22.667 0 40.667 -6.83301 54 -20.5s20 -31.834 20 -54.501c0 -21.333 -6.66699 -38.833 -20 -52.5s-31.333 -20.5 -54 -20.5c-23.333 0 -41.833 6.83301 -55.5 20.5s-20.5 31.167 -20.5 52.5zM358.999 646c0 22.667 6.66699 40.834 20 54.501s31.333 20.5 54 20.5
s41 -6.83301 55 -20.5s21 -31.834 21 -54.501c0 -21.333 -7 -38.833 -21 -52.5s-32.333 -20.5 -55 -20.5s-40.667 6.83301 -54 20.5s-20 31.167 -20 52.5z" />
    <glyph glyph-name="Amacron" unicode="&#x100;" 
d="M400 155h-209l-48 -155h-137l226 700h137l225 -700h-144zM223 265h150l-71 234h-9zM129 856h343v-89h-343v89z" />
    <glyph glyph-name="amacron" unicode="&#x101;" 
d="M90 466c26.667 12 57.501 22.3301 92.501 30.9971s76.5 13 124.5 13c34.667 0 64.167 -4.16699 88.5 -12.5s44 -20.166 59 -35.499s25.833 -33.666 32.5 -54.999s10 -45.333 10 -72c0 -34 -1.16699 -63 -3.5 -87s-3.5 -45.333 -3.5 -64c0 -14 0.666992 -29.667 2 -47
c1.33301 -9.33301 2.33301 -18.333 3 -27h65v-110h-166l-13 68h-5c-13.333 -20.667 -32.333 -38.5 -57 -53.5s-58 -22.5 -100 -22.5c-50 0 -89.667 13.333 -119 40s-44 62 -44 106c0 28 5.16699 52.167 15.5 72.5s25.333 37 45 50s43.334 22.667 71.001 29
s58.5 9.5 92.5 9.5c12 0 24.667 -0.666992 38 -2s29.666 -2.66602 48.999 -3.99902c1.33301 6.66699 2 13.334 2 20.001v19c0 25.333 -7.33301 43.5 -22 54.5s-36.334 16.5 -65.001 16.5c-34 0 -64.667 -4.33301 -92 -13s-50.333 -17.334 -69 -26.001zM261.001 98.9971
c32 0 56 5.83301 72 17.5s27.667 24.167 35 37.5v60c-6.66699 1.33301 -16.667 2.83301 -30 4.5s-27.666 2.5 -42.999 2.5c-12.667 0 -25.334 -1.16699 -38.001 -3.5s-24 -6 -34 -11s-18 -11.5 -24 -19.5s-9 -17.667 -9 -29c0 -18.667 5.5 -33.167 16.5 -43.5
s29.167 -15.5 54.5 -15.5zM137.001 657.997h323v-92h-323v92z" />
    <glyph glyph-name="Abreve" unicode="&#x102;" 
d="M400 155h-209l-48 -155h-137l226 700h137l225 -700h-144zM223 265h150l-71 234h-9zM162 885c13.333 -17.333 32.665 -30.667 57.998 -40s53.666 -14 84.999 -14c32 0 59.5 5 82.5 15s41.167 23 54.5 39l58 -45c-24.667 -36 -54 -61.667 -88 -77s-70 -23 -108 -23
c-18 0 -36.167 1.5 -54.5 4.5s-36.166 8.16699 -53.499 15.5s-34.166 17.5 -50.499 30.5s-31.166 29.5 -44.499 49.5z" />
    <glyph glyph-name="abreve" unicode="&#x103;" 
d="M90 466c26.667 12 57.501 22.3301 92.501 30.9971s76.5 13 124.5 13c34.667 0 64.167 -4.16699 88.5 -12.5s44 -20.166 59 -35.499s25.833 -33.666 32.5 -54.999s10 -45.333 10 -72c0 -34 -1.16699 -63 -3.5 -87s-3.5 -45.333 -3.5 -64c0 -14 0.666992 -29.667 2 -47
c1.33301 -9.33301 2.33301 -18.333 3 -27h65v-110h-166l-13 68h-5c-13.333 -20.667 -32.333 -38.5 -57 -53.5s-58 -22.5 -100 -22.5c-50 0 -89.667 13.333 -119 40s-44 62 -44 106c0 28 5.16699 52.167 15.5 72.5s25.333 37 45 50s43.334 22.667 71.001 29
s58.5 9.5 92.5 9.5c12 0 24.667 -0.666992 38 -2s29.666 -2.66602 48.999 -3.99902c1.33301 6.66699 2 13.334 2 20.001v19c0 25.333 -7.33301 43.5 -22 54.5s-36.334 16.5 -65.001 16.5c-34 0 -64.667 -4.33301 -92 -13s-50.333 -17.334 -69 -26.001zM261.001 98.9971
c32 0 56 5.83301 72 17.5s27.667 24.167 35 37.5v60c-6.66699 1.33301 -16.667 2.83301 -30 4.5s-27.666 2.5 -42.999 2.5c-12.667 0 -25.334 -1.16699 -38.001 -3.5s-24 -6 -34 -11s-18 -11.5 -24 -19.5s-9 -17.667 -9 -29c0 -18.667 5.5 -33.167 16.5 -43.5
s29.167 -15.5 54.5 -15.5zM189.001 719.997c11.333 -20 27.168 -34.833 47.501 -44.5s41.833 -14.5 64.5 -14.5s43.5 5 62.5 15s33.5 24.667 43.5 44l60 -27c-2 -16 -7.5 -31.833 -16.5 -47.5s-20.833 -29.5 -35.5 -41.5s-31.834 -21.667 -51.501 -29
s-40.834 -11 -63.501 -11c-44 0 -81.667 11.167 -113 33.5s-51.666 52.5 -60.999 90.5z" />
    <glyph glyph-name="Aogonek" unicode="&#x104;" 
d="M400 155l-208.998 0.00195312l-48 -155h-137l226 700h137l225 -700h-46c-38.667 -14.667 -58 -39 -58 -73c0 -12 3.66699 -22.167 11 -30.5s17.666 -12.5 30.999 -12.5c12 0 26 4 42 12l19 -62c-10 -8 -25.833 -15.833 -47.5 -23.5s-44.167 -11.5 -67.5 -11.5
c-37.333 0 -65.833 8.33301 -85.5 25s-29.5 38.667 -29.5 66c0 25.333 7.66699 47.166 23 65.499s36.666 33.166 63.999 44.499zM223.002 265.002h150l-71 234h-9z" />
    <glyph glyph-name="aogonek" unicode="&#x105;" 
d="M90 466c26.667 12 57.502 22.3311 92.502 30.998s76.5 13 124.5 13c34.667 0 64.167 -4.16699 88.5 -12.5s44 -20.166 59 -35.499s25.833 -33.666 32.5 -54.999s10 -45.333 10 -72c0 -34 -1.16699 -63 -3.5 -87s-3.5 -45.333 -3.5 -64c0 -14 0.666992 -29.667 2 -47
c1.33301 -9.33301 2.33301 -18.333 3 -27h65v-110h-28c-32 -15.333 -48 -38.333 -48 -69c0 -12 3.66699 -22.167 11 -30.5s17.666 -12.5 30.999 -12.5c12 0 26 4 42 12l19 -62c-10 -8 -25.833 -15.833 -47.5 -23.5s-44.167 -11.5 -67.5 -11.5
c-37.333 0 -65.833 8.33301 -85.5 25s-29.5 38.667 -29.5 66s9 50.666 27 69.999c13.333 14 30.333 26 51 36h-41l-13 68h-5c-13.333 -20.667 -32.333 -38.5 -57 -53.5s-58 -22.5 -100 -22.5c-50 0 -89.667 13.333 -119 40s-44 62 -44 106c0 28 5.16699 52.167 15.5 72.5
s25.333 37 45 50s43.334 22.667 71.001 29s58.5 9.5 92.5 9.5c12 0 24.667 -0.666992 38 -2s29.666 -2.66602 48.999 -3.99902c1.33301 6.66699 2 13.334 2 20.001v19c0 25.333 -7.33301 43.5 -22 54.5s-36.334 16.5 -65.001 16.5c-34 0 -64.667 -4.33301 -92 -13
s-50.333 -17.334 -69 -26.001zM261.002 98.998c32 0 56 5.83301 72 17.5s27.667 24.167 35 37.5v60c-6.66699 1.33301 -16.667 2.83301 -30 4.5s-27.666 2.5 -42.999 2.5c-12.667 0 -25.334 -1.16699 -38.001 -3.5s-24 -6 -34 -11s-18 -11.5 -24 -19.5s-9 -17.667 -9 -29
c0 -18.667 5.5 -33.167 16.5 -43.5s29.167 -15.5 54.5 -15.5z" />
    <glyph glyph-name="Cacute" unicode="&#x106;" 
d="M444 235l109.999 0.00195312v-200c-21.333 -15.333 -48.5 -27.333 -81.5 -36s-66.833 -13 -101.5 -13c-44 0 -85.833 6.5 -125.5 19.5s-74.5 34 -104.5 63s-54 66.667 -72 113s-27 102.5 -27 168.5c0 68.667 10.167 126.167 30.5 172.5s46.5 83.666 78.5 111.999
s67.667 48.666 107 60.999s78 18.5 116 18.5c40 0 73.833 -3.33301 101.5 -10s50.5 -14.334 68.5 -23.001v-208h-110v114c-20.667 3.33301 -42 5 -64 5c-26 0 -50.167 -4.83301 -72.5 -14.5s-41.833 -24.5 -58.5 -44.5s-29.667 -45.167 -39 -75.5s-14 -66.166 -14 -107.499
c0 -36 4.33301 -68.833 13 -98.5s21.334 -55.167 38.001 -76.5s37 -37.833 61 -49.5s51.333 -17.5 82 -17.5c22 0 43.333 2 64 6v121zM390.999 870.002h159v-30l-160 -88h-103z" />
    <glyph glyph-name="cacute" unicode="&#x107;" 
d="M546 48c-27.333 -20.667 -59.332 -36.1689 -95.999 -46.502s-75 -15.5 -115 -15.5c-43.333 0 -81.833 6.33301 -115.5 19s-62 30.5 -85 53.5s-40.5 50.833 -52.5 83.5s-18 68.667 -18 108c0 42 7 79.333 21 112s33.5 60.334 58.5 83.001s54.5 39.834 88.5 51.501
s71 17.5 111 17.5c37.333 0 72.333 -4.33301 105 -13s57.667 -17 75 -25v-176h-110v92c-20.667 4.66699 -41.334 7 -62.001 7c-18.667 0 -37.167 -2.83301 -55.5 -8.5s-34.666 -14.667 -48.999 -27s-26 -27.833 -35 -46.5s-13.5 -41 -13.5 -67c0 -21.333 3.66699 -41 11 -59
s17.666 -33.667 30.999 -47s29.833 -23.833 49.5 -31.5s41.5 -11.5 65.5 -11.5c38 0 69.167 5.33301 93.5 16s42.5 20 54.5 28zM348.001 719.998h158l-137 -154h-80z" />
    <glyph glyph-name="Ccircumflex" unicode="&#x108;" 
d="M444 235l109.999 0.00195312v-200c-21.333 -15.333 -48.5 -27.333 -81.5 -36s-66.833 -13 -101.5 -13c-44 0 -85.833 6.5 -125.5 19.5s-74.5 34 -104.5 63s-54 66.667 -72 113s-27 102.5 -27 168.5c0 68.667 10.167 126.167 30.5 172.5s46.5 83.666 78.5 111.999
s67.667 48.666 107 60.999s78 18.5 116 18.5c40 0 73.833 -3.33301 101.5 -10s50.5 -14.334 68.5 -23.001v-208h-110v114c-20.667 3.33301 -42 5 -64 5c-26 0 -50.167 -4.83301 -72.5 -14.5s-41.833 -24.5 -58.5 -44.5s-29.667 -45.167 -39 -75.5s-14 -66.166 -14 -107.499
c0 -36 4.33301 -68.833 13 -98.5s21.334 -55.167 38.001 -76.5s37 -37.833 61 -49.5s51.333 -17.5 82 -17.5c22 0 43.333 2 64 6v121zM555.999 737.002h-136l-73 61l-68 -61h-141l155 133h102z" />
    <glyph glyph-name="ccircumflex" unicode="&#x109;" 
d="M546 48c-27.333 -20.667 -59.332 -36.1689 -95.999 -46.502s-75 -15.5 -115 -15.5c-43.333 0 -81.833 6.33301 -115.5 19s-62 30.5 -85 53.5s-40.5 50.833 -52.5 83.5s-18 68.667 -18 108c0 42 7 79.333 21 112s33.5 60.334 58.5 83.001s54.5 39.834 88.5 51.501
s71 17.5 111 17.5c37.333 0 72.333 -4.33301 105 -13s57.667 -17 75 -25v-176h-110v92c-20.667 4.66699 -41.334 7 -62.001 7c-18.667 0 -37.167 -2.83301 -55.5 -8.5s-34.666 -14.667 -48.999 -27s-26 -27.833 -35 -46.5s-13.5 -41 -13.5 -67c0 -21.333 3.66699 -41 11 -59
s17.666 -33.667 30.999 -47s29.833 -23.833 49.5 -31.5s41.5 -11.5 65.5 -11.5c38 0 69.167 5.33301 93.5 16s42.5 20 54.5 28zM282.001 731.998h86l111 -182h-103l-55 94l-63 -94h-99z" />
    <glyph glyph-name="Ccaron" unicode="&#x10c;" 
d="M444 235l109.999 0.00195312v-200c-21.333 -15.333 -48.5 -27.333 -81.5 -36s-66.833 -13 -101.5 -13c-44 0 -85.833 6.5 -125.5 19.5s-74.5 34 -104.5 63s-54 66.667 -72 113s-27 102.5 -27 168.5c0 68.667 10.167 126.167 30.5 172.5s46.5 83.666 78.5 111.999
s67.667 48.666 107 60.999s78 18.5 116 18.5c40 0 73.833 -3.33301 101.5 -10s50.5 -14.334 68.5 -23.001v-208h-110v114c-20.667 3.33301 -42 5 -64 5c-26 0 -50.167 -4.83301 -72.5 -14.5s-41.833 -24.5 -58.5 -44.5s-29.667 -45.167 -39 -75.5s-14 -66.166 -14 -107.499
c0 -36 4.33301 -68.833 13 -98.5s21.334 -55.167 38.001 -76.5s37 -37.833 61 -49.5s51.333 -17.5 82 -17.5c22 0 43.333 2 64 6v121zM417.999 737.002h-102l-155 133h141l68 -61l73 61h136z" />
    <glyph glyph-name="ccaron" unicode="&#x10d;" 
d="M546 48c-27.333 -20.667 -59.332 -36.1689 -95.999 -46.502s-75 -15.5 -115 -15.5c-43.333 0 -81.833 6.33301 -115.5 19s-62 30.5 -85 53.5s-40.5 50.833 -52.5 83.5s-18 68.667 -18 108c0 42 7 79.333 21 112s33.5 60.334 58.5 83.001s54.5 39.834 88.5 51.501
s71 17.5 111 17.5c37.333 0 72.333 -4.33301 105 -13s57.667 -17 75 -25v-176h-110v92c-20.667 4.66699 -41.334 7 -62.001 7c-18.667 0 -37.167 -2.83301 -55.5 -8.5s-34.666 -14.667 -48.999 -27s-26 -27.833 -35 -46.5s-13.5 -41 -13.5 -67c0 -21.333 3.66699 -41 11 -59
s17.666 -33.667 30.999 -47s29.833 -23.833 49.5 -31.5s41.5 -11.5 65.5 -11.5c38 0 69.167 5.33301 93.5 16s42.5 20 54.5 28zM380.001 549.998h-91l-115 182h110l56 -94l62 94h101z" />
    <glyph glyph-name="Dcaron" unicode="&#x10e;" 
d="M50 700c6 0.666992 16.499 1.66699 31.499 3s32 2.5 51 3.5s38.667 1.83301 59 2.5s38.5 1 54.5 1c62 0 113.333 -9 154 -27s72.834 -42.833 96.501 -74.5s40.167 -69 49.5 -112s14 -89.833 14 -140.5c0 -46 -4.66699 -91 -14 -135s-26.166 -83.167 -50.499 -117.5
s-58 -62 -101 -83s-98.167 -31.5 -165.5 -31.5c-10.667 0 -24.334 0.333008 -41.001 1s-33.667 1.5 -51 2.5l-50 3c-16 1 -28.333 2.16699 -37 3.5v701zM250.999 588c-12.667 0 -24.998 -0.49707 -36.998 -1.49707s-21 -1.83301 -27 -2.5v-469
c2.66699 -0.666992 6.66699 -1.16699 12 -1.5l16.5 -1l16.5 -1c5.33301 -0.333008 9.66602 -0.5 12.999 -0.5c38.667 0 69.5 7.16699 92.5 21.5s40.167 33.166 51.5 56.499s18.666 49.666 21.999 78.999s5 58.666 5 87.999c0 25.333 -1.5 51.666 -4.5 78.999
s-10 52.333 -21 75s-27.5 41.334 -49.5 56.001s-52 22 -90 22zM298.001 737.003h-102l-155 133h141l68 -61l73 61h136z" />
    <glyph glyph-name="dcaron" unicode="&#x10f;" 
d="M306 700l209.004 -0.00195312v-432c0 -50 2.66699 -99.333 8 -148c0 -3.33301 0.333008 -6.66602 1 -9.99902h64v-110h-161l-13 64h-4c-6.66699 -12 -15.667 -22.667 -27 -32s-24 -17.5 -38 -24.5s-29.333 -12.333 -46 -16s-33.334 -5.5 -50.001 -5.5
c-31.333 0 -60.833 5 -88.5 15s-51.834 25.5 -72.501 46.5s-37 47.667 -49 80s-18 70.5 -18 114.5c0 42.667 6.5 80.667 19.5 114s31 61.5 54 84.5s50.167 40.667 81.5 53s65.666 18.5 102.999 18.5c20.667 0 40.167 -1.16699 58.5 -3.5s34.166 -6.16602 47.499 -11.499v93
h-79v110zM279.004 95.998c25.333 0 47.832 6.16797 67.499 18.501s32.5 30.166 38.5 53.499v212c-9.33301 7.33301 -22.166 12.833 -38.499 16.5s-33.5 5.5 -51.5 5.5s-35.5 -3 -52.5 -9s-32 -15.5 -45 -28.5s-23.333 -29.833 -31 -50.5s-11.5 -46 -11.5 -76
c0 -42.667 10.667 -77 32 -103s52 -39 92 -39zM697.003 699.999c-1.33301 -19.333 -5.33301 -39.5 -12 -60.5s-14.5 -41 -23.5 -60s-18.5 -36 -28.5 -51s-19 -25.833 -27 -32.5l-58 31c11.333 24 20 51.167 26 81.5s9 60.833 9 91.5h114z" />
    <glyph glyph-name="Dcroat" unicode="&#x110;" 
d="M89 700c6 0.666992 16.499 1.66699 31.499 3s32 2.5 51 3.5s38.667 1.83301 59 2.5s38.5 1 54.5 1c62 0 113.333 -9 154 -27s72.834 -42.833 96.501 -74.5s40.167 -69 49.5 -112s14 -89.833 14 -140.5c0 -46 -4.66699 -91 -14 -135s-26.166 -83.167 -50.499 -117.5
s-58 -62 -101 -83s-98.167 -31.5 -165.5 -31.5c-10.667 0 -24.334 0.333008 -41.001 1s-33.667 1.5 -51 2.5l-50 3c-16 1 -28.333 2.16699 -37 3.5v322h-88v80h88v299zM289.999 588c-12.667 0 -24.998 -0.49707 -36.998 -1.49707s-21 -1.83301 -27 -2.5v-183h140v-80h-140
v-206c2.66699 -0.666992 6.66699 -1.16699 12 -1.5l16.5 -1l16.5 -1c5.33301 -0.333008 9.66602 -0.5 12.999 -0.5c38.667 0 69.5 7.16699 92.5 21.5s40.167 33.166 51.5 56.499s18.666 49.666 21.999 78.999s5 58.666 5 87.999c0 25.333 -1.5 51.666 -4.5 78.999
s-10 52.333 -21 75s-27.5 41.334 -49.5 56.001s-52 22 -90 22z" />
    <glyph glyph-name="dcroat" unicode="&#x111;" 
d="M515 268c0 -50 2.6709 -99.335 8.00391 -148.002c0 -3.33301 0.333008 -6.66602 1 -9.99902h64v-110h-161l-13 64h-4c-6.66699 -12 -15.667 -22.667 -27 -32s-24 -17.5 -38 -24.5s-29.333 -12.333 -46 -16s-33.334 -5.5 -50.001 -5.5c-31.333 0 -60.833 5 -88.5 15
s-51.834 25.5 -72.501 46.5s-37 47.667 -49 80s-18 70.5 -18 114.5c0 42.667 6.5 80.667 19.5 114s31 61.5 54 84.5s50.167 40.667 81.5 53s65.666 18.5 102.999 18.5c20.667 0 40.167 -1.16699 58.5 -3.5s34.166 -6.16602 47.499 -11.499v64h-145v80h145v59h130v-59h79v-80
h-79v-293zM279.004 95.998c25.333 0 47.832 6.16797 67.499 18.501s32.5 30.166 38.5 53.499v212c-9.33301 7.33301 -22.166 12.833 -38.499 16.5s-33.5 5.5 -51.5 5.5s-35.5 -3 -52.5 -9s-32 -15.5 -45 -28.5s-23.333 -29.833 -31 -50.5s-11.5 -46 -11.5 -76
c0 -42.667 10.667 -77 32 -103s52 -39 92 -39z" />
    <glyph glyph-name="Emacron" unicode="&#x112;" 
d="M70 700h459v-122h-322v-163h297v-122h-297v-171h327v-122h-464v700zM137 856h343v-89h-343v89z" />
    <glyph glyph-name="emacron" unicode="&#x113;" 
d="M534 53c-8.66699 -8 -19.834 -15.832 -33.501 -23.499s-29.667 -14.834 -48 -21.501s-38.5 -12 -60.5 -16s-45.333 -6 -70 -6c-42.667 0 -80.834 6 -114.501 18s-62.167 29.5 -85.5 52.5s-41.166 50.667 -53.499 83s-18.5 69.166 -18.5 110.499c0 44 7 82.5 21 115.5
s33.167 60.5 57.5 82.5s52.833 38.5 85.5 49.5s68 16.5 106 16.5c25.333 0 51.5 -3.33301 78.5 -10s51.833 -18.167 74.5 -34.5s41.167 -38.166 55.5 -65.499s21.5 -62 21.5 -104c0 -28.667 -3.33301 -59.667 -10 -93h-360c0.666992 -21.333 5.16699 -39.333 13.5 -54
s19.333 -26.667 33 -36s29.334 -16.166 47.001 -20.499s36.5 -6.5 56.5 -6.5c40 0 72.833 4.66699 98.5 14s46.5 20.666 62.5 33.999zM318 410.001c-17.333 0 -33.6689 -2.33301 -49.002 -7s-29.166 -11.5 -41.499 -20.5s-22.5 -20.167 -30.5 -33.5s-12.667 -28.333 -14 -45
h246c0 32.667 -9.16699 58.5 -27.5 77.5s-46.166 28.5 -83.499 28.5zM149.997 658.001h323v-92h-323v92z" />
    <glyph glyph-name="Edotaccent" unicode="&#x116;" 
d="M70 700h459v-122h-322v-163h297v-122h-297v-171h327v-122h-464v700zM216 809c0 18 7.66699 33.333 23 46s38.666 19 69.999 19c30.667 0 54.334 -6.33301 71.001 -19s25 -28 25 -46c0 -19.333 -8.33301 -35.333 -25 -48s-40.334 -19 -71.001 -19
c-31.333 0 -54.666 6.33301 -69.999 19s-23 28.667 -23 48z" />
    <glyph glyph-name="edotaccent" unicode="&#x117;" 
d="M534 53c-8.66699 -8 -19.834 -15.832 -33.501 -23.499s-29.667 -14.834 -48 -21.501s-38.5 -12 -60.5 -16s-45.333 -6 -70 -6c-42.667 0 -80.834 6 -114.501 18s-62.167 29.5 -85.5 52.5s-41.166 50.667 -53.499 83s-18.5 69.166 -18.5 110.499c0 44 7 82.5 21 115.5
s33.167 60.5 57.5 82.5s52.833 38.5 85.5 49.5s68 16.5 106 16.5c25.333 0 51.5 -3.33301 78.5 -10s51.833 -18.167 74.5 -34.5s41.167 -38.166 55.5 -65.499s21.5 -62 21.5 -104c0 -28.667 -3.33301 -59.667 -10 -93h-360c0.666992 -21.333 5.16699 -39.333 13.5 -54
s19.333 -26.667 33 -36s29.334 -16.166 47.001 -20.499s36.5 -6.5 56.5 -6.5c40 0 72.833 4.66699 98.5 14s46.5 20.666 62.5 33.999zM318 410.001c-17.333 0 -33.6689 -2.33301 -49.002 -7s-29.166 -11.5 -41.499 -20.5s-22.5 -20.167 -30.5 -33.5s-12.667 -28.333 -14 -45
h246c0 32.667 -9.16699 58.5 -27.5 77.5s-46.166 28.5 -83.499 28.5zM226.997 636.001c0 20.667 7.66699 38.334 23 53.001s36.666 22 63.999 22c28 0 50.333 -7.33301 67 -22s25 -32.334 25 -53.001c0 -21.333 -8.33301 -38.833 -25 -52.5s-39 -20.5 -67 -20.5
c-27.333 0 -48.666 6.83301 -63.999 20.5s-23 31.167 -23 52.5z" />
    <glyph glyph-name="Eogonek" unicode="&#x118;" 
d="M87 700l409.002 0.00195312v-122h-272v-163h247v-122h-247v-171h277v-122h-27c-38.667 -14.667 -58 -39 -58 -73c0 -12 3.66699 -22.167 11 -30.5s17.666 -12.5 30.999 -12.5c12 0 26 4 42 12l19 -62c-10 -8 -25.833 -15.833 -47.5 -23.5s-44.167 -11.5 -67.5 -11.5
c-37.333 0 -65.833 8.33301 -85.5 25s-29.5 38.667 -29.5 66c0 25.333 7.66699 47.166 23 65.499s36.666 33.166 63.999 44.499h-289v700z" />
    <glyph glyph-name="eogonek" unicode="&#x119;" 
d="M534 53c-8.66699 -8 -19.834 -15.832 -33.501 -23.499s-29.834 -14.834 -48.501 -21.501c-6 -2.66699 -12 -5 -18 -7c-34.667 -15.333 -52 -38.666 -52 -69.999c0 -12 3.66699 -22.167 11 -30.5s17.666 -12.5 30.999 -12.5c12 0 26 4 42 12l19 -62
c-10 -8 -25.833 -15.833 -47.5 -23.5s-44.167 -11.5 -67.5 -11.5c-37.333 0 -65.833 8.33301 -85.5 25s-29.5 38.667 -29.5 66s9 50.666 27 69.999c8 8 16.667 15.333 26 22c-37.333 1.33301 -71 7.33301 -101 18c-33.333 12 -61.666 29.5 -84.999 52.5
s-41.166 50.667 -53.499 83s-18.5 69.166 -18.5 110.499c0 44 7 82.5 21 115.5s33.167 60.5 57.5 82.5s52.833 38.5 85.5 49.5s68 16.5 106 16.5c25.333 0 51.5 -3.33301 78.5 -10s51.833 -18.167 74.5 -34.5s41.167 -38.166 55.5 -65.499s21.5 -62 21.5 -104
c0 -28.667 -3.33301 -59.667 -10 -93h-360c0.666992 -21.333 5.16699 -39.333 13.5 -54s19.333 -26.667 33 -36s29.334 -16.166 47.001 -20.499s36.5 -6.5 56.5 -6.5c40 0 72.833 4.66699 98.5 14s46.5 20.666 62.5 33.999zM318 410.001
c-17.333 0 -33.6689 -2.33301 -49.002 -7s-29.166 -11.5 -41.499 -20.5s-22.5 -20.167 -30.5 -33.5s-12.667 -28.333 -14 -45h246c0 32.667 -9.16699 58.5 -27.5 77.5s-46.166 28.5 -83.499 28.5z" />
    <glyph glyph-name="Ecaron" unicode="&#x11a;" 
d="M70 700h459v-122h-322v-163h297v-122h-297v-171h327v-122h-464v700zM356 737h-102l-155 133h141l68 -61l73 61h136z" />
    <glyph glyph-name="ecaron" unicode="&#x11b;" 
d="M534 53c-8.66699 -8 -19.834 -15.832 -33.501 -23.499s-29.667 -14.834 -48 -21.501s-38.5 -12 -60.5 -16s-45.333 -6 -70 -6c-42.667 0 -80.834 6 -114.501 18s-62.167 29.5 -85.5 52.5s-41.166 50.667 -53.499 83s-18.5 69.166 -18.5 110.499c0 44 7 82.5 21 115.5
s33.167 60.5 57.5 82.5s52.833 38.5 85.5 49.5s68 16.5 106 16.5c25.333 0 51.5 -3.33301 78.5 -10s51.833 -18.167 74.5 -34.5s41.167 -38.166 55.5 -65.499s21.5 -62 21.5 -104c0 -28.667 -3.33301 -59.667 -10 -93h-360c0.666992 -21.333 5.16699 -39.333 13.5 -54
s19.333 -26.667 33 -36s29.334 -16.166 47.001 -20.499s36.5 -6.5 56.5 -6.5c40 0 72.833 4.66699 98.5 14s46.5 20.666 62.5 33.999zM318 410.001c-17.333 0 -33.6689 -2.33301 -49.002 -7s-29.166 -11.5 -41.499 -20.5s-22.5 -20.167 -30.5 -33.5s-12.667 -28.333 -14 -45
h246c0 32.667 -9.16699 58.5 -27.5 77.5s-46.166 28.5 -83.499 28.5zM360.997 550.001h-91l-115 182h110l56 -94l62 94h101z" />
    <glyph glyph-name="Gcircumflex" unicode="&#x11c;" 
d="M323 365l239.002 0.00390625v-316c-22.667 -20.667 -52.167 -36.334 -88.5 -47.001s-73.5 -16 -111.5 -16c-44.667 0 -86.5 7.66699 -125.5 23s-72.833 38.5 -101.5 69.5s-51.334 69.333 -68.001 115s-25 99.167 -25 160.5c0 64.667 10 119.667 30 165
s45.833 82.5 77.5 111.5s67.167 50.167 106.5 63.5s78.333 20 117 20c40 0 73.333 -3.16699 100 -9.5s51 -14.5 73 -24.5v-207h-110v111l-16 4c-13.333 2.66699 -28 4 -44 4c-27.333 0 -52.666 -4.66699 -75.999 -14s-43.5 -23.833 -60.5 -43.5
s-30.167 -44.834 -39.5 -75.501s-14 -67.334 -14 -110.001c0 -38 4.66699 -72 14 -102s22.333 -55.333 39 -76s36.5 -36.334 59.5 -47.001s47.833 -16 74.5 -16c17.333 0 33.166 2 47.499 6s24.166 8 29.499 12v139h-127v100zM554.002 737.004h-136l-73 61l-68 -61h-141
l155 133h102z" />
    <glyph glyph-name="gcircumflex" unicode="&#x11d;" 
d="M530 0c0 -36 -6.16504 -67.3281 -18.498 -93.9951s-29.333 -48.834 -51 -66.501s-47.334 -30.667 -77.001 -39s-62.167 -12.5 -97.5 -12.5c-24 0 -46.5 1.83301 -67.5 5.5s-40.333 8.5 -58 14.5s-33.167 12.5 -46.5 19.5s-24 13.833 -32 20.5l50 92
c16 -10.667 35.167 -20.834 57.5 -30.501s50.5 -14.5 84.5 -14.5c42 0 74 9.66699 96 29s33 47 33 83v32h-4c-12 -16 -29.667 -27.833 -53 -35.5s-50.333 -11.5 -81 -11.5c-32 0 -61.5 5 -88.5 15s-50.5 25.167 -70.5 45.5s-35.5 46.166 -46.5 77.499s-16.5 68 -16.5 110
c0 44 6.5 83 19.5 117s31.333 62.5 55 85.5s52 40.333 85 52s69.833 17.5 110.5 17.5c21.333 0 42.666 -0.833008 63.999 -2.5s41.5 -3.83398 60.5 -6.50098s36.5 -5.83398 52.5 -9.50098s29.333 -7.5 40 -11.5v-482zM290.002 96.0049
c25.333 0 48.168 5.66797 68.501 17.001s34.166 28.333 41.499 51v225c-9.33301 4 -22.5 7.16699 -39.5 9.5s-33.167 3.5 -48.5 3.5c-18.667 0 -36.167 -3 -52.5 -9s-30.666 -15.5 -42.999 -28.5s-22 -29.333 -29 -49s-10.5 -43.167 -10.5 -70.5c0 -24 3 -45.333 9 -64
s14.333 -34.334 25 -47.001s22.667 -22.167 36 -28.5s27.666 -9.5 42.999 -9.5zM281.004 732.006h86l111 -182h-103l-55 94l-63 -94h-99z" />
    <glyph glyph-name="Gbreve" unicode="&#x11e;" 
d="M323 365l239.002 0.00390625v-316c-22.667 -20.667 -52.167 -36.334 -88.5 -47.001s-73.5 -16 -111.5 -16c-44.667 0 -86.5 7.66699 -125.5 23s-72.833 38.5 -101.5 69.5s-51.334 69.333 -68.001 115s-25 99.167 -25 160.5c0 64.667 10 119.667 30 165
s45.833 82.5 77.5 111.5s67.167 50.167 106.5 63.5s78.333 20 117 20c40 0 73.333 -3.16699 100 -9.5s51 -14.5 73 -24.5v-207h-110v111l-16 4c-13.333 2.66699 -28 4 -44 4c-27.333 0 -52.666 -4.66699 -75.999 -14s-43.5 -23.833 -60.5 -43.5
s-30.167 -44.834 -39.5 -75.501s-14 -67.334 -14 -110.001c0 -38 4.66699 -72 14 -102s22.333 -55.333 39 -76s36.5 -36.334 59.5 -47.001s47.833 -16 74.5 -16c17.333 0 33.166 2 47.499 6s24.166 8 29.499 12v139h-127v100zM223.002 885.004
c13.333 -17.333 32.665 -30.667 57.998 -40s53.666 -14 84.999 -14c32 0 59.5 5 82.5 15s41.167 23 54.5 39l58 -45c-24.667 -36 -54 -61.667 -88 -77s-70 -23 -108 -23c-18 0 -36.167 1.5 -54.5 4.5s-36.166 8.16699 -53.499 15.5s-34.166 17.5 -50.499 30.5
s-31.166 29.5 -44.499 49.5z" />
    <glyph glyph-name="gbreve" unicode="&#x11f;" 
d="M530 0c0 -36 -6.16504 -67.3281 -18.498 -93.9951s-29.333 -48.834 -51 -66.501s-47.334 -30.667 -77.001 -39s-62.167 -12.5 -97.5 -12.5c-24 0 -46.5 1.83301 -67.5 5.5s-40.333 8.5 -58 14.5s-33.167 12.5 -46.5 19.5s-24 13.833 -32 20.5l50 92
c16 -10.667 35.167 -20.834 57.5 -30.501s50.5 -14.5 84.5 -14.5c42 0 74 9.66699 96 29s33 47 33 83v32h-4c-12 -16 -29.667 -27.833 -53 -35.5s-50.333 -11.5 -81 -11.5c-32 0 -61.5 5 -88.5 15s-50.5 25.167 -70.5 45.5s-35.5 46.166 -46.5 77.499s-16.5 68 -16.5 110
c0 44 6.5 83 19.5 117s31.333 62.5 55 85.5s52 40.333 85 52s69.833 17.5 110.5 17.5c21.333 0 42.666 -0.833008 63.999 -2.5s41.5 -3.83398 60.5 -6.50098s36.5 -5.83398 52.5 -9.50098s29.333 -7.5 40 -11.5v-482zM290.002 96.0049
c25.333 0 48.168 5.66797 68.501 17.001s34.166 28.333 41.499 51v225c-9.33301 4 -22.5 7.16699 -39.5 9.5s-33.167 3.5 -48.5 3.5c-18.667 0 -36.167 -3 -52.5 -9s-30.666 -15.5 -42.999 -28.5s-22 -29.333 -29 -49s-10.5 -43.167 -10.5 -70.5c0 -24 3 -45.333 9 -64
s14.333 -34.334 25 -47.001s22.667 -22.167 36 -28.5s27.666 -9.5 42.999 -9.5zM215.004 720.006c11.333 -20 27.168 -34.833 47.501 -44.5s41.833 -14.5 64.5 -14.5s43.5 5 62.5 15s33.5 24.667 43.5 44l60 -27c-2 -16 -7.5 -31.833 -16.5 -47.5s-20.833 -29.5 -35.5 -41.5
s-31.834 -21.667 -51.501 -29s-40.834 -11 -63.501 -11c-44 0 -81.667 11.167 -113 33.5s-51.666 52.5 -60.999 90.5z" />
    <glyph glyph-name="Gcommaaccent" unicode="&#x122;" 
d="M323 365l239.002 0.00390625v-316c-22.667 -20.667 -52.167 -36.334 -88.5 -47.001s-73.5 -16 -111.5 -16c-44.667 0 -86.5 7.66699 -125.5 23s-72.833 38.5 -101.5 69.5s-51.334 69.333 -68.001 115s-25 99.167 -25 160.5c0 64.667 10 119.667 30 165
s45.833 82.5 77.5 111.5s67.167 50.167 106.5 63.5s78.333 20 117 20c40 0 73.333 -3.16699 100 -9.5s51 -14.5 73 -24.5v-207h-110v111l-16 4c-13.333 2.66699 -28 4 -44 4c-27.333 0 -52.666 -4.66699 -75.999 -14s-43.5 -23.833 -60.5 -43.5
s-30.167 -44.834 -39.5 -75.501s-14 -67.334 -14 -110.001c0 -38 4.66699 -72 14 -102s22.333 -55.333 39 -76s36.5 -36.334 59.5 -47.001s47.833 -16 74.5 -16c17.333 0 33.166 2 47.499 6s24.166 8 29.499 12v139h-127v100zM258.002 -94.9961
c0 12 2.66504 21.9971 7.99805 29.9971s12 14.5 20 19.5s17 8.5 27 10.5s20 3 30 3c23.333 0 44 -6.66699 62 -20s27 -34 27 -62c0 -19.333 -4.16699 -36.166 -12.5 -50.499s-19 -26.333 -32 -36s-28 -17 -45 -22s-33.833 -7.5 -50.5 -7.5l-13 48
c18.667 0.666992 34.334 4.66699 47.001 12s19.334 16 20.001 26c-25.333 -3.33301 -46.333 -0.166016 -63 9.50098s-25 22.834 -25 39.501z" />
    <glyph glyph-name="gcommaaccent" unicode="&#x123;" 
d="M530 0c0 -36 -6.16504 -67.3281 -18.498 -93.9951s-29.333 -48.834 -51 -66.501s-47.334 -30.667 -77.001 -39s-62.167 -12.5 -97.5 -12.5c-24 0 -46.5 1.83301 -67.5 5.5s-40.333 8.5 -58 14.5s-33.167 12.5 -46.5 19.5s-24 13.833 -32 20.5l50 92
c16 -10.667 35.167 -20.834 57.5 -30.501s50.5 -14.5 84.5 -14.5c42 0 74 9.66699 96 29s33 47 33 83v32h-4c-12 -16 -29.667 -27.833 -53 -35.5s-50.333 -11.5 -81 -11.5c-32 0 -61.5 5 -88.5 15s-50.5 25.167 -70.5 45.5s-35.5 46.166 -46.5 77.499s-16.5 68 -16.5 110
c0 44 6.5 83 19.5 117s31.333 62.5 55 85.5s52 40.333 85 52s69.833 17.5 110.5 17.5c21.333 0 42.666 -0.833008 63.999 -2.5s41.5 -3.83398 60.5 -6.50098s36.5 -5.83398 52.5 -9.50098s29.333 -7.5 40 -11.5v-482zM290.002 96.0049
c25.333 0 48.168 5.66797 68.501 17.001s34.166 28.333 41.499 51v225c-9.33301 4 -22.5 7.16699 -39.5 9.5s-33.167 3.5 -48.5 3.5c-18.667 0 -36.167 -3 -52.5 -9s-30.666 -15.5 -42.999 -28.5s-22 -29.333 -29 -49s-10.5 -43.167 -10.5 -70.5c0 -24 3 -45.333 9 -64
s14.333 -34.334 25 -47.001s22.667 -22.167 36 -28.5s27.666 -9.5 42.999 -9.5zM412.017 604c0 -11.999 -2.66797 -21.999 -8.00098 -29.998s-11.999 -14.499 -19.998 -19.499c-7.99902 -4.99902 -16.999 -8.49902 -26.999 -10.499c-9.99902 -2 -19.998 -3 -29.9971 -3
c-23.3311 0 -43.9961 6.66602 -61.9951 19.999s-26.998 33.998 -26.998 61.9961c0 19.332 4.16602 36.1641 12.499 50.4971c8.33301 14.332 18.999 26.3311 31.998 35.998c12.999 9.66602 27.998 16.999 44.9971 21.998c16.999 5 33.8311 7.5 50.4961 7.5l12.999 -47.9971
c-18.665 -0.666992 -34.3311 -4.66699 -46.9971 -12s-19.332 -15.999 -19.998 -25.998c25.3311 3.33301 46.3301 0.166992 62.9961 -9.49902c16.665 -9.66699 24.998 -22.833 24.998 -39.498z" />
    <glyph glyph-name="Hcircumflex" unicode="&#x124;" 
d="M413 293h-226v-293h-137v700h137v-285h226v285h137v-700h-137v293zM509 737h-136l-73 61l-68 -61h-141l155 133h102z" />
    <glyph glyph-name="hcircumflex" unicode="&#x125;" 
d="M51 700l202.004 -0.000976562v-256h4c16 21.333 37.333 38.333 64 51s58 19 94 19c25.333 0 48.666 -3.33301 69.999 -10s39.666 -17.667 54.999 -33s27.333 -36.166 36 -62.499s13 -58.833 13 -97.5v-311h-130v284c0 40.667 -8.66699 70 -26 88s-40 27 -68 27
c-24.667 0 -47.334 -7.5 -68.001 -22.5s-35.334 -34.167 -44.001 -57.5v-319h-130v590h-72v110zM418.004 736.999h-136l-73 61l-68 -61h-141l155 133h102z" />
    <glyph glyph-name="Hbar" unicode="&#x126;" 
d="M3 598h71v102h137v-102h180v102h137v-102h68v-82h-68v-516h-137v293h-180v-293h-137v516h-71v82zM391 415v101h-180v-101h180z" />
    <glyph glyph-name="hbar" unicode="&#x127;" 
d="M415 0l0.00390625 283.999c0 40.667 -8.66699 70 -26 88s-40 27 -68 27c-24.667 0 -47.334 -7.5 -68.001 -22.5s-35.334 -34.167 -44.001 -57.5v-319h-130v561h-74v80h74v59h130v-59h161v-80h-161v-117h4c16 21.333 37.333 38.333 64 51s58 19 94 19
c25.333 0 48.666 -3.33301 69.999 -10s39.666 -17.667 54.999 -33s27.333 -36.166 36 -62.499s13 -58.833 13 -97.5v-311h-130z" />
    <glyph glyph-name="Imacron" unicode="&#x12a;" 
d="M54 122h177v456h-177v122h492v-122h-178v-456h178v-122h-492v122zM132 856h343v-89h-343v89z" />
    <glyph glyph-name="imacron" unicode="&#x12b;" 
d="M59 110h176v280h-176v110h306v-390h185v-110h-491v110zM138 658h323v-92h-323v92z" />
    <glyph glyph-name="Iogonek" unicode="&#x12e;" 
d="M54 122l177.002 0.00195312v456h-177v122h492v-122h-178v-456h178v-122h-66c-15.333 -8 -27.333 -18 -36 -30s-12.667 -26.333 -12 -43c0 -12 3.66699 -22.167 11 -30.5s17.666 -12.5 30.999 -12.5c11.333 0 25 4 41 12l20 -62c-10 -8 -25.833 -16 -47.5 -24
s-44.167 -12 -67.5 -12c-38 0 -66.667 8.5 -86 25.5s-29 39.167 -29 66.5c0 25.333 7.66699 47.166 23 65.499s36.666 33.166 63.999 44.499h-338v122z" />
    <glyph glyph-name="iogonek" unicode="&#x12f;" 
d="M84 110l176.001 0.000976562v280h-176v110h306v-390h185v-110h-55c-32 -15.333 -48 -38.333 -48 -69c0 -12 3.66699 -22.167 11 -30.5s17.666 -12.5 30.999 -12.5c12 0 26 4 42 12l19 -62c-10 -8 -25.833 -15.833 -47.5 -23.5s-44.167 -11.5 -67.5 -11.5
c-37.333 0 -65.833 8.33301 -85.5 25s-29.5 38.667 -29.5 66s9 50.666 27 69.999c13.333 14 30.333 26 51 36h-339v110zM235.001 636.001c0 20.667 7.66699 38.334 23 53.001s36.666 22 63.999 22c28 0 50.333 -7.33301 67 -22s25 -32.334 25 -53.001
c0 -21.333 -8.33301 -38.833 -25 -52.5s-39 -20.5 -67 -20.5c-27.333 0 -48.666 6.83301 -63.999 20.5s-23 31.167 -23 52.5z" />
    <glyph glyph-name="Idotaccent" unicode="&#x130;" 
d="M54 122h177v456h-177v122h492v-122h-178v-456h178v-122h-492v122zM207 809c0 18 7.66699 33.333 23 46s38.666 19 69.999 19c30.667 0 54.334 -6.33301 71.001 -19s25 -28 25 -46c0 -19.333 -8.33301 -35.333 -25 -48s-40.334 -19 -71.001 -19
c-31.333 0 -54.666 6.33301 -69.999 19s-23 28.667 -23 48z" />
    <glyph glyph-name="dotlessi" unicode="&#x131;" 
d="M59 110h176v280h-176v110h306v-390h185v-110h-491v110z" />
    <glyph glyph-name="Jcircumflex" unicode="&#x134;" 
d="M39 700l417.999 0.00195312v-446c0 -38 -4.83301 -73.667 -14.5 -107s-27.167 -63 -52.5 -89c-16 -16 -33.167 -28.667 -51.5 -38s-36.166 -16.333 -53.499 -21s-33.666 -7.66699 -48.999 -9s-28 -2 -38 -2c-32 0 -63 3.5 -93 10.5s-60 19.5 -90 37.5l49 110
c25.333 -14.667 47.166 -24.334 65.499 -29.001s39.5 -7 63.5 -7c14.667 0 30.5 2.83301 47.5 8.5s31.833 15.167 44.5 28.5c23.333 25.333 35 60.666 35 105.999v325h-281v122zM460.999 737.002h-136l-73 61l-68 -61h-141l155 133h102z" />
    <glyph glyph-name="jcircumflex" unicode="&#x135;" 
d="M94 500l367.999 -0.000976562v-461c0 -76.667 -20 -137 -60 -181s-100 -66 -180 -66c-32.667 0 -63.667 5 -93 15s-54.666 24.667 -75.999 44l58 96c7.33301 -6 20.5 -13.5 39.5 -22.5s40.5 -13.5 64.5 -13.5c16 0 31.167 2.5 45.5 7.5s26.833 13.333 37.5 25
s19 26.834 25 45.501s9 42 9 70v331h-238v110zM242.999 731.999h86l111 -182h-103l-55 94l-63 -94h-99z" />
    <glyph glyph-name="Kcommaaccent" unicode="&#x136;" 
d="M256 292h-71v-292h-137v700h137v-286h71l160 286h156l-197 -338l222 -362h-169zM200 -95c0 12 2.66504 21.9971 7.99805 29.9971s12 14.5 20 19.5s17 8.5 27 10.5s20 3 30 3c23.333 0 44 -6.66699 62 -20s27 -34 27 -62c0 -19.333 -4.16699 -36.166 -12.5 -50.499
s-19 -26.333 -32 -36s-28 -17 -45 -22s-33.833 -7.5 -50.5 -7.5l-13 48c18.667 0.666992 34.334 4.66699 47.001 12s19.334 16 20.001 26c-25.333 -3.33301 -46.333 -0.166016 -63 9.50098s-25 22.834 -25 39.501z" />
    <glyph glyph-name="kcommaaccent" unicode="&#x137;" 
d="M0 700h212v-399h30l164 199h153l-202 -228l131 -162h93v-110h-162l-172 207h-35v-207h-130v590h-82v110zM213 -95c0 12 2.66504 21.9971 7.99805 29.9971s12 14.5 20 19.5s17 8.5 27 10.5s20 3 30 3c23.333 0 44 -6.66699 62 -20s27 -34 27 -62
c0 -19.333 -4.16699 -36.166 -12.5 -50.499s-19 -26.333 -32 -36s-28 -17 -45 -22s-33.833 -7.5 -50.5 -7.5l-13 48c18.667 0.666992 34.334 4.66699 47.001 12s19.334 16 20.001 26c-25.333 -3.33301 -46.333 -0.166016 -63 9.50098s-25 22.834 -25 39.501z" />
    <glyph glyph-name="Lacute" unicode="&#x139;" 
d="M414 285h124v-285h-460v700h137v-578h199v163zM233 870h159v-30l-160 -88h-103z" />
    <glyph glyph-name="lacute" unicode="&#x13a;" 
d="M87 700l213 -0.00292969v-462c0 -51.333 6.33301 -87 19 -107s33 -30 61 -30c20.667 0 37.667 2.16699 51 6.5s26.666 10.5 39.999 18.5l49 -90c-11.333 -7.33301 -22.666 -14.166 -33.999 -20.499s-23.333 -11.666 -36 -15.999s-26.5 -7.66602 -41.5 -9.99902
s-31.833 -3.5 -50.5 -3.5c-62.667 0 -109.667 16 -141 48s-47 77.333 -47 136v420h-83v110zM319 869.997h159v-30l-160 -88h-103z" />
    <glyph glyph-name="Lcommaaccent" unicode="&#x13b;" 
d="M414 285h124v-285h-460v700h137v-578h199v163zM203 -95c0 12 2.66504 21.9971 7.99805 29.9971s12 14.5 20 19.5s17 8.5 27 10.5s20 3 30 3c23.333 0 44 -6.66699 62 -20s27 -34 27 -62c0 -19.333 -4.16699 -36.166 -12.5 -50.499s-19 -26.333 -32 -36s-28 -17 -45 -22
s-33.833 -7.5 -50.5 -7.5l-13 48c18.667 0.666992 34.334 4.66699 47.001 12s19.334 16 20.001 26c-25.333 -3.33301 -46.333 -0.166016 -63 9.50098s-25 22.834 -25 39.501z" />
    <glyph glyph-name="lcommaaccent" unicode="&#x13c;" 
d="M87 700l213 -0.00292969v-462c0 -51.333 6.33301 -87 19 -107s33 -30 61 -30c20.667 0 37.667 2.16699 51 6.5s26.666 10.5 39.999 18.5l49 -90c-11.333 -7.33301 -22.666 -14.166 -33.999 -20.499s-23.333 -11.666 -36 -15.999s-26.5 -7.66602 -41.5 -9.99902
s-31.833 -3.5 -50.5 -3.5c-62.667 0 -109.667 16 -141 48s-47 77.333 -47 136v420h-83v110zM247 -95.0029c0 12 2.66504 21.9971 7.99805 29.9971s12 14.5 20 19.5s17 8.5 27 10.5s20 3 30 3c23.333 0 44 -6.66699 62 -20s27 -34 27 -62
c0 -19.333 -4.16699 -36.166 -12.5 -50.499s-19 -26.333 -32 -36s-28 -17 -45 -22s-33.833 -7.5 -50.5 -7.5l-13 48c18.667 0.666992 34.334 4.66699 47.001 12s19.334 16 20.001 26c-25.333 -3.33301 -46.333 -0.166016 -63 9.50098s-25 22.834 -25 39.501z" />
    <glyph glyph-name="Lcaron" unicode="&#x13d;" 
d="M414 285h124v-285h-460v700h137v-578h199v163zM491 700c-1.33301 -19.333 -5.33301 -39.5 -12 -60.5s-14.5 -41 -23.5 -60s-18.5 -36 -28.5 -51s-19 -25.833 -27 -32.5l-58 31c11.333 24 20 51.167 26 81.5s9 60.833 9 91.5h114z" />
    <glyph glyph-name="lcaron" unicode="&#x13e;" 
d="M87 700l213 -0.00292969v-462c0 -51.333 6.33301 -87 19 -107s33 -30 61 -30c20.667 0 37.667 2.16699 51 6.5s26.666 10.5 39.999 18.5l49 -90c-11.333 -7.33301 -22.666 -14.166 -33.999 -20.499s-23.333 -11.666 -36 -15.999s-26.5 -7.66602 -41.5 -9.99902
s-31.833 -3.5 -50.5 -3.5c-62.667 0 -109.667 16 -141 48s-47 77.333 -47 136v420h-83v110zM505 699.997c-1.33301 -19.333 -5.33301 -39.5 -12 -60.5s-14.5 -41 -23.5 -60s-18.5 -36 -28.5 -51s-19 -25.833 -27 -32.5l-58 31c11.333 24 20 51.167 26 81.5s9 60.833 9 91.5
h114z" />
    <glyph glyph-name="Lslash" unicode="&#x141;" 
d="M418 285h124v-285h-460v241l-68 -44v121l68 45v337h137v-245l100 67v-125l-100 -66v-209h199v163z" />
    <glyph glyph-name="lslash" unicode="&#x142;" 
d="M95 307l74.998 49.9971v233h-83v110h213v-256l100 67v-125l-100 -66v-82c0 -51.333 6.33301 -87 19 -107s33 -30 61 -30c20.667 0 37.334 3.16699 50.001 9.5s25.667 13.5 39 21.5l51 -96c-11.333 -7.33301 -22.666 -14.166 -33.999 -20.499s-23.333 -11.666 -36 -15.999
s-26.5 -7.66602 -41.5 -9.99902s-31.833 -3.5 -50.5 -3.5c-62.667 0 -109.667 16 -141 48s-47 77.333 -47 136v65l-75 -49v121z" />
    <glyph glyph-name="Nacute" unicode="&#x143;" 
d="M185 414h-5l6 -83v-331h-130v700h120l242 -428h5l-9 84v344h130v-700h-120zM337 870h159v-30l-160 -88h-103z" />
    <glyph glyph-name="nacute" unicode="&#x144;" 
d="M12 500l174.998 -0.00195312l15 -66h4c15.333 21.333 37.333 40 66 56s63 24 103 24c24.667 0 47.834 -3.33301 69.501 -10s40.167 -17.667 55.5 -33s27.5 -36.166 36.5 -62.499s13.5 -58.833 13.5 -97.5v-311h-130v284c0 40.667 -9.16699 70 -27.5 88s-41.5 27 -69.5 27
c-24.667 0 -47.167 -7.16699 -67.5 -21.5s-34.166 -32.166 -41.499 -53.499v-324h-130v390h-72v110zM307.998 719.998h158l-137 -154h-80z" />
    <glyph glyph-name="Ncommaaccent" unicode="&#x145;" 
d="M185 414h-5l6 -83v-331h-130v700h120l242 -428h5l-9 84v344h130v-700h-120zM209 -95c0 12 2.66504 21.9971 7.99805 29.9971s12 14.5 20 19.5s17 8.5 27 10.5s20 3 30 3c23.333 0 44 -6.66699 62 -20s27 -34 27 -62c0 -19.333 -4.16699 -36.166 -12.5 -50.499
s-19 -26.333 -32 -36s-28 -17 -45 -22s-33.833 -7.5 -50.5 -7.5l-13 48c18.667 0.666992 34.334 4.66699 47.001 12s19.334 16 20.001 26c-25.333 -3.33301 -46.333 -0.166016 -63 9.50098s-25 22.834 -25 39.501z" />
    <glyph glyph-name="ncommaaccent" unicode="&#x146;" 
d="M12 500l174.998 -0.00195312l15 -66h4c15.333 21.333 37.333 40 66 56s63 24 103 24c24.667 0 47.834 -3.33301 69.501 -10s40.167 -17.667 55.5 -33s27.5 -36.166 36.5 -62.499s13.5 -58.833 13.5 -97.5v-311h-130v284c0 40.667 -9.16699 70 -27.5 88s-41.5 27 -69.5 27
c-24.667 0 -47.167 -7.16699 -67.5 -21.5s-34.166 -32.166 -41.499 -53.499v-324h-130v390h-72v110zM226.998 -95.002c0 12 2.66504 21.9971 7.99805 29.9971s12 14.5 20 19.5s17 8.5 27 10.5s20 3 30 3c23.333 0 44 -6.66699 62 -20s27 -34 27 -62
c0 -19.333 -4.16699 -36.166 -12.5 -50.499s-19 -26.333 -32 -36s-28 -17 -45 -22s-33.833 -7.5 -50.5 -7.5l-13 48c18.667 0.666992 34.334 4.66699 47.001 12s19.334 16 20.001 26c-25.333 -3.33301 -46.333 -0.166016 -63 9.50098s-25 22.834 -25 39.501z" />
    <glyph glyph-name="Ncaron" unicode="&#x147;" 
d="M185 414h-5l6 -83v-331h-130v700h120l242 -428h5l-9 84v344h130v-700h-120zM348 737h-102l-155 133h141l68 -61l73 61h136z" />
    <glyph glyph-name="ncaron" unicode="&#x148;" 
d="M12 500l174.998 -0.00195312l15 -66h4c15.333 21.333 37.333 40 66 56s63 24 103 24c24.667 0 47.834 -3.33301 69.501 -10s40.167 -17.667 55.5 -33s27.5 -36.166 36.5 -62.499s13.5 -58.833 13.5 -97.5v-311h-130v284c0 40.667 -9.16699 70 -27.5 88s-41.5 27 -69.5 27
c-24.667 0 -47.167 -7.16699 -67.5 -21.5s-34.166 -32.166 -41.499 -53.499v-324h-130v390h-72v110zM366.998 549.998h-91l-115 182h110l56 -94l62 94h101z" />
    <glyph glyph-name="Omacron" unicode="&#x14c;" 
d="M36 350c0 56.667 5.33398 107.667 16.001 153s27 83.5 49 114.5s49.5 54.833 82.5 71.5s71.833 25 116.5 25c48 0 88.667 -9 122 -27s60.5 -43 81.5 -75s36.333 -70.333 46 -115s14.5 -93.667 14.5 -147c0 -114 -21.833 -203.167 -65.5 -267.5
s-109.834 -96.5 -198.501 -96.5c-48 0 -88.833 9 -122.5 27s-61 43 -82 75s-36.167 70.333 -45.5 115s-14 93.667 -14 147zM180.001 350c0 -34 1.50195 -65.665 4.50195 -94.998s8.66699 -54.833 17 -76.5s20.333 -38.834 36 -51.501s36.5 -19 62.5 -19
c23.333 0 42.666 4.83301 57.999 14.5s27.666 24.5 36.999 44.5s15.833 45.167 19.5 75.5s5.5 66.166 5.5 107.499c0 32.667 -1.16699 63.667 -3.5 93s-7.66602 55 -15.999 77s-20.5 39.5 -36.5 52.5s-37.333 19.5 -64 19.5c-46.667 0 -78.334 -20.333 -95.001 -61
s-25 -101 -25 -181zM129.003 856.002h343v-89h-343v89z" />
    <glyph glyph-name="omacron" unicode="&#x14d;" 
d="M35 250c0 42 6.33301 79.333 19 112s30.667 60.334 54 83.001s51.166 39.834 83.499 51.501s68.5 17.5 108.5 17.5c42 0 79.5 -6.33301 112.5 -19s60.833 -30.5 83.5 -53.5s39.834 -50.833 51.501 -83.5s17.5 -68.667 17.5 -108c0 -42 -6.33301 -79.333 -19 -112
s-30.667 -60.334 -54 -83.001s-51.166 -39.834 -83.499 -51.501s-68.5 -17.5 -108.5 -17.5c-42 0 -79.5 6.33301 -112.5 19s-60.833 30.5 -83.5 53.5s-39.834 50.833 -51.501 83.5s-17.5 68.667 -17.5 108zM169 250c0 -22 3.00098 -42.333 9.00098 -61s14.667 -35 26 -49
s25 -24.833 41 -32.5s34.333 -11.5 55 -11.5c38.667 0 70.167 12.333 94.5 37s36.5 63.667 36.5 117c0 46 -11.333 83.167 -34 111.5s-55 42.5 -97 42.5c-18.667 0 -36 -2.83301 -52 -8.5s-29.833 -14.834 -41.5 -27.501s-20.834 -28.667 -27.501 -48
s-10 -42.666 -10 -69.999zM139.001 658h323v-92h-323v92z" />
    <glyph glyph-name="Ohungarumlaut" unicode="&#x150;" 
d="M36 350c0 56.667 5.33398 107.667 16.001 153s27 83.5 49 114.5s49.5 54.833 82.5 71.5s71.833 25 116.5 25c48 0 88.667 -9 122 -27s60.5 -43 81.5 -75s36.333 -70.333 46 -115s14.5 -93.667 14.5 -147c0 -114 -21.833 -203.167 -65.5 -267.5
s-109.834 -96.5 -198.501 -96.5c-48 0 -88.833 9 -122.5 27s-61 43 -82 75s-36.167 70.333 -45.5 115s-14 93.667 -14 147zM180.001 350c0 -34 1.50195 -65.665 4.50195 -94.998s8.66699 -54.833 17 -76.5s20.333 -38.834 36 -51.501s36.5 -19 62.5 -19
c23.333 0 42.666 4.83301 57.999 14.5s27.666 24.5 36.999 44.5s15.833 45.167 19.5 75.5s5.5 66.166 5.5 107.499c0 32.667 -1.16699 63.667 -3.5 93s-7.66602 55 -15.999 77s-20.5 39.5 -36.5 52.5s-37.333 19.5 -64 19.5c-46.667 0 -78.334 -20.333 -95.001 -61
s-25 -101 -25 -181zM215.003 850.002h134v-16l-100 -93h-93zM413.003 850.002h140v-16l-143 -93h-94z" />
    <glyph glyph-name="ohungarumlaut" unicode="&#x151;" 
d="M35 250c0 42 6.33301 79.333 19 112s30.667 60.334 54 83.001s51.166 39.834 83.499 51.501s68.5 17.5 108.5 17.5c42 0 79.5 -6.33301 112.5 -19s60.833 -30.5 83.5 -53.5s39.834 -50.833 51.501 -83.5s17.5 -68.667 17.5 -108c0 -42 -6.33301 -79.333 -19 -112
s-30.667 -60.334 -54 -83.001s-51.166 -39.834 -83.499 -51.501s-68.5 -17.5 -108.5 -17.5c-42 0 -79.5 6.33301 -112.5 19s-60.833 30.5 -83.5 53.5s-39.834 50.833 -51.501 83.5s-17.5 68.667 -17.5 108zM169 250c0 -22 3.00098 -42.333 9.00098 -61s14.667 -35 26 -49
s25 -24.833 41 -32.5s34.333 -11.5 55 -11.5c38.667 0 70.167 12.333 94.5 37s36.5 63.667 36.5 117c0 46 -11.333 83.167 -34 111.5s-55 42.5 -97 42.5c-18.667 0 -36 -2.83301 -52 -8.5s-29.833 -14.834 -41.5 -27.501s-20.834 -28.667 -27.501 -48
s-10 -42.666 -10 -69.999zM215.001 700h129l-86 -129h-78zM393.001 700h142l-134 -129h-81z" />
    <glyph glyph-name="OE" unicode="&#x152;" 
d="M291 578c-5.33301 5.33301 -11.6689 9.99707 -19.002 13.9971s-17.666 6 -30.999 6c-18 0 -33.167 -6.16699 -45.5 -18.5s-22.833 -30.166 -31.5 -53.499c-8 -21.333 -14 -47.166 -18 -77.499s-6 -62.5 -6 -96.5c0 -32 1.33301 -63.167 4 -93.5
s8.33398 -57.166 17.001 -80.499c18 -50.667 46 -76 84 -76c13.333 0 23 1.33301 29 4s11.667 6 17 10v462zM290.997 -0.00292969c-8.66699 -4 -20.667 -7.33301 -36 -10s-29.666 -4 -42.999 -4c-44 0 -80.333 12.333 -109 37s-50.667 59.667 -66 105
c-10 30 -17.167 63.5 -21.5 100.5s-6.5 77.5 -6.5 121.5c0 52 4 99 12 141s20 78 36 108c19.333 36.667 42.333 65 69 85s57.667 30 93 30c16 0 29.667 -1.33301 41 -4s21.666 -6 30.999 -10h300v-122h-176v-163h159v-122h-159v-171h179v-122h-303z" />
    <glyph glyph-name="oe" unicode="&#x153;" 
d="M138 250c0 -50.667 4.33594 -89.332 13.0029 -115.999s22.667 -40 42 -40c18 0 31.333 11.667 40 35s13 63.666 13 120.999c0 52 -4 91 -12 117s-21.667 39 -41 39c-8.66699 0 -16.334 -2.66699 -23.001 -8s-12.334 -14 -17.001 -26s-8.33398 -28 -11.001 -48
s-4 -44.667 -4 -74zM302.003 51.002c-11.333 -21.333 -26 -37.501 -44 -48.501s-41.333 -16.5 -70 -16.5c-54.667 0 -98.167 21.833 -130.5 65.5s-48.5 109.834 -48.5 198.501c0 44 4.5 82.5 13.5 115.5s21.667 60.5 38 82.5s35.833 38.5 58.5 49.5s47.334 16.5 74.001 16.5
c31.333 0 55.666 -6.5 72.999 -19.5s31 -28.5 41 -46.5c9.33301 17.333 25.166 32.666 47.499 45.999s48.833 20 79.5 20c19.333 0 38.5 -3.16699 57.5 -9.5s36 -16.833 51 -31.5s27.167 -34 36.5 -58s14 -53.667 14 -89c0 -6 -0.333008 -13.667 -1 -23s-1.5 -19 -2.5 -29
l-3 -30c-1 -10 -2.16699 -19 -3.5 -27h-214c0.666992 -86 27.334 -129 80.001 -129c9.33301 0 19 1 29 3s19.5 4.66699 28.5 8s17.167 7 24.5 11s12.666 8 15.999 12l37 -86c-7.33301 -8 -16.833 -15 -28.5 -21s-24.667 -11.167 -39 -15.5
s-29.166 -7.66602 -44.499 -9.99902s-30 -3.5 -44 -3.5c-25.333 0 -50 6 -74 18s-41.333 27.667 -52 47zM431.003 412.001c-21.333 0 -36.168 -11.001 -44.501 -33.001s-13.166 -50 -14.499 -84h103c0.666992 4.66699 1 8.33398 1 11.001v9c0 28.667 -3.5 52 -10.5 70
s-18.5 27 -34.5 27z" />
    <glyph glyph-name="Racute" unicode="&#x154;" 
d="M62 693c15.333 2.66699 31.8301 5.16699 49.4971 7.5s35.334 4.16602 53.001 5.49902s34.834 2.33301 51.501 3s32 1 46 1c32.667 0 64.834 -3.16699 96.501 -9.5s60 -17.166 85 -32.499s45 -36 60 -62s22.5 -58.333 22.5 -97c0 -28.667 -2.83301 -53.5 -8.5 -74.5
s-13.5 -39.5 -23.5 -55.5s-22.167 -29.833 -36.5 -41.5s-29.833 -22.167 -46.5 -31.5l169 -306h-158l-141 274h-82v-274h-137v693zM271.997 588c-14 0 -27.833 -0.333008 -41.5 -1s-24.167 -2 -31.5 -4v-203h54c38 0 69 8.66699 93 26s36 46 36 86
c0 30 -9.33301 53.5 -28 70.5s-46 25.5 -82 25.5zM288.997 870h159v-30l-160 -88h-103z" />
    <glyph glyph-name="racute" unicode="&#x155;" 
d="M39 110l123.999 -0.000976562v280h-124v110h225l15 -66h4c18.667 22 40 40.333 64 55s52 22 84 22c40 0 71.5 -14.667 94.5 -44s34.5 -78.333 34.5 -147h-117c0 24 -3.5 41.5 -10.5 52.5s-18.167 16.5 -33.5 16.5c-26.667 0 -48.167 -6.66699 -64.5 -20
s-30.166 -28.666 -41.499 -45.999v-213h217v-110h-471v110zM317.999 719.999h158l-137 -154h-80z" />
    <glyph glyph-name="Rcommaaccent" unicode="&#x156;" 
d="M62 693c15.333 2.66699 31.8301 5.16699 49.4971 7.5s35.334 4.16602 53.001 5.49902s34.834 2.33301 51.501 3s32 1 46 1c32.667 0 64.834 -3.16699 96.501 -9.5s60 -17.166 85 -32.499s45 -36 60 -62s22.5 -58.333 22.5 -97c0 -28.667 -2.83301 -53.5 -8.5 -74.5
s-13.5 -39.5 -23.5 -55.5s-22.167 -29.833 -36.5 -41.5s-29.833 -22.167 -46.5 -31.5l169 -306h-158l-141 274h-82v-274h-137v693zM271.997 588c-14 0 -27.833 -0.333008 -41.5 -1s-24.167 -2 -31.5 -4v-203h54c38 0 69 8.66699 93 26s36 46 36 86
c0 30 -9.33301 53.5 -28 70.5s-46 25.5 -82 25.5zM213.997 -95c0 12 2.66504 21.9971 7.99805 29.9971s12 14.5 20 19.5s17 8.5 27 10.5s20 3 30 3c23.333 0 44 -6.66699 62 -20s27 -34 27 -62c0 -19.333 -4.16699 -36.166 -12.5 -50.499s-19 -26.333 -32 -36
s-28 -17 -45 -22s-33.833 -7.5 -50.5 -7.5l-13 48c18.667 0.666992 34.334 4.66699 47.001 12s19.334 16 20.001 26c-25.333 -3.33301 -46.333 -0.166016 -63 9.50098s-25 22.834 -25 39.501z" />
    <glyph glyph-name="rcommaaccent" unicode="&#x157;" 
d="M39 110l123.999 -0.000976562v280h-124v110h225l15 -66h4c18.667 22 40 40.333 64 55s52 22 84 22c40 0 71.5 -14.667 94.5 -44s34.5 -78.333 34.5 -147h-117c0 24 -3.5 41.5 -10.5 52.5s-18.167 16.5 -33.5 16.5c-26.667 0 -48.167 -6.66699 -64.5 -20
s-30.166 -28.666 -41.499 -45.999v-213h217v-110h-471v110zM186.999 -95.001c0 12 2.66504 21.9971 7.99805 29.9971s12 14.5 20 19.5s17 8.5 27 10.5s20 3 30 3c23.333 0 44 -6.66699 62 -20s27 -34 27 -62c0 -19.333 -4.16699 -36.166 -12.5 -50.499s-19 -26.333 -32 -36
s-28 -17 -45 -22s-33.833 -7.5 -50.5 -7.5l-13 48c18.667 0.666992 34.334 4.66699 47.001 12s19.334 16 20.001 26c-25.333 -3.33301 -46.333 -0.166016 -63 9.50098s-25 22.834 -25 39.501z" />
    <glyph glyph-name="Rcaron" unicode="&#x158;" 
d="M62 693c15.333 2.66699 31.8301 5.16699 49.4971 7.5s35.334 4.16602 53.001 5.49902s34.834 2.33301 51.501 3s32 1 46 1c32.667 0 64.834 -3.16699 96.501 -9.5s60 -17.166 85 -32.499s45 -36 60 -62s22.5 -58.333 22.5 -97c0 -28.667 -2.83301 -53.5 -8.5 -74.5
s-13.5 -39.5 -23.5 -55.5s-22.167 -29.833 -36.5 -41.5s-29.833 -22.167 -46.5 -31.5l169 -306h-158l-141 274h-82v-274h-137v693zM271.997 588c-14 0 -27.833 -0.333008 -41.5 -1s-24.167 -2 -31.5 -4v-203h54c38 0 69 8.66699 93 26s36 46 36 86
c0 30 -9.33301 53.5 -28 70.5s-46 25.5 -82 25.5zM314.997 737h-102l-155 133h141l68 -61l73 61h136z" />
    <glyph glyph-name="rcaron" unicode="&#x159;" 
d="M39 110l123.999 -0.000976562v280h-124v110h225l15 -66h4c18.667 22 40 40.333 64 55s52 22 84 22c40 0 71.5 -14.667 94.5 -44s34.5 -78.333 34.5 -147h-117c0 24 -3.5 41.5 -10.5 52.5s-18.167 16.5 -33.5 16.5c-26.667 0 -48.167 -6.66699 -64.5 -20
s-30.166 -28.666 -41.499 -45.999v-213h217v-110h-471v110zM359.999 549.999h-91l-115 182h110l56 -94l62 94h101z" />
    <glyph glyph-name="Sacute" unicode="&#x15a;" 
d="M65 229l110.002 -0.00390625v-99l6 -2c15.333 -6.66699 32.166 -12.167 50.499 -16.5s37.833 -6.5 58.5 -6.5c37.333 0 66.333 7.5 87 22.5s31 35.167 31 60.5c0 22.667 -8.5 41 -25.5 55s-38 26.333 -63 37s-52.333 21.334 -82 32.001s-57 24.167 -82 40.5
s-46 36.833 -63 61.5s-25.5 56.667 -25.5 96c0 30 5.83301 57.5 17.5 82.5s28 46.5 49 64.5s46.167 32 75.5 42s62 15 98 15c40.667 0 80.667 -3.66699 120 -11s70.666 -17.333 93.999 -30v-203h-110v111c-2 0 -4 0.333008 -6 1c-14.667 4 -30.5 7.16699 -47.5 9.5
s-33.833 3.5 -50.5 3.5c-32 0 -57.167 -6.33301 -75.5 -19s-27.5 -29.667 -27.5 -51c0 -22 8.5 -40 25.5 -54s38 -26.667 63 -38s52.333 -22.666 82 -33.999s57 -25.166 82 -41.499s46 -36.833 63 -61.5s25.5 -55.667 25.5 -93c0 -36 -6.66699 -67.5 -20 -94.5
s-32 -49.667 -56 -68s-52.333 -32 -85 -41s-68 -13.5 -106 -13.5c-25.333 0 -48.833 2 -70.5 6s-41.667 9 -60 15s-34.5 12.333 -48.5 19s-25.333 12.334 -34 17.001v186zM349.002 869.996h159v-30l-160 -88h-103z" />
    <glyph glyph-name="sacute" unicode="&#x15b;" 
d="M402 138c0 13.333 -8.16699 24.002 -24.5 32.002s-36.5 15.333 -60.5 22s-50.333 13.5 -79 20.5s-55 16.667 -79 29s-44.167 28 -60.5 47s-24.5 43.5 -24.5 73.5c0 24.667 5.5 46.334 16.5 65.001s26 34.5 45 47.5s41.667 22.833 68 29.5s54.833 10 85.5 10
c32.667 0 61.334 -2.33301 86.001 -7s46.167 -10.334 64.5 -17.001s34 -14.167 47 -22.5s24.167 -15.833 33.5 -22.5l-55 -89c-10 6 -21.5 12.167 -34.5 18.5s-26.667 12.166 -41 17.499s-29.333 9.66602 -45 12.999s-31.167 5 -46.5 5c-28 0 -50.667 -3.66699 -68 -11
s-26 -18.666 -26 -33.999c0 -12 8.16699 -21.667 24.5 -29s36.5 -14.166 60.5 -20.499l79 -20.5c28.667 -7.33301 55 -16.833 79 -28.5s44.167 -26.834 60.5 -45.501s24.5 -42.667 24.5 -72c0 -50.667 -18.5 -90.5 -55.5 -119.5s-91.833 -43.5 -164.5 -43.5
c-57.333 0 -106.833 8.5 -148.5 25.5s-75.167 36.833 -100.5 59.5l60 94c8.66699 -7.33301 20.167 -15.5 34.5 -24.5s30.5 -17.167 48.5 -24.5s37.167 -13.5 57.5 -18.5s40.5 -7.5 60.5 -7.5c21.333 0 39.666 3.66699 54.999 11s23 19.666 23 36.999zM298 720.002h158
l-137 -154h-80z" />
    <glyph glyph-name="Scircumflex" unicode="&#x15c;" 
d="M65 229l110.002 -0.00390625v-99l6 -2c15.333 -6.66699 32.166 -12.167 50.499 -16.5s37.833 -6.5 58.5 -6.5c37.333 0 66.333 7.5 87 22.5s31 35.167 31 60.5c0 22.667 -8.5 41 -25.5 55s-38 26.333 -63 37s-52.333 21.334 -82 32.001s-57 24.167 -82 40.5
s-46 36.833 -63 61.5s-25.5 56.667 -25.5 96c0 30 5.83301 57.5 17.5 82.5s28 46.5 49 64.5s46.167 32 75.5 42s62 15 98 15c40.667 0 80.667 -3.66699 120 -11s70.666 -17.333 93.999 -30v-203h-110v111c-2 0 -4 0.333008 -6 1c-14.667 4 -30.5 7.16699 -47.5 9.5
s-33.833 3.5 -50.5 3.5c-32 0 -57.167 -6.33301 -75.5 -19s-27.5 -29.667 -27.5 -51c0 -22 8.5 -40 25.5 -54s38 -26.667 63 -38s52.333 -22.666 82 -33.999s57 -25.166 82 -41.499s46 -36.833 63 -61.5s25.5 -55.667 25.5 -93c0 -36 -6.66699 -67.5 -20 -94.5
s-32 -49.667 -56 -68s-52.333 -32 -85 -41s-68 -13.5 -106 -13.5c-25.333 0 -48.833 2 -70.5 6s-41.667 9 -60 15s-34.5 12.333 -48.5 19s-25.333 12.334 -34 17.001v186zM531.002 736.996h-136l-73 61l-68 -61h-141l155 133h102z" />
    <glyph glyph-name="scircumflex" unicode="&#x15d;" 
d="M402 138c0 13.333 -8.16699 24.002 -24.5 32.002s-36.5 15.333 -60.5 22s-50.333 13.5 -79 20.5s-55 16.667 -79 29s-44.167 28 -60.5 47s-24.5 43.5 -24.5 73.5c0 24.667 5.5 46.334 16.5 65.001s26 34.5 45 47.5s41.667 22.833 68 29.5s54.833 10 85.5 10
c32.667 0 61.334 -2.33301 86.001 -7s46.167 -10.334 64.5 -17.001s34 -14.167 47 -22.5s24.167 -15.833 33.5 -22.5l-55 -89c-10 6 -21.5 12.167 -34.5 18.5s-26.667 12.166 -41 17.499s-29.333 9.66602 -45 12.999s-31.167 5 -46.5 5c-28 0 -50.667 -3.66699 -68 -11
s-26 -18.666 -26 -33.999c0 -12 8.16699 -21.667 24.5 -29s36.5 -14.166 60.5 -20.499l79 -20.5c28.667 -7.33301 55 -16.833 79 -28.5s44.167 -26.834 60.5 -45.501s24.5 -42.667 24.5 -72c0 -50.667 -18.5 -90.5 -55.5 -119.5s-91.833 -43.5 -164.5 -43.5
c-57.333 0 -106.833 8.5 -148.5 25.5s-75.167 36.833 -100.5 59.5l60 94c8.66699 -7.33301 20.167 -15.5 34.5 -24.5s30.5 -17.167 48.5 -24.5s37.167 -13.5 57.5 -18.5s40.5 -7.5 60.5 -7.5c21.333 0 39.666 3.66699 54.999 11s23 19.666 23 36.999zM266 732.002h86
l111 -182h-103l-55 94l-63 -94h-99z" />
    <glyph glyph-name="Scedilla" unicode="&#x15e;" 
d="M65 229l110.002 -0.00390625v-99l6 -2c15.333 -6.66699 32.166 -12.167 50.499 -16.5s37.833 -6.5 58.5 -6.5c37.333 0 66.333 7.5 87 22.5s31 35.167 31 60.5c0 22.667 -8.5 41 -25.5 55s-38 26.333 -63 37s-52.333 21.334 -82 32.001s-57 24.167 -82 40.5
s-46 36.833 -63 61.5s-25.5 56.667 -25.5 96c0 30 5.83301 57.5 17.5 82.5s28 46.5 49 64.5s46.167 32 75.5 42s62 15 98 15c40.667 0 80.667 -3.66699 120 -11s70.666 -17.333 93.999 -30v-203h-110v111c-2 0 -4 0.333008 -6 1c-14.667 4 -30.5 7.16699 -47.5 9.5
s-33.833 3.5 -50.5 3.5c-32 0 -57.167 -6.33301 -75.5 -19s-27.5 -29.667 -27.5 -51c0 -22 8.5 -40 25.5 -54s38 -26.667 63 -38s52.333 -22.666 82 -33.999s57 -25.166 82 -41.499s46 -36.833 63 -61.5s25.5 -55.667 25.5 -93c0 -36 -6.5 -67.5 -19.5 -94.5
s-31.167 -49.667 -54.5 -68s-51.333 -31.833 -84 -40.5c-13.333 -4 -27.666 -7 -42.999 -9l-17 -34c27.333 -2.66699 48.833 -9.83398 64.5 -21.501s23.5 -29.5 23.5 -53.5c0 -15.333 -3.83301 -28.666 -11.5 -39.999s-18.167 -20.833 -31.5 -28.5s-29 -13.5 -47 -17.5
s-37.333 -6 -58 -6s-42 2 -64 6l9 48c4.66699 -0.666992 9 -1 13 -1h11c25.333 0 41.666 3 48.999 9s11 13 11 21c0 18.667 -28.667 29.334 -86 32.001l48 82c-40 1.33301 -75.333 7 -106 17c-36.667 12.667 -65.667 25.667 -87 39v186z" />
    <glyph glyph-name="scedilla" unicode="&#x15f;" 
d="M402 138c0 13.333 -8.16699 24.001 -24.5 32.001s-36.5 15.333 -60.5 22s-50.333 13.5 -79 20.5s-55 16.667 -79 29s-44.167 28 -60.5 47s-24.5 43.5 -24.5 73.5c0 24.667 5.5 46.334 16.5 65.001s26 34.5 45 47.5s41.667 22.833 68 29.5s54.833 10 85.5 10
c32.667 0 61.334 -2.33301 86.001 -7s46.167 -10.334 64.5 -17.001s34 -14.167 47 -22.5s24.167 -15.833 33.5 -22.5l-55 -89c-10 6 -21.5 12.167 -34.5 18.5s-26.667 12.166 -41 17.499s-29.333 9.66602 -45 12.999s-31.167 5 -46.5 5c-28 0 -50.667 -3.66699 -68 -11
s-26 -18.666 -26 -33.999c0 -12 8.16699 -21.667 24.5 -29s36.5 -14.166 60.5 -20.499l79 -20.5c28.667 -7.33301 55 -16.833 79 -28.5s44.167 -26.834 60.5 -45.501s24.5 -42.667 24.5 -72c0 -50.667 -18.667 -90.667 -56 -120c-30 -23.333 -72.333 -37.333 -127 -42
l-17 -30c27.333 -2.66699 48.833 -9.83398 64.5 -21.501s23.5 -29.5 23.5 -53.5c0 -15.333 -3.83301 -28.666 -11.5 -39.999s-18.167 -20.833 -31.5 -28.5s-29 -13.5 -47 -17.5s-37.333 -6 -58 -6s-42 2 -64 6l9 48c4.66699 -0.666992 9 -1 13 -1h11
c25.333 0 41.666 3 48.999 9s11 13 11 21c0 18.667 -28.667 29.334 -86 32.001l50 83c-38 4 -72 11.667 -102 23c-41.333 17.333 -74.666 37.333 -99.999 60l60 94c8.66699 -7.33301 20.167 -15.5 34.5 -24.5s30.5 -17.167 48.5 -24.5s37.167 -13.5 57.5 -18.5
s40.5 -7.5 60.5 -7.5c21.333 0 39.666 3.66699 54.999 11s23 19.666 23 36.999z" />
    <glyph glyph-name="Scaron" unicode="&#x160;" 
d="M65 229l110.002 -0.00390625v-99l6 -2c15.333 -6.66699 32.166 -12.167 50.499 -16.5s37.833 -6.5 58.5 -6.5c37.333 0 66.333 7.5 87 22.5s31 35.167 31 60.5c0 22.667 -8.5 41 -25.5 55s-38 26.333 -63 37s-52.333 21.334 -82 32.001s-57 24.167 -82 40.5
s-46 36.833 -63 61.5s-25.5 56.667 -25.5 96c0 30 5.83301 57.5 17.5 82.5s28 46.5 49 64.5s46.167 32 75.5 42s62 15 98 15c40.667 0 80.667 -3.66699 120 -11s70.666 -17.333 93.999 -30v-203h-110v111c-2 0 -4 0.333008 -6 1c-14.667 4 -30.5 7.16699 -47.5 9.5
s-33.833 3.5 -50.5 3.5c-32 0 -57.167 -6.33301 -75.5 -19s-27.5 -29.667 -27.5 -51c0 -22 8.5 -40 25.5 -54s38 -26.667 63 -38s52.333 -22.666 82 -33.999s57 -25.166 82 -41.499s46 -36.833 63 -61.5s25.5 -55.667 25.5 -93c0 -36 -6.66699 -67.5 -20 -94.5
s-32 -49.667 -56 -68s-52.333 -32 -85 -41s-68 -13.5 -106 -13.5c-25.333 0 -48.833 2 -70.5 6s-41.667 9 -60 15s-34.5 12.333 -48.5 19s-25.333 12.334 -34 17.001v186zM358.002 736.996h-102l-155 133h141l68 -61l73 61h136z" />
    <glyph glyph-name="scaron" unicode="&#x161;" 
d="M402 138c0 13.333 -8.16699 24.002 -24.5 32.002s-36.5 15.333 -60.5 22s-50.333 13.5 -79 20.5s-55 16.667 -79 29s-44.167 28 -60.5 47s-24.5 43.5 -24.5 73.5c0 24.667 5.5 46.334 16.5 65.001s26 34.5 45 47.5s41.667 22.833 68 29.5s54.833 10 85.5 10
c32.667 0 61.334 -2.33301 86.001 -7s46.167 -10.334 64.5 -17.001s34 -14.167 47 -22.5s24.167 -15.833 33.5 -22.5l-55 -89c-10 6 -21.5 12.167 -34.5 18.5s-26.667 12.166 -41 17.499s-29.333 9.66602 -45 12.999s-31.167 5 -46.5 5c-28 0 -50.667 -3.66699 -68 -11
s-26 -18.666 -26 -33.999c0 -12 8.16699 -21.667 24.5 -29s36.5 -14.166 60.5 -20.499l79 -20.5c28.667 -7.33301 55 -16.833 79 -28.5s44.167 -26.834 60.5 -45.501s24.5 -42.667 24.5 -72c0 -50.667 -18.5 -90.5 -55.5 -119.5s-91.833 -43.5 -164.5 -43.5
c-57.333 0 -106.833 8.5 -148.5 25.5s-75.167 36.833 -100.5 59.5l60 94c8.66699 -7.33301 20.167 -15.5 34.5 -24.5s30.5 -17.167 48.5 -24.5s37.167 -13.5 57.5 -18.5s40.5 -7.5 60.5 -7.5c21.333 0 39.666 3.66699 54.999 11s23 19.666 23 36.999zM342 550.002h-91
l-115 182h110l56 -94l62 94h101z" />
    <glyph glyph-name="Tcedilla" unicode="&#x162;" 
d="M346 0l-23.999 -43.001c27.333 -2.66699 48.833 -9.83398 64.5 -21.501s23.5 -29.5 23.5 -53.5c0 -15.333 -3.83301 -28.666 -11.5 -39.999s-18.167 -20.833 -31.5 -28.5s-29 -13.5 -47 -17.5s-37.333 -6 -58 -6s-42 2 -64 6l9 48c4.66699 -0.666992 9 -1 13 -1h11
c25.333 0 41.666 3 48.999 9s11 13 11 21c0 18.667 -28.667 29.334 -86 32.001l57 95h-144v110h114v480h-96v-121h-110v231h548v-231h-110v121h-95v-480h113v-110h-136z" />
    <glyph glyph-name="tcedilla" unicode="&#x163;" 
d="M116 390l-99 -0.00195312v110h99v114l130 37v-151h262v-110h-262v-143c0 -51.333 9.66699 -88.5 29 -111.5s46.333 -34.5 81 -34.5c18 0 34.333 2.16699 49 6.5s27.834 9.83301 39.501 16.5s22.334 14 32.001 22l26.5 22l60 -90c-11.333 -13.333 -25.5 -25.5 -42.5 -36.5
s-35.333 -20.667 -55 -29s-40.167 -14.833 -61.5 -19.5c-16.667 -3.33301 -33.334 -5.66602 -50.001 -6.99902l-16 -29c27.333 -2.66699 48.833 -9.83398 64.5 -21.501s23.5 -29.5 23.5 -53.5c0 -15.333 -3.83301 -28.666 -11.5 -39.999s-18.167 -20.833 -31.5 -28.5
s-29 -13.5 -47 -17.5s-37.333 -6 -58 -6s-42 2 -64 6l9 48c4.66699 -0.666992 9 -1 13 -1h11c25.333 0 41.666 3 48.999 9s11 13 11 21c0 18.667 -28.667 29.334 -86 32.001l52 88c-42 8.66699 -75.667 27 -101 55c-37.333 42 -56 108.333 -56 199v143z" />
    <glyph glyph-name="Tcaron" unicode="&#x164;" 
d="M118 110h114v480h-96v-121h-110v231h548v-231h-110v121h-95v-480h113v-110h-364v110zM348 737h-102l-155 133h141l68 -61l73 61h136z" />
    <glyph glyph-name="tcaron" unicode="&#x165;" 
d="M116 390l-99.001 -0.000976562v110h99v114l130 37v-151h262v-110h-262v-143c0 -51.333 9.66699 -88.5 29 -111.5s46.333 -34.5 81 -34.5c18 0 34.333 2.16699 49 6.5s27.834 9.83301 39.501 16.5s22.334 14 32.001 22l26.5 22l60 -90
c-11.333 -13.333 -25.5 -25.5 -42.5 -36.5s-35.333 -20.667 -55 -29s-40.167 -14.833 -61.5 -19.5s-42.333 -7 -63 -7c-74.667 0 -130.834 20.833 -168.501 62.5s-56.5 107.834 -56.5 198.501v143zM449.999 732.999c-1.33301 -19.333 -5.33301 -39.5 -12 -60.5
s-14.5 -41 -23.5 -60s-18.5 -36 -28.5 -51s-19 -25.833 -27 -32.5l-58 31c11.333 24 20 51.167 26 81.5s9 60.833 9 91.5h114z" />
    <glyph glyph-name="Umacron" unicode="&#x16a;" 
d="M420 700l130.002 0.000976562v-448c0 -45.333 -6 -84.5 -18 -117.5s-28.833 -60.333 -50.5 -82s-47.5 -37.834 -77.5 -48.501s-63 -16 -99 -16c-86.667 0 -150.834 21 -192.501 63s-62.5 103.333 -62.5 184v465h137v-438c0 -53.333 9.66699 -92 29 -116
s49.666 -36 90.999 -36c40 0 68.833 12.833 86.5 38.5s26.5 63.5 26.5 113.5v438zM129.002 856.001h343v-89h-343v89z" />
    <glyph glyph-name="umacron" unicode="&#x16b;" 
d="M330 500h185.999v-348v-42h76v-110h-158l-23 74h-4c-15.333 -25.333 -38.333 -46.333 -69 -63s-64.667 -25 -102 -25c-25.333 0 -48.5 3.33301 -69.5 10s-38.833 17.667 -53.5 33s-26 36 -34 62s-12 58.667 -12 98v201h-57v110h187v-284c0 -40.667 6.5 -70 19.5 -88
s33.5 -27 61.5 -27c24.667 0 46.834 7.33301 66.501 22s33.5 32.667 41.5 54v213h-56v110zM121.999 658h323v-92h-323v92z" />
    <glyph glyph-name="Ubreve" unicode="&#x16c;" 
d="M420 700l130.002 0.000976562v-448c0 -45.333 -6 -84.5 -18 -117.5s-28.833 -60.333 -50.5 -82s-47.5 -37.834 -77.5 -48.501s-63 -16 -99 -16c-86.667 0 -150.834 21 -192.501 63s-62.5 103.333 -62.5 184v465h137v-438c0 -53.333 9.66699 -92 29 -116
s49.666 -36 90.999 -36c40 0 68.833 12.833 86.5 38.5s26.5 63.5 26.5 113.5v438zM162.002 885.001c13.333 -17.333 32.665 -30.667 57.998 -40s53.666 -14 84.999 -14c32 0 59.5 5 82.5 15s41.167 23 54.5 39l58 -45c-24.667 -36 -54 -61.667 -88 -77s-70 -23 -108 -23
c-18 0 -36.167 1.5 -54.5 4.5s-36.166 8.16699 -53.499 15.5s-34.166 17.5 -50.499 30.5s-31.166 29.5 -44.499 49.5z" />
    <glyph glyph-name="ubreve" unicode="&#x16d;" 
d="M330 500h185.999v-348v-42h76v-110h-158l-23 74h-4c-15.333 -25.333 -38.333 -46.333 -69 -63s-64.667 -25 -102 -25c-25.333 0 -48.5 3.33301 -69.5 10s-38.833 17.667 -53.5 33s-26 36 -34 62s-12 58.667 -12 98v201h-57v110h187v-284c0 -40.667 6.5 -70 19.5 -88
s33.5 -27 61.5 -27c24.667 0 46.834 7.33301 66.501 22s33.5 32.667 41.5 54v213h-56v110zM164.999 720c11.333 -20 27.168 -34.833 47.501 -44.5s41.833 -14.5 64.5 -14.5s43.5 5 62.5 15s33.5 24.667 43.5 44l60 -27c-2 -16 -7.5 -31.833 -16.5 -47.5
s-20.833 -29.5 -35.5 -41.5s-31.834 -21.667 -51.501 -29s-40.834 -11 -63.501 -11c-44 0 -81.667 11.167 -113 33.5s-51.666 52.5 -60.999 90.5z" />
    <glyph glyph-name="Uring" unicode="&#x16e;" 
d="M420 700l130.002 0.000976562v-448c0 -45.333 -6 -84.5 -18 -117.5s-28.833 -60.333 -50.5 -82s-47.5 -37.834 -77.5 -48.501s-63 -16 -99 -16c-86.667 0 -150.834 21 -192.501 63s-62.5 103.333 -62.5 184v465h137v-438c0 -53.333 9.66699 -92 29 -116
s49.666 -36 90.999 -36c40 0 68.833 12.833 86.5 38.5s26.5 63.5 26.5 113.5v438zM176.002 772.001c0 12 2.00098 23.5029 6.00098 34.5029s10.833 20.667 20.5 29s22.667 14.833 39 19.5s37.166 7 62.499 7c46.667 0 79.667 -8 99 -24s29 -38 29 -66
c0 -12 -2.16699 -23.333 -6.5 -34s-11.5 -19.834 -21.5 -27.501s-23.167 -13.834 -39.5 -18.501s-36.5 -7 -60.5 -7c-47.333 0 -80.5 8.16699 -99.5 24.5s-28.5 37.166 -28.5 62.499zM260.003 772.004c0 -20.667 14.666 -30.999 43.999 -30.999
c16.667 0 28.334 2.66699 35.001 8s10 13 10 23c0 11.333 -3.5 19.666 -10.5 24.999s-18.5 8.33301 -34.5 9c-29.333 -0.666992 -44 -12 -44 -34z" />
    <glyph glyph-name="uring" unicode="&#x16f;" 
d="M330 500h185.999v-348v-42h76v-110h-158l-23 74h-4c-15.333 -25.333 -38.333 -46.333 -69 -63s-64.667 -25 -102 -25c-25.333 0 -48.5 3.33301 -69.5 10s-38.833 17.667 -53.5 33s-26 36 -34 62s-12 58.667 -12 98v201h-57v110h187v-284c0 -40.667 6.5 -70 19.5 -88
s33.5 -27 61.5 -27c24.667 0 46.834 7.33301 66.501 22s33.5 32.667 41.5 54v213h-56v110zM170.999 647c0 28 9.5 50.999 28.5 68.999s46.5 27 82.5 27c34 0 61 -8.16699 81 -24.5s30 -40.166 30 -71.499c0 -26 -9.83301 -48.167 -29.5 -66.5s-46.834 -27.5 -81.501 -27.5
c-35.333 0 -62.666 8.5 -81.999 25.5s-29 39.833 -29 68.5zM242.999 646.999c0 -10.667 4.00195 -18.832 12.002 -24.499s17 -8.5 27 -8.5c11.333 0 20.666 2.66699 27.999 8s11 13.666 11 24.999s-3.83301 19.833 -11.5 25.5s-16.834 8.5 -27.501 8.5
c-10 0 -19 -2.66699 -27 -8s-12 -14 -12 -26z" />
    <glyph glyph-name="Uhungarumlaut" unicode="&#x170;" 
d="M420 700l130.002 0.000976562v-448c0 -45.333 -6 -84.5 -18 -117.5s-28.833 -60.333 -50.5 -82s-47.5 -37.834 -77.5 -48.501s-63 -16 -99 -16c-86.667 0 -150.834 21 -192.501 63s-62.5 103.333 -62.5 184v465h137v-438c0 -53.333 9.66699 -92 29 -116
s49.666 -36 90.999 -36c40 0 68.833 12.833 86.5 38.5s26.5 63.5 26.5 113.5v438zM211.002 850.001h134v-16l-100 -93h-93zM409.002 850.001h140v-16l-143 -93h-94z" />
    <glyph glyph-name="uhungarumlaut" unicode="&#x171;" 
d="M330 500h185.999v-348v-42h76v-110h-158l-23 74h-4c-15.333 -25.333 -38.333 -46.333 -69 -63s-64.667 -25 -102 -25c-25.333 0 -48.5 3.33301 -69.5 10s-38.833 17.667 -53.5 33s-26 36 -34 62s-12 58.667 -12 98v201h-57v110h187v-284c0 -40.667 6.5 -70 19.5 -88
s33.5 -27 61.5 -27c24.667 0 46.834 7.33301 66.501 22s33.5 32.667 41.5 54v213h-56v110zM190.999 700h129l-86 -129h-78zM368.999 700h142l-134 -129h-81z" />
    <glyph glyph-name="Uogonek" unicode="&#x172;" 
d="M420 700l130.001 0.000976562v-448c0 -45.333 -6 -84.5 -18 -117.5s-29 -60.5 -51 -82.5c-18 -18 -38.667 -32 -62 -42c-14 -10 -25.333 -21.333 -34 -34c-10 -14.667 -15 -29.667 -15 -45c0 -12 3.83301 -22.667 11.5 -32s18.834 -14 33.501 -14c12 0 25 3.66699 39 11
l19 -62c-10 -8 -25.833 -16 -47.5 -24s-44.167 -12 -67.5 -12c-37.333 0 -65.833 9.16699 -85.5 27.5s-29.5 41.166 -29.5 68.499c0 36.667 18 68 54 94c-82.667 1.33301 -144.334 22.333 -185.001 63c-41.333 42 -62 103.333 -62 184v465h137v-438
c0 -53.333 9.66699 -92 29 -116s49.666 -36 90.999 -36c40 0 68.833 12.833 86.5 38.5s26.5 63.5 26.5 113.5v438z" />
    <glyph glyph-name="uogonek" unicode="&#x173;" 
d="M330 500l186 0.000976562v-390h76v-110h-28c-32 -15.333 -48 -38.333 -48 -69c0 -12 3.66699 -22.167 11 -30.5s17.666 -12.5 30.999 -12.5c12 0 26 4 42 12l19 -62c-10 -8 -25.833 -15.833 -47.5 -23.5s-44.167 -11.5 -67.5 -11.5c-37.333 0 -65.833 8.33301 -85.5 25
s-29.5 38.667 -29.5 66s9 50.666 27 69.999c13.333 14 30.333 26 51 36h-33l-23 74h-4c-15.333 -25.333 -38.333 -46.333 -69 -63s-64.667 -25 -102 -25c-25.333 0 -48.5 3.33301 -69.5 10s-38.833 17.667 -53.5 33s-26 36 -34 62s-12 58.667 -12 98v201h-57v110h187v-284
c0 -40.667 6.5 -70 19.5 -88s33.5 -27 61.5 -27c24.667 0 46.834 7.33301 66.501 22s33.5 32.667 41.5 54v213h-56v110z" />
    <glyph glyph-name="Ydieresis" unicode="&#x178;" 
d="M232 258l-226 442h163l135 -289h5l138 289h147l-225 -441v-259h-137v258zM97 805c0 18 6.33301 32.667 19 44s33 17 61 17s48.333 -5.66699 61 -17s19 -26 19 -44c0 -18.667 -6.33301 -33.334 -19 -44.001s-33 -16 -61 -16s-48.333 5.33301 -61 16s-19 25.334 -19 44.001
zM343 805c0 18 6.33301 32.667 19 44s33 17 61 17s48.333 -5.66699 61 -17s19 -26 19 -44c0 -18.667 -6.33301 -33.334 -19 -44.001s-33 -16 -61 -16s-48.333 5.33301 -61 16s-19 25.334 -19 44.001z" />
    <glyph glyph-name="Zacute" unicode="&#x179;" 
d="M53 122l328 456h-312v122h473v-122l-323 -456h328v-122h-494v122zM328 870h159v-30l-160 -88h-103z" />
    <glyph glyph-name="zacute" unicode="&#x17a;" 
d="M64 110l308 280h-308v110h472v-110l-305 -280h305v-110h-472v110zM305 720h158l-137 -154h-80z" />
    <glyph glyph-name="Zdotaccent" unicode="&#x17b;" 
d="M53 122l328 456h-312v122h473v-122l-323 -456h328v-122h-494v122zM210 809c0 18 7.66699 33.333 23 46s38.666 19 69.999 19c30.667 0 54.334 -6.33301 71.001 -19s25 -28 25 -46c0 -19.333 -8.33301 -35.333 -25 -48s-40.334 -19 -71.001 -19
c-31.333 0 -54.666 6.33301 -69.999 19s-23 28.667 -23 48z" />
    <glyph glyph-name="zdotaccent" unicode="&#x17c;" 
d="M64 110l308 280h-308v110h472v-110l-305 -280h305v-110h-472v110zM218 636c0 20.667 7.66699 38.334 23 53.001s36.666 22 63.999 22c28 0 50.333 -7.33301 67 -22s25 -32.334 25 -53.001c0 -21.333 -8.33301 -38.833 -25 -52.5s-39 -20.5 -67 -20.5
c-27.333 0 -48.666 6.83301 -63.999 20.5s-23 31.167 -23 52.5z" />
    <glyph glyph-name="Zcaron" unicode="&#x17d;" 
d="M53 122l328 456h-312v122h473v-122l-323 -456h328v-122h-494v122zM348 737h-102l-155 133h141l68 -61l73 61h136z" />
    <glyph glyph-name="zcaron" unicode="&#x17e;" 
d="M64 110l308 280h-308v110h472v-110l-305 -280h305v-110h-472v110zM342 550h-91l-115 182h110l56 -94l62 94h101z" />
    <glyph glyph-name="longs" unicode="&#x17f;" 
d="M80 500l109 0.00292969v12c0 63.333 17.5 111.833 52.5 145.5s82.833 50.5 143.5 50.5c30 0 59.833 -2.33301 89.5 -7s54.5 -11.334 74.5 -20.001l-26 -104c-19.333 7.33301 -37.833 12.666 -55.5 15.999s-33.167 5 -46.5 5c-34 0 -59.5 -9.83301 -76.5 -29.5
s-25.5 -45.834 -25.5 -78.501v-490h-130v390h-109v110z" />
    <glyph glyph-name="florin" unicode="&#x192;" 
d="M390 390l-71.0029 -423.998c-4 -24.667 -9.83301 -47.5 -17.5 -68.5s-18.334 -39.333 -32.001 -55s-30.667 -28 -51 -37s-45.166 -13.5 -74.499 -13.5c-9.33301 0 -20.666 0.666992 -33.999 2s-26.833 3 -40.5 5s-26.667 4.5 -39 7.5s-22.5 6.16699 -30.5 9.5l21 105
c15.333 -6.66699 29.333 -11.5 42 -14.5s28.334 -4.5 47.001 -4.5c24 0 42.667 8.16699 56 24.5s23 43.5 29 81.5l61 382h-78v110h96l11 67c4 24.667 9.5 46.167 16.5 64.5s16.667 33.666 29 45.999s28.166 21.5 47.499 27.5s43.333 9 72 9
c10.667 0 22.667 -0.833008 36 -2.5s26.833 -4 40.5 -7s26.834 -6.33301 39.501 -10s24 -7.83398 34 -12.501l-32 -97c-15.333 6 -30.5 10.667 -45.5 14s-30.167 5 -45.5 5c-21.333 0 -36.166 -5.16699 -44.499 -15.5s-14.5 -28.833 -18.5 -55.5l-5 -33h119v-110h-138z" />
    <glyph glyph-name="uni01F4" unicode="&#x1f4;" 
d="M323 365l239.002 0.00390625v-316c-22.667 -20.667 -52.167 -36.334 -88.5 -47.001s-73.5 -16 -111.5 -16c-44.667 0 -86.5 7.66699 -125.5 23s-72.833 38.5 -101.5 69.5s-51.334 69.333 -68.001 115s-25 99.167 -25 160.5c0 64.667 10 119.667 30 165
s45.833 82.5 77.5 111.5s67.167 50.167 106.5 63.5s78.333 20 117 20c40 0 73.333 -3.16699 100 -9.5s51 -14.5 73 -24.5v-207h-110v111l-16 4c-13.333 2.66699 -28 4 -44 4c-27.333 0 -52.666 -4.66699 -75.999 -14s-43.5 -23.833 -60.5 -43.5
s-30.167 -44.834 -39.5 -75.501s-14 -67.334 -14 -110.001c0 -38 4.66699 -72 14 -102s22.333 -55.333 39 -76s36.5 -36.334 59.5 -47.001s47.833 -16 74.5 -16c17.333 0 33.166 2 47.499 6s24.166 8 29.499 12v139h-127v100zM398.002 870.004h159v-30l-160 -88h-103z" />
    <glyph glyph-name="uni01F5" unicode="&#x1f5;" 
d="M530 0c0 -36 -6.16504 -67.3281 -18.498 -93.9951s-29.333 -48.834 -51 -66.501s-47.334 -30.667 -77.001 -39s-62.167 -12.5 -97.5 -12.5c-24 0 -46.5 1.83301 -67.5 5.5s-40.333 8.5 -58 14.5s-33.167 12.5 -46.5 19.5s-24 13.833 -32 20.5l50 92
c16 -10.667 35.167 -20.834 57.5 -30.501s50.5 -14.5 84.5 -14.5c42 0 74 9.66699 96 29s33 47 33 83v32h-4c-12 -16 -29.667 -27.833 -53 -35.5s-50.333 -11.5 -81 -11.5c-32 0 -61.5 5 -88.5 15s-50.5 25.167 -70.5 45.5s-35.5 46.166 -46.5 77.499s-16.5 68 -16.5 110
c0 44 6.5 83 19.5 117s31.333 62.5 55 85.5s52 40.333 85 52s69.833 17.5 110.5 17.5c21.333 0 42.666 -0.833008 63.999 -2.5s41.5 -3.83398 60.5 -6.50098s36.5 -5.83398 52.5 -9.50098s29.333 -7.5 40 -11.5v-482zM290.002 96.0049
c25.333 0 48.168 5.66797 68.501 17.001s34.166 28.333 41.499 51v225c-9.33301 4 -22.5 7.16699 -39.5 9.5s-33.167 3.5 -48.5 3.5c-18.667 0 -36.167 -3 -52.5 -9s-30.666 -15.5 -42.999 -28.5s-22 -29.333 -29 -49s-10.5 -43.167 -10.5 -70.5c0 -24 3 -45.333 9 -64
s14.333 -34.334 25 -47.001s22.667 -22.167 36 -28.5s27.666 -9.5 42.999 -9.5zM327.004 720.006h158l-137 -154h-80z" />
    <glyph glyph-name="Scommaaccent" unicode="&#x218;" 
d="M65 229l110.002 -0.00390625v-99l6 -2c15.333 -6.66699 32.166 -12.167 50.499 -16.5s37.833 -6.5 58.5 -6.5c37.333 0 66.333 7.5 87 22.5s31 35.167 31 60.5c0 22.667 -8.5 41 -25.5 55s-38 26.333 -63 37s-52.333 21.334 -82 32.001s-57 24.167 -82 40.5
s-46 36.833 -63 61.5s-25.5 56.667 -25.5 96c0 30 5.83301 57.5 17.5 82.5s28 46.5 49 64.5s46.167 32 75.5 42s62 15 98 15c40.667 0 80.667 -3.66699 120 -11s70.666 -17.333 93.999 -30v-203h-110v111c-2 0 -4 0.333008 -6 1c-14.667 4 -30.5 7.16699 -47.5 9.5
s-33.833 3.5 -50.5 3.5c-32 0 -57.167 -6.33301 -75.5 -19s-27.5 -29.667 -27.5 -51c0 -22 8.5 -40 25.5 -54s38 -26.667 63 -38s52.333 -22.666 82 -33.999s57 -25.166 82 -41.499s46 -36.833 63 -61.5s25.5 -55.667 25.5 -93c0 -36 -6.66699 -67.5 -20 -94.5
s-32 -49.667 -56 -68s-52.333 -32 -85 -41s-68 -13.5 -106 -13.5c-25.333 0 -48.833 2 -70.5 6s-41.667 9 -60 15s-34.5 12.333 -48.5 19s-25.333 12.334 -34 17.001v186zM210.002 -95.0039c0 12 2.66504 21.9971 7.99805 29.9971s12 14.5 20 19.5s17 8.5 27 10.5s20 3 30 3
c23.333 0 44 -6.66699 62 -20s27 -34 27 -62c0 -19.333 -4.16699 -36.166 -12.5 -50.499s-19 -26.333 -32 -36s-28 -17 -45 -22s-33.833 -7.5 -50.5 -7.5l-13 48c18.667 0.666992 34.334 4.66699 47.001 12s19.334 16 20.001 26
c-25.333 -3.33301 -46.333 -0.166016 -63 9.50098s-25 22.834 -25 39.501z" />
    <glyph glyph-name="scommaaccent" unicode="&#x219;" 
d="M402 138c0 13.333 -8.16699 24.002 -24.5 32.002s-36.5 15.333 -60.5 22s-50.333 13.5 -79 20.5s-55 16.667 -79 29s-44.167 28 -60.5 47s-24.5 43.5 -24.5 73.5c0 24.667 5.5 46.334 16.5 65.001s26 34.5 45 47.5s41.667 22.833 68 29.5s54.833 10 85.5 10
c32.667 0 61.334 -2.33301 86.001 -7s46.167 -10.334 64.5 -17.001s34 -14.167 47 -22.5s24.167 -15.833 33.5 -22.5l-55 -89c-10 6 -21.5 12.167 -34.5 18.5s-26.667 12.166 -41 17.499s-29.333 9.66602 -45 12.999s-31.167 5 -46.5 5c-28 0 -50.667 -3.66699 -68 -11
s-26 -18.666 -26 -33.999c0 -12 8.16699 -21.667 24.5 -29s36.5 -14.166 60.5 -20.499l79 -20.5c28.667 -7.33301 55 -16.833 79 -28.5s44.167 -26.834 60.5 -45.501s24.5 -42.667 24.5 -72c0 -50.667 -18.5 -90.5 -55.5 -119.5s-91.833 -43.5 -164.5 -43.5
c-57.333 0 -106.833 8.5 -148.5 25.5s-75.167 36.833 -100.5 59.5l60 94c8.66699 -7.33301 20.167 -15.5 34.5 -24.5s30.5 -17.167 48.5 -24.5s37.167 -13.5 57.5 -18.5s40.5 -7.5 60.5 -7.5c21.333 0 39.666 3.66699 54.999 11s23 19.666 23 36.999zM214 -94.998
c0 12 2.66504 21.9971 7.99805 29.9971s12 14.5 20 19.5s17 8.5 27 10.5s20 3 30 3c23.333 0 44 -6.66699 62 -20s27 -34 27 -62c0 -19.333 -4.16699 -36.166 -12.5 -50.499s-19 -26.333 -32 -36s-28 -17 -45 -22s-33.833 -7.5 -50.5 -7.5l-13 48
c18.667 0.666992 34.334 4.66699 47.001 12s19.334 16 20.001 26c-25.333 -3.33301 -46.333 -0.166016 -63 9.50098s-25 22.834 -25 39.501z" />
    <glyph glyph-name="Tcommaaccent" unicode="&#x21a;" 
d="M118 110h114v480h-96v-121h-110v231h548v-231h-110v121h-95v-480h113v-110h-364v110zM210 -95c0 12 2.66504 21.9971 7.99805 29.9971s12 14.5 20 19.5s17 8.5 27 10.5s20 3 30 3c23.333 0 44 -6.66699 62 -20s27 -34 27 -62c0 -19.333 -4.16699 -36.166 -12.5 -50.499
s-19 -26.333 -32 -36s-28 -17 -45 -22s-33.833 -7.5 -50.5 -7.5l-13 48c18.667 0.666992 34.334 4.66699 47.001 12s19.334 16 20.001 26c-25.333 -3.33301 -46.333 -0.166016 -63 9.50098s-25 22.834 -25 39.501z" />
    <glyph glyph-name="tcommaaccent" unicode="&#x21b;" 
d="M116 390l-99.001 -0.000976562v110h99v114l130 37v-151h262v-110h-262v-143c0 -51.333 9.66699 -88.5 29 -111.5s46.333 -34.5 81 -34.5c18 0 34.333 2.16699 49 6.5s27.834 9.83301 39.501 16.5s22.334 14 32.001 22l26.5 22l60 -90
c-11.333 -13.333 -25.5 -25.5 -42.5 -36.5s-35.333 -20.667 -55 -29s-40.167 -14.833 -61.5 -19.5s-42.333 -7 -63 -7c-74.667 0 -130.834 20.833 -168.501 62.5s-56.5 107.834 -56.5 198.501v143zM236.999 -95.001c0 12 2.66504 21.9971 7.99805 29.9971s12 14.5 20 19.5
s17 8.5 27 10.5s20 3 30 3c23.333 0 44 -6.66699 62 -20s27 -34 27 -62c0 -19.333 -4.16699 -36.166 -12.5 -50.499s-19 -26.333 -32 -36s-28 -17 -45 -22s-33.833 -7.5 -50.5 -7.5l-13 48c18.667 0.666992 34.334 4.66699 47.001 12s19.334 16 20.001 26
c-25.333 -3.33301 -46.333 -0.166016 -63 9.50098s-25 22.834 -25 39.501z" />
    <glyph glyph-name="uni0237" unicode="&#x237;" 
d="M94 500l367.999 -0.000976562v-461c0 -76.667 -20 -137 -60 -181s-100 -66 -180 -66c-32.667 0 -63.667 5 -93 15s-54.666 24.667 -75.999 44l58 96c7.33301 -6 20.5 -13.5 39.5 -22.5s40.5 -13.5 64.5 -13.5c16 0 31.167 2.5 45.5 7.5s26.833 13.333 37.5 25
s19 26.834 25 45.501s9 42 9 70v331h-238v110z" />
    <glyph glyph-name="afii57929" unicode="&#x2bc;" 
d="M218 646c0 8.66699 1.66504 17.333 4.99805 26s8.33301 16.5 15 23.5s14.834 12.667 24.501 17s20.5 6.5 32.5 6.5c13.333 0 26.166 -2.5 38.499 -7.5s22.833 -12.167 31.5 -21.5c7.33301 -8.66699 13 -19 17 -31s6 -24.667 6 -38c0 -25.333 -4.5 -48.666 -13.5 -69.999
s-21.833 -40.333 -38.5 -57c-7.33301 -7.33301 -15.666 -14.166 -24.999 -20.499s-18.166 -11.666 -26.499 -15.999s-15.5 -7.83301 -21.5 -10.5s-9.66699 -4.33398 -11 -5.00098l-40 59c7.33301 2.66699 15.5 6.16699 24.5 10.5s17.5 9.66602 25.5 15.999
s14.667 13.833 20 22.5s8.33301 18.667 9 30c-19.333 0 -36.333 5.66699 -51 17s-22 27.666 -22 48.999z" />
    <glyph glyph-name="circumflex" unicode="&#x2c6;" 
d="M263 732h86l111 -182h-103l-55 94l-63 -94h-99z" />
    <glyph glyph-name="caron" unicode="&#x2c7;" 
d="M341 550h-91l-115 182h110l56 -94l62 94h101z" />
    <glyph glyph-name="breve" unicode="&#x2d8;" 
d="M192 720c11.333 -20 27.168 -34.833 47.501 -44.5s41.833 -14.5 64.5 -14.5s43.5 5 62.5 15s33.5 24.667 43.5 44l60 -27c-2 -16 -7.5 -31.833 -16.5 -47.5s-20.833 -29.5 -35.5 -41.5s-31.834 -21.667 -51.501 -29s-40.834 -11 -63.501 -11
c-44 0 -81.667 11.167 -113 33.5s-51.666 52.5 -60.999 90.5z" />
    <glyph glyph-name="dotaccent" unicode="&#x2d9;" 
d="M211 636c0 20.667 7.66699 38.334 23 53.001s36.666 22 63.999 22c28 0 50.333 -7.33301 67 -22s25 -32.334 25 -53.001c0 -21.333 -8.33301 -38.833 -25 -52.5s-39 -20.5 -67 -20.5c-27.333 0 -48.666 6.83301 -63.999 20.5s-23 31.167 -23 52.5z" />
    <glyph glyph-name="ring" unicode="&#x2da;" 
d="M189 647c0 28 9.5 50.999 28.5 68.999s46.5 27 82.5 27c34 0 61 -8.16699 81 -24.5s30 -40.166 30 -71.499c0 -26 -9.83301 -48.167 -29.5 -66.5s-46.834 -27.5 -81.501 -27.5c-35.333 0 -62.666 8.5 -81.999 25.5s-29 39.833 -29 68.5zM261 646.999
c0 -10.667 4.00195 -18.832 12.002 -24.499s17 -8.5 27 -8.5c11.333 0 20.666 2.66699 27.999 8s11 13.666 11 24.999s-3.83301 19.833 -11.5 25.5s-16.834 8.5 -27.501 8.5c-10 0 -19 -2.66699 -27 -8s-12 -14 -12 -26z" />
    <glyph glyph-name="ogonek" unicode="&#x2db;" 
d="M388 10c-50.667 -14.667 -75.999 -40.998 -75.999 -78.998c0 -12 3.66699 -22.167 11 -30.5s17.666 -12.5 30.999 -12.5c12 0 26 4 42 12l19 -62c-10 -8 -25.833 -15.833 -47.5 -23.5s-44.167 -11.5 -67.5 -11.5c-37.333 0 -65.833 8.33301 -85.5 25
s-29.5 38.667 -29.5 66s9.16699 50.666 27.5 69.999s43.5 34.666 75.5 45.999h100z" />
    <glyph glyph-name="tilde" unicode="&#x2dc;" 
d="M134 658c20.667 24.667 39.8311 41.6699 57.498 51.0029s34.5 14 50.5 14c13.333 0 26.166 -2.33301 38.499 -7s24.5 -9.66699 36.5 -15l35 -15c11.333 -4.66699 23 -6.33398 35 -5.00098c9.33301 -1.33301 18.833 0 28.5 4s19.834 11 30.501 21l20 -70
c-19.333 -21.333 -37.166 -36 -53.499 -44s-32.166 -12 -47.499 -12c-13.333 0 -26.333 2.16699 -39 6.5s-25 9.16602 -37 14.499s-24 10.166 -36 14.499s-24 6.5 -36 6.5c-10 0 -20.333 -2.16699 -31 -6.5s-21.667 -11.833 -33 -22.5z" />
    <glyph glyph-name="hungarumlaut" unicode="&#x2dd;" 
d="M165 700h129l-86 -129h-78zM343 700h142l-134 -129h-81z" />
    <glyph glyph-name="acutecomb" unicode="&#x301;" 
d="M260 720h158l-137 -154h-80z" />
    <glyph glyph-name="uni0394" unicode="&#x394;" 
d="M18 0v71l241 634h79l243 -634v-71h-563zM164 115h270l-135 369h-5z" />
    <glyph glyph-name="uni0394" unicode="&#x2206;" 
d="M18 0v71l241 634h79l243 -634v-71h-563zM164 115h270l-135 369h-5z" />
    <glyph glyph-name="uni03A9" unicode="&#x3a9;" 
d="M7 110l151.998 0.000976562v13c-54.667 20.667 -92.5 54 -113.5 100s-31.5 104 -31.5 174c0 48.667 6.33301 92.5 19 131.5s31.167 72.167 55.5 99.5s54.333 48.5 90 63.5s76.167 22.5 121.5 22.5c48 0 89.833 -7.83301 125.5 -23.5s65.5 -37.5 89.5 -65.5
s41.833 -61.667 53.5 -101s17.5 -83 17.5 -131c0 -34.667 -2.16699 -65.834 -6.5 -93.501s-12 -52.5 -23 -74.5s-26 -41.333 -45 -58s-42.833 -31.334 -71.5 -44.001v-13h153v-110h-262v203c34.667 6 61.834 23.333 81.501 52s29.5 74.334 29.5 137.001
c0 24.667 -1.66699 49 -5 73s-10.166 45.5 -20.499 64.5s-24.833 34.167 -43.5 45.5s-43.334 17 -74.001 17c-51.333 0 -87.666 -17 -108.999 -51s-32 -84.667 -32 -152c0 -60.667 9.16699 -105.5 27.5 -134.5s45.833 -46.167 82.5 -51.5v-203h-261v110z" />
    <glyph glyph-name="uni03A9" unicode="&#x2126;" 
d="M7 110l151.998 0.000976562v13c-54.667 20.667 -92.5 54 -113.5 100s-31.5 104 -31.5 174c0 48.667 6.33301 92.5 19 131.5s31.167 72.167 55.5 99.5s54.333 48.5 90 63.5s76.167 22.5 121.5 22.5c48 0 89.833 -7.83301 125.5 -23.5s65.5 -37.5 89.5 -65.5
s41.833 -61.667 53.5 -101s17.5 -83 17.5 -131c0 -34.667 -2.16699 -65.834 -6.5 -93.501s-12 -52.5 -23 -74.5s-26 -41.333 -45 -58s-42.833 -31.334 -71.5 -44.001v-13h153v-110h-262v203c34.667 6 61.834 23.333 81.501 52s29.5 74.334 29.5 137.001
c0 24.667 -1.66699 49 -5 73s-10.166 45.5 -20.499 64.5s-24.833 34.167 -43.5 45.5s-43.334 17 -74.001 17c-51.333 0 -87.666 -17 -108.999 -51s-32 -84.667 -32 -152c0 -60.667 9.16699 -105.5 27.5 -134.5s45.833 -46.167 82.5 -51.5v-203h-261v110z" />
    <glyph glyph-name="pi" unicode="&#x3c0;" 
d="M516 156c0 -18.667 2.99805 -31.666 8.99805 -38.999s13.667 -11 23 -11c6.66699 0 13.5 0.666992 20.5 2s13.5 2.66602 19.5 3.99902l20 -90l-40.5 -16.5c-19 -7.66699 -43.5 -11.5 -73.5 -11.5c-39.333 0 -67.166 10.667 -83.499 32s-24.5 51.333 -24.5 90v274h-120
v-390h-130v390h-10c-14.667 0 -26.167 -3.66699 -34.5 -11s-15.833 -18.333 -22.5 -33l-76 48c10.667 34.667 27.334 61 50.001 79s53.667 27 93 27h463v-110h-83v-234z" />
    <glyph glyph-name="afii10023" unicode="&#x401;" 
d="M70 700h459v-122h-322v-163h297v-122h-297v-171h327v-122h-464v700zM102 805c0 18 6.33301 32.667 19 44s33 17 61 17s48.333 -5.66699 61 -17s19 -26 19 -44c0 -18.667 -6.33301 -33.334 -19 -44.001s-33 -16 -61 -16s-48.333 5.33301 -61 16s-19 25.334 -19 44.001z
M348 805c0 18 6.33301 32.667 19 44s33 17 61 17s48.333 -5.66699 61 -17s19 -26 19 -44c0 -18.667 -6.33301 -33.334 -19 -44.001s-33 -16 -61 -16s-48.333 5.33301 -61 16s-19 25.334 -19 44.001z" />
    <glyph glyph-name="afii10051" unicode="&#x402;" 
d="M295 0l-136.999 0.000976562v578h-144v122h475v-122h-194v-140c5.33301 2.66699 15.666 6.5 30.999 11.5s35.666 7.5 60.999 7.5c24.667 0 49.167 -3.83301 73.5 -11.5s47.166 -22.167 68.499 -43.5c18 -18 32.667 -40.667 44 -68s17 -61.333 17 -102
c0 -32 -3 -61.5 -9 -88.5s-15.667 -50.833 -29 -71.5c-14.667 -22 -34.834 -40.667 -60.501 -56s-58.5 -23 -98.5 -23c-7.33301 0 -16.666 0.333008 -27.999 1s-19.666 1.66699 -24.999 3v117c8.66699 -2 19.667 -3 33 -3c9.33301 0 18.833 1.5 28.5 4.5
s18.5 10.167 26.5 21.5c7.33301 9.33301 12.166 22.166 14.499 38.499s3.5 33.166 3.5 50.499c0 13.333 -1.83301 26.833 -5.5 40.5s-9.5 25.834 -17.5 36.501c-9.33301 12 -19.666 20.333 -30.999 25s-24.666 7 -39.999 7c-14.667 0 -27 -2 -37 -6s-16.667 -7 -20 -9v-320z
" />
    <glyph glyph-name="afii10052" unicode="&#x403;" 
d="M54 122h92v456h-92v122h514v-227h-110v105h-175v-456h149v-122h-378v122zM348 870h159v-30l-160 -88h-103z" />
    <glyph glyph-name="afii10053" unicode="&#x404;" 
d="M556 24c-6.66699 -4 -15.999 -8.33301 -27.999 -13s-25.833 -8.83398 -41.5 -12.501s-32.667 -6.66699 -51 -9s-36.833 -3.5 -55.5 -3.5c-42 0 -82.667 6 -122 18s-74.333 32 -105 60c-33.333 30 -59.833 68.5 -79.5 115.5s-29.5 103.833 -29.5 170.5
c0 70.667 10 129.667 30 177s46 85.333 78 114c28 25.333 59.667 43.833 95 55.5s72.666 17.5 111.999 17.5c34.667 0 68.5 -3 101.5 -9s60.167 -15 81.5 -27v-199h-110v109c-20 5.33301 -40 8 -60 8c-29.333 0 -54 -4 -74 -12s-39.333 -20.667 -58 -38
c-16 -15.333 -29 -35 -39 -59s-16.667 -49.667 -20 -77h237v-110h-238c2.66699 -32 9.33398 -60.167 20.001 -84.5s24 -44.5 40 -60.5c17.333 -17.333 37.666 -30.166 60.999 -38.499s48.333 -12.5 75 -12.5c26 0 49.333 2.66699 70 8v123h110v-211z" />
    <glyph glyph-name="afii10054" unicode="&#x405;" 
d="M65 229l110.002 -0.00390625v-99l6 -2c15.333 -6.66699 32.166 -12.167 50.499 -16.5s37.833 -6.5 58.5 -6.5c37.333 0 66.333 7.5 87 22.5s31 35.167 31 60.5c0 22.667 -8.5 41 -25.5 55s-38 26.333 -63 37s-52.333 21.334 -82 32.001s-57 24.167 -82 40.5
s-46 36.833 -63 61.5s-25.5 56.667 -25.5 96c0 30 5.83301 57.5 17.5 82.5s28 46.5 49 64.5s46.167 32 75.5 42s62 15 98 15c40.667 0 80.667 -3.66699 120 -11s70.666 -17.333 93.999 -30v-203h-110v111c-2 0 -4 0.333008 -6 1c-14.667 4 -30.5 7.16699 -47.5 9.5
s-33.833 3.5 -50.5 3.5c-32 0 -57.167 -6.33301 -75.5 -19s-27.5 -29.667 -27.5 -51c0 -22 8.5 -40 25.5 -54s38 -26.667 63 -38s52.333 -22.666 82 -33.999s57 -25.166 82 -41.499s46 -36.833 63 -61.5s25.5 -55.667 25.5 -93c0 -36 -6.66699 -67.5 -20 -94.5
s-32 -49.667 -56 -68s-52.333 -32 -85 -41s-68 -13.5 -106 -13.5c-25.333 0 -48.833 2 -70.5 6s-41.667 9 -60 15s-34.5 12.333 -48.5 19s-25.333 12.334 -34 17.001v186z" />
    <glyph glyph-name="afii10055" unicode="&#x406;" 
d="M54 122h177v456h-177v122h492v-122h-178v-456h178v-122h-492v122z" />
    <glyph glyph-name="afii10056" unicode="&#x407;" 
d="M54 122h177v456h-177v122h492v-122h-178v-456h178v-122h-492v122zM97 805c0 18 6.33301 32.667 19 44s33 17 61 17s48.333 -5.66699 61 -17s19 -26 19 -44c0 -18.667 -6.33301 -33.334 -19 -44.001s-33 -16 -61 -16s-48.333 5.33301 -61 16s-19 25.334 -19 44.001z
M343 805c0 18 6.33301 32.667 19 44s33 17 61 17s48.333 -5.66699 61 -17s19 -26 19 -44c0 -18.667 -6.33301 -33.334 -19 -44.001s-33 -16 -61 -16s-48.333 5.33301 -61 16s-19 25.334 -19 44.001z" />
    <glyph glyph-name="afii10057" unicode="&#x408;" 
d="M92 700l417.999 0.00195312v-446c0 -38 -4.83301 -73.667 -14.5 -107s-27.167 -63 -52.5 -89c-16 -16 -33.167 -28.667 -51.5 -38s-36.166 -16.333 -53.499 -21s-33.666 -7.66699 -48.999 -9s-28 -2 -38 -2c-32 0 -63 3.5 -93 10.5s-60 19.5 -90 37.5l49 110
c25.333 -14.667 47.166 -24.334 65.499 -29.001s39.5 -7 63.5 -7c14.667 0 30.5 2.83301 47.5 8.5s31.833 15.167 44.5 28.5c23.333 25.333 35 60.666 35 105.999v325h-281v122z" />
    <glyph glyph-name="afii10058" unicode="&#x409;" 
d="M269 589l-74.998 0.000976562c-3.33301 -128 -8.33301 -235.5 -15 -322.5s-19.334 -151.833 -38.001 -194.5c-6.66699 -16 -14.334 -29.167 -23.001 -39.5s-17.5 -18.333 -26.5 -24s-18.167 -9.66699 -27.5 -12s-18 -3.5 -26 -3.5c-12 0 -23.667 1.16699 -35 3.5
s-21 6.16602 -29 11.499l13 109c2.66699 -1.33301 5.16699 -2 7.5 -2h6.5c8 0 15.333 2.66699 22 8s12.667 14.333 18 27c6 14.667 11.5 36.334 16.5 65.001s9.16699 65.5 12.5 110.5s6.16602 98.333 8.49902 160s3.83301 133.167 4.5 214.5h304v-252c7.33301 2 18 4 32 6
s26.333 3 37 3c24.667 0 47.334 -3.16699 68.001 -9.5s38.5 -17.833 53.5 -34.5s26.833 -39.5 35.5 -68.5s13 -65.833 13 -110.5c0 -80 -15.333 -140.667 -46 -182s-84 -62 -160 -62c-6 0 -15 0.166992 -27 0.5s-25 1 -39 2s-28.5 2.66699 -43.5 5
s-28.833 5.16602 -41.5 8.49902v583zM427.002 101.001c25.333 0 44.332 9.5 56.999 28.5s19 51.5 19 97.5c0 24 -1.83301 43.667 -5.5 59s-8.66699 27.5 -15 36.5s-14.166 15.167 -23.499 18.5s-20 5 -32 5c-5.33301 0 -12.5 -0.833008 -21.5 -2.5
s-15.167 -3.83398 -18.5 -6.50098v-230c5.33301 -1.33301 11.5 -2.66602 18.5 -3.99902s14.167 -2 21.5 -2z" />
    <glyph glyph-name="afii10059" unicode="&#x40a;" 
d="M251 311h-141v-311h-118v700h118v-278h141v278h118v-271c4.66699 1.33301 14.167 3 28.5 5s26.833 3 37.5 3c24 0 46.5 -2.83301 67.5 -8.5s39.333 -16.167 55 -31.5s28 -36.833 37 -64.5s13.5 -63.834 13.5 -108.501c0 -80 -16 -139 -48 -177s-84.333 -57 -157 -57
c-6.66699 0 -16 0.166992 -28 0.5s-25.167 1 -39.5 2s-29 2.33301 -44 4s-28.5 3.83398 -40.5 6.50098v308zM410 101c25.333 0 44.165 9.33301 56.498 28s18.5 48.667 18.5 90c0 21.333 -1.66699 39 -5 53s-8.16602 25 -14.499 33s-14 13.5 -23 16.5s-19.5 4.5 -31.5 4.5
c-6.66699 0 -14.5 -0.833008 -23.5 -2.5s-15.167 -3.5 -18.5 -5.5v-211c4.66699 -2 10.834 -3.5 18.501 -4.5s15.167 -1.5 22.5 -1.5z" />
    <glyph glyph-name="afii10060" unicode="&#x40b;" 
d="M290 0h-137v578h-144v122h475v-122h-194v-177c11.333 10 26.666 19.333 45.999 28s43.333 13 72 13c22.667 0 45.334 -3.83301 68.001 -11.5s41.667 -19.834 57 -36.501c16 -17.333 28.667 -37.5 38 -60.5s14 -51.5 14 -85.5v-248h-137v196c0 14.667 -1 31.834 -3 51.501
s-7.33301 35.167 -16 46.5c-6.66699 8.66699 -15 16 -25 22s-22.667 9 -38 9c-16.667 0 -31.5 -3.5 -44.5 -10.5s-23.5 -14.833 -31.5 -23.5v-291z" />
    <glyph glyph-name="afii10061" unicode="&#x40c;" 
d="M256 292h-71v-292h-137v700h137v-286h71l160 286h156l-197 -338l222 -362h-169zM329 870h159v-30l-160 -88h-103z" />
    <glyph glyph-name="afii10062" unicode="&#x40e;" 
d="M297 332h47.999l99 368h141l-160 -517c-9.33301 -29.333 -19.5 -55.833 -30.5 -79.5s-24.333 -43.667 -40 -60s-34.5 -28.833 -56.5 -37.5s-48.667 -13 -80 -13c-19.333 0 -36.666 1.66699 -51.999 5s-32 10.333 -50 21l35 111c12 -6 22.5 -10 31.5 -12
s18.833 -3 29.5 -3c14.667 0 27 2 37 6s18.167 10 24.5 18s11.833 18 16.5 30s9 25.667 13 41h-101l-196 490h147zM238.999 884c2.66699 -21.333 10.499 -36.667 23.499 -46s29.833 -14 50.5 -14c44.667 0 69.334 19.667 74.001 59l111 -17
c-7.33301 -42 -26.5 -72.667 -57.5 -92s-73.833 -29 -128.5 -29c-27.333 0 -52.333 2 -75 6s-42.5 10.5 -59.5 19.5s-31 21.167 -42 36.5s-17.833 34.333 -20.5 57z" />
    <glyph glyph-name="afii10145" unicode="&#x40f;" 
d="M58 0v700h137v-578h209v578h137v-700h-182v-175h-123v175h-178z" />
    <glyph glyph-name="afii10017" unicode="&#x410;" 
d="M400 155h-209l-48 -155h-137l226 700h137l225 -700h-144zM223 265h150l-71 234h-9z" />
    <glyph glyph-name="afii10018" unicode="&#x411;" 
d="M74 700l431.003 -0.00195312v-122h-294v-146c11.333 2 25.166 4 41.499 6s32.5 3 48.5 3c37.333 0 71.666 -3.66699 102.999 -11s58.166 -19.5 80.499 -36.5s39.833 -39.333 52.5 -67s19 -61.5 19 -101.5c0 -39.333 -6.5 -73.666 -19.5 -102.999
s-31.667 -53.666 -56 -72.999s-53.666 -34 -87.999 -44s-72.833 -15 -115.5 -15c-11.333 0 -25.5 0.333008 -42.5 1s-35 1.66699 -54 3s-37.833 3 -56.5 5s-35.334 4.66699 -50.001 8v693zM287.003 102.998c17.333 0 33.5 2.16699 48.5 6.5s28.167 11 39.5 20
s20.333 20.5 27 34.5s10 31 10 51c0 24 -3.66699 43.333 -11 58s-17.333 26.167 -30 34.5s-27.167 13.833 -43.5 16.5s-33.833 4 -52.5 4c-9.33301 0 -21 -0.833008 -35 -2.5s-23.667 -3.16699 -29 -4.5v-213c7.33301 -2 18.5 -3.33301 33.5 -4s29.167 -1 42.5 -1z" />
    <glyph glyph-name="afii10019" unicode="&#x412;" 
d="M533 537c0 -17.333 -2.16602 -34.666 -6.49902 -51.999s-11.5 -33.166 -21.5 -47.499s-23 -27 -39 -38s-35.333 -19.167 -58 -24.5v-6c20 -3.33301 39 -9 57 -17s33.667 -19 47 -33s23.833 -31 31.5 -51s11.5 -43.667 11.5 -71c0 -36 -7.66699 -67.167 -23 -93.5
s-35.833 -47.833 -61.5 -64.5s-54.834 -29 -87.501 -37s-66.334 -12 -101.001 -12h-43.5c-17.667 0 -36.667 0.5 -57 1.5s-41 2.5 -62 4.5s-40.167 5 -57.5 9v690c12.667 2 27.167 4 43.5 6s33.833 3.66699 52.5 5s37.834 2.33301 57.501 3s39.167 1 58.5 1
c32.667 0 64.5 -2.5 95.5 -7.5s58.667 -13.833 83 -26.5s43.833 -30.334 58.5 -53.001s22 -51.334 22 -86.001zM283.001 103c16.667 0 32.834 2 48.501 6s29.5 10.167 41.5 18.5s21.667 18.833 29 31.5s11 27.667 11 45c0 22 -4.33301 39.333 -13 52s-20 22.5 -34 29.5
s-29.667 11.5 -47 13.5s-34.666 3 -51.999 3h-73v-193c3.33301 -1.33301 8.66602 -2.33301 15.999 -3s15.166 -1.16699 23.499 -1.5l26 -1c9 -0.333008 16.833 -0.5 23.5 -0.5zM238.001 406c9.33301 0 20.168 0.333008 32.501 1s22.5 1.66699 30.5 3
c25.333 8 47.166 20 65.499 36s27.5 37 27.5 63c0 17.333 -3.33301 31.666 -10 42.999s-15.5 20.333 -26.5 27s-23.5 11.334 -37.5 14.001s-28.667 4 -44 4c-17.333 0 -33.333 -0.333008 -48 -1s-26 -1.66699 -34 -3v-187h44z" />
    <glyph glyph-name="afii10020" unicode="&#x413;" 
d="M54 122h92v456h-92v122h514v-227h-110v105h-175v-456h149v-122h-378v122z" />
    <glyph glyph-name="afii10021" unicode="&#x414;" 
d="M592 -135h-120v135h-348v-135h-120v257h59c6.66699 12.667 14.834 31.667 24.501 57s18.667 59.5 27 102.5s15.166 96.333 20.499 160s7 140.167 5 229.5v29h379v-578h73v-257zM382 122l-0.000976562 456.003h-118c-1.33301 -59.333 -4 -112.833 -8 -160.5
s-9 -90.334 -15 -128.001s-12.667 -70.334 -20 -98.001s-14.666 -50.834 -21.999 -69.501h183z" />
    <glyph glyph-name="afii10022" unicode="&#x415;" 
d="M70 700h459v-122h-322v-163h297v-122h-297v-171h327v-122h-464v700z" />
    <glyph glyph-name="afii10024" unicode="&#x416;" 
d="M235 700h130v-297h34l50 297h136l-70 -349l82 -351h-138l-60 299h-34v-299h-130v299h-34l-60 -299h-138l82 351l-70 349h136l50 -297h34v297z" />
    <glyph glyph-name="afii10025" unicode="&#x417;" 
d="M51 235l110 -0.000976562v-112c2 -0.666992 3.66699 -1.33398 5 -2.00098c14.667 -4.66699 30.167 -8.66699 46.5 -12s34.166 -5 53.499 -5c16 0 31.5 2 46.5 6s28.5 10.333 40.5 19s21.5 19.667 28.5 33s10.5 29.333 10.5 48c0 20.667 -4.16699 37.5 -12.5 50.5
s-19.5 23 -33.5 30s-29.833 11.833 -47.5 14.5s-35.5 4.33398 -53.5 5.00098h-30v107h29c14 0 28.5 1.33301 43.5 4s28.5 7.33398 40.5 14.001s22 15.834 30 27.501s12 26.5 12 44.5c0 15.333 -3 28.5 -9 39.5s-14.333 20 -25 27s-23 12.167 -37 15.5s-29.333 5 -46 5
c-31.333 0 -58.666 -3.33301 -81.999 -10v-103h-110v190c24.667 10.667 56.5 20.167 95.5 28.5s80.167 12.5 123.5 12.5c29.333 0 58 -2.83301 86 -8.5s53 -15.334 75 -29.001s39.667 -32 53 -55s20 -51.833 20 -86.5s-9.16699 -66 -27.5 -94s-47.833 -48.667 -88.5 -62v-5
c44 -11.333 78 -30.333 102 -57s36 -64 36 -112c0 -38 -7.66699 -70.667 -23 -98s-35.5 -49.833 -60.5 -67.5s-53.833 -30.667 -86.5 -39s-66 -12.5 -100 -12.5c-44 0 -84.5 3.83301 -121.5 11.5s-68.167 17.5 -93.5 29.5v208z" />
    <glyph glyph-name="afii10026" unicode="&#x418;" 
d="M413 370l8 91h-5l-41 -94l-198 -367h-127v700h137v-363l-10 -94h6l43 97l198 360h126v-700h-137v370z" />
    <glyph glyph-name="afii10027" unicode="&#x419;" 
d="M413 370l8 91h-5l-41 -94l-198 -367h-127v700h137v-363l-10 -94h6l43 97l198 360h126v-700h-137v370zM240 884c2.66699 -21.333 10.499 -36.667 23.499 -46s29.833 -14 50.5 -14c44.667 0 69.334 19.667 74.001 59l111 -17c-7.33301 -42 -26.5 -72.667 -57.5 -92
s-73.833 -29 -128.5 -29c-27.333 0 -52.333 2 -75 6s-42.5 10.5 -59.5 19.5s-31 21.167 -42 36.5s-17.833 34.333 -20.5 57z" />
    <glyph glyph-name="afii10028" unicode="&#x41a;" 
d="M256 292h-71v-292h-137v700h137v-286h71l160 286h156l-197 -338l222 -362h-169z" />
    <glyph glyph-name="afii10029" unicode="&#x41b;" 
d="M421 578l-128.998 -0.000976562c-3.33301 -63.333 -6.83301 -121 -10.5 -173s-8.33398 -98.833 -14.001 -140.5s-12.667 -78.167 -21 -109.5s-19.166 -57.666 -32.499 -78.999c-19.333 -32 -41 -53.833 -65 -65.5s-48.667 -17.5 -74 -17.5
c-15.333 0 -28.833 1.5 -40.5 4.5s-20.5 6.16699 -26.5 9.5l15 118c3.33301 -1.33301 7.16602 -2.33301 11.499 -3s8.5 -1 12.5 -1c10.667 0 21.5 2.66699 32.5 8s20.5 14.333 28.5 27c9.33301 14.667 17.333 36.5 24 65.5s12.167 65.667 16.5 110s7.66602 97 9.99902 158
s4.5 131.167 6.5 210.5h393v-700h-137v578z" />
    <glyph glyph-name="afii10030" unicode="&#x41c;" 
d="M423 373l5 109h-6l-112 -183h-24l-117 183h-5l6 -98v-384h-130v700h139l120 -194h4l119 194h138v-700h-137v373z" />
    <glyph glyph-name="afii10031" unicode="&#x41d;" 
d="M413 293h-226v-293h-137v700h137v-285h226v285h137v-700h-137v293z" />
    <glyph glyph-name="afii10032" unicode="&#x41e;" 
d="M36 350c0 56.667 5.33398 107.667 16.001 153s27 83.5 49 114.5s49.5 54.833 82.5 71.5s71.833 25 116.5 25c48 0 88.667 -9 122 -27s60.5 -43 81.5 -75s36.333 -70.333 46 -115s14.5 -93.667 14.5 -147c0 -114 -21.833 -203.167 -65.5 -267.5
s-109.834 -96.5 -198.501 -96.5c-48 0 -88.833 9 -122.5 27s-61 43 -82 75s-36.167 70.333 -45.5 115s-14 93.667 -14 147zM180.001 350c0 -34 1.50195 -65.665 4.50195 -94.998s8.66699 -54.833 17 -76.5s20.333 -38.834 36 -51.501s36.5 -19 62.5 -19
c23.333 0 42.666 4.83301 57.999 14.5s27.666 24.5 36.999 44.5s15.833 45.167 19.5 75.5s5.5 66.166 5.5 107.499c0 32.667 -1.16699 63.667 -3.5 93s-7.66602 55 -15.999 77s-20.5 39.5 -36.5 52.5s-37.333 19.5 -64 19.5c-46.667 0 -78.334 -20.333 -95.001 -61
s-25 -101 -25 -181z" />
    <glyph glyph-name="afii10033" unicode="&#x41f;" 
d="M407 578h-214v-578h-137v700h488v-700h-137v578z" />
    <glyph glyph-name="afii10034" unicode="&#x420;" 
d="M73 693c28 5.33301 58.8311 9.49902 92.498 12.499s67.167 4.5 100.5 4.5c34.667 0 69.5 -2.83301 104.5 -8.5s66.5 -17 94.5 -34s50.833 -40.667 68.5 -71s26.5 -69.833 26.5 -118.5c0 -42.667 -7.66699 -79.167 -23 -109.5s-35.666 -55.333 -60.999 -75
s-54.166 -34 -86.499 -43s-65.833 -13.5 -100.5 -13.5h-16c-7.33301 0 -15 0.166992 -23 0.5s-15.833 0.833008 -23.5 1.5s-13.167 1.33398 -16.5 2.00098v-241h-137v693zM276.998 591.999c-13.333 0 -26 -0.499023 -38 -1.49902s-21.667 -2.16699 -29 -3.5v-227
c2.66699 -0.666992 6.66699 -1.33398 12 -2.00098s11 -1.16699 17 -1.5s11.833 -0.5 17.5 -0.5h12.5c18 0 35.833 1.66699 53.5 5s33.5 9.5 47.5 18.5s25.167 21.5 33.5 37.5s12.5 37 12.5 63c0 22 -4 40.167 -12 54.5s-18.5 25.833 -31.5 34.5s-27.833 14.667 -44.5 18
s-33.667 5 -51 5z" />
    <glyph glyph-name="afii10035" unicode="&#x421;" 
d="M444 235l109.999 0.00195312v-200c-21.333 -15.333 -48.5 -27.333 -81.5 -36s-66.833 -13 -101.5 -13c-44 0 -85.833 6.5 -125.5 19.5s-74.5 34 -104.5 63s-54 66.667 -72 113s-27 102.5 -27 168.5c0 68.667 10.167 126.167 30.5 172.5s46.5 83.666 78.5 111.999
s67.667 48.666 107 60.999s78 18.5 116 18.5c40 0 73.833 -3.33301 101.5 -10s50.5 -14.334 68.5 -23.001v-208h-110v114c-20.667 3.33301 -42 5 -64 5c-26 0 -50.167 -4.83301 -72.5 -14.5s-41.833 -24.5 -58.5 -44.5s-29.667 -45.167 -39 -75.5s-14 -66.166 -14 -107.499
c0 -36 4.33301 -68.833 13 -98.5s21.334 -55.167 38.001 -76.5s37 -37.833 61 -49.5s51.333 -17.5 82 -17.5c22 0 43.333 2 64 6v121z" />
    <glyph glyph-name="afii10036" unicode="&#x422;" 
d="M118 110h114v480h-96v-121h-110v231h548v-231h-110v121h-95v-480h113v-110h-364v110z" />
    <glyph glyph-name="afii10037" unicode="&#x423;" 
d="M297 332h47.999l99 368h141l-160 -517c-9.33301 -29.333 -19.5 -55.833 -30.5 -79.5s-24.333 -43.667 -40 -60s-34.5 -28.833 -56.5 -37.5s-48.667 -13 -80 -13c-19.333 0 -36.666 1.66699 -51.999 5s-32 10.333 -50 21l35 111c12 -6 22.5 -10 31.5 -12
s18.833 -3 29.5 -3c14.667 0 27 2 37 6s18.167 10 24.5 18s11.833 18 16.5 30s9 25.667 13 41h-101l-196 490h147z" />
    <glyph glyph-name="afii10038" unicode="&#x424;" 
d="M360 173c14.667 2 28.333 5.83105 41 11.498s23.667 15.334 33 29.001s16.5 32.167 21.5 55.5s7.5 53.333 7.5 90c0 60.667 -8.16699 104.334 -24.5 131.001s-42.5 41.667 -78.5 45v-362zM239.999 534.998c-36 -3.33301 -62.165 -18.3311 -78.498 -44.998
s-24.5 -70.334 -24.5 -131.001c0 -36.667 2.5 -66.667 7.5 -90s12.167 -41.833 21.5 -55.5s20.166 -23.334 32.499 -29.001s26.166 -9.5 41.499 -11.5v362zM233.001 720l134.001 -0.000976562v-76c28.667 -1.33301 56.667 -6.5 84 -15.5s51.833 -24 73.5 -45
s39 -49.5 52 -85.5s19.5 -82 19.5 -138c0 -54 -6.16699 -99.333 -18.5 -136s-28.833 -66.5 -49.5 -89.5s-45 -39.667 -73 -50s-57.333 -16.5 -88 -18.5v-86h-134v86c-31.333 2 -60.833 8.16699 -88.5 18.5s-51.834 27 -72.501 50s-37.167 52.833 -49.5 89.5
s-18.5 82 -18.5 136c0 53.333 6.5 97.833 19.5 133.5s30.333 64.334 52 86.001s46.167 37.5 73.5 47.5s55.333 15.667 84 17v76z" />
    <glyph glyph-name="afii10039" unicode="&#x425;" 
d="M220 359l-198 341h160l102 -190l23 -51l22 51l104 190h155l-201 -342l207 -358h-160l-107 200l-27 54l-26 -54l-112 -200h-155z" />
    <glyph glyph-name="afii10040" unicode="&#x426;" 
d="M596 -135h-120v135h-430v700h137v-578h192v578h137v-578h84v-257z" />
    <glyph glyph-name="afii10041" unicode="&#x427;" 
d="M187 700l0.00195312 -222c0 -40 7.83301 -69.833 23.5 -89.5s41.5 -29.5 77.5 -29.5c25.333 0 49.166 2.83301 71.499 8.5s40.166 14.167 53.499 25.5v307h137v-700h-137v282c-17.333 -10 -40.5 -19.167 -69.5 -27.5s-63.5 -12.5 -103.5 -12.5
c-28 0 -53.5 3.5 -76.5 10.5s-43 18.333 -60 34s-30.167 35.667 -39.5 60s-14 53.833 -14 88.5v265h137z" />
    <glyph glyph-name="afii10042" unicode="&#x428;" 
d="M44 0v700h120v-578h76v578h120v-578h76v578h120v-700h-512z" />
    <glyph glyph-name="afii10043" unicode="&#x429;" 
d="M30 0v700h120v-578h66v578h120v-578h66v578h120v-578h76v-257h-120v135h-448z" />
    </font>
</defs>
</svg>
